SplineFontDB: 3.0
FontName: DecoTechTL
FullName: DecoTech TL
FamilyName: DecoTech TL
Weight: Book
Version: 1.0; October 2, 2001
ItalicAngle: 0
UnderlinePosition: -125
UnderlineWidth: 50
Ascent: 800
Descent: 200
InvalidEm: 0
sfntRevision: 0x00010000
LayerCount: 2
Layer: 0 1 "Back" 1
Layer: 1 1 "Fore" 0
XUID: [1021 343 -1907178068 7360]
StyleMap: 0x0040
FSType: 0
OS2Version: 0
OS2_WeightWidthSlopeOnly: 0
OS2_UseTypoMetrics: 0
CreationTime: 1002070503
ModificationTime: 1537927335
PfmFamily: 17
TTFWeight: 400
TTFWidth: 5
LineGap: 0
VLineGap: 0
Panose: 2 0 5 6 2 0 0 2 0 4
OS2TypoAscent: 856
OS2TypoAOffset: 0
OS2TypoDescent: -200
OS2TypoDOffset: 0
OS2TypoLinegap: 79
OS2WinAscent: 876
OS2WinAOffset: 0
OS2WinDescent: 250
OS2WinDOffset: 0
HheadAscent: 876
HheadAOffset: 0
HheadDescent: -250
HheadDOffset: 0
OS2SubXSize: 204
OS2SubYSize: 204
OS2SubXOff: 0
OS2SubYOff: 286
OS2SupXSize: 204
OS2SupYSize: 204
OS2SupXOff: 0
OS2SupYOff: 286
OS2StrikeYSize: 102
OS2StrikeYPos: 512
OS2Vendor: 'pyrs'
OS2UnicodeRanges: 80000003.00000000.00000000.00000000
Lookup: 258 0 0 "'kern' Horizontal Kerning in Latin lookup 0" { "'kern' Horizontal Kerning in Latin lookup 0 subtable"  } ['kern' ('latn' <'dflt' > ) ]
DEI: 91125
ShortTable: maxp 16
  1
  0
  231
  100
  7
  74
  4
  2
  0
  0
  0
  0
  0
  0
  2
  1
EndShort
LangName: 1033 "" "" "Regular" "FONTLAB30:TTEXPORT" "" "Version 1.0; October 2, 2001"
GaspTable: 1 65535 3 0
Encoding: UnicodeBmp
UnicodeInterp: none
NameList: AGL For New Fonts
DisplaySize: -48
AntiAlias: 1
FitToEm: 0
WinInfo: 0 16 11
BeginChars: 65539 231

StartChar: breve
Encoding: 5 5 4
Width: 426
Flags: W
LayerCount: 2
Fore
SplineSet
107 841 m 1,0,1
 115 806 115 806 142 781 c 128,-1,2
 169 756 169 756 213 756 c 0,3,4
 235 756 235 756 253.5 763 c 128,-1,5
 272 770 272 770 285.5 782 c 128,-1,6
 299 794 299 794 307.5 809.5 c 128,-1,7
 316 825 316 825 319 841 c 1,8,-1
 271 841 l 1,9,10
 270 837 270 837 267 829.5 c 128,-1,11
 264 822 264 822 257 814.5 c 128,-1,12
 250 807 250 807 239 801.5 c 128,-1,13
 228 796 228 796 212 796 c 0,14,15
 197 796 197 796 186.5 801 c 128,-1,16
 176 806 176 806 170 812.5 c 128,-1,17
 164 819 164 819 160.5 827 c 128,-1,18
 157 835 157 835 155 841 c 1,19,-1
 107 841 l 1,0,1
EndSplineSet
EndChar

StartChar: dotaccent
Encoding: 6 6 5
Width: 426
Flags: W
LayerCount: 2
Fore
SplineSet
245 759 m 1,0,-1
 245 823 l 1,1,-1
 181 823 l 1,2,-1
 181 759 l 1,3,-1
 245 759 l 1,0,-1
EndSplineSet
EndChar

StartChar: ring
Encoding: 8 8 6
Width: 426
Flags: W
LayerCount: 2
Fore
SplineSet
156 799 m 0,0,1
 156 794 156 794 158 784.5 c 128,-1,2
 160 775 160 775 166.5 765.5 c 128,-1,3
 173 756 173 756 184 749 c 128,-1,4
 195 742 195 742 213 742 c 0,5,6
 239 742 239 742 254.5 758 c 128,-1,7
 270 774 270 774 270 799 c 0,8,9
 270 823 270 823 254.5 839.5 c 128,-1,10
 239 856 239 856 213 856 c 256,11,12
 187 856 187 856 171.5 839 c 128,-1,13
 156 822 156 822 156 799 c 0,0,1
189 799 m 0,14,15
 189 809 189 809 196.5 816 c 128,-1,16
 204 823 204 823 214 823 c 0,17,18
 223 823 223 823 230 816.5 c 128,-1,19
 237 810 237 810 237 799 c 0,20,21
 237 790 237 790 230.5 782.5 c 128,-1,22
 224 775 224 775 213 775 c 0,23,24
 205 775 205 775 197 781 c 128,-1,25
 189 787 189 787 189 799 c 0,14,15
EndSplineSet
EndChar

StartChar: hungarumlaut
Encoding: 10 10 7
Width: 426
Flags: W
LayerCount: 2
Fore
SplineSet
263 733 m 1,0,-1
 346 815 l 1,1,-1
 316 844 l 1,2,-1
 234 762 l 1,3,-1
 263 733 l 1,0,-1
156 733 m 1,4,-1
 238 815 l 1,5,-1
 209 844 l 1,6,-1
 126 762 l 1,7,-1
 156 733 l 1,4,-1
EndSplineSet
EndChar

StartChar: ogonek
Encoding: 11 11 8
Width: 426
Flags: W
LayerCount: 2
Fore
SplineSet
353 0 m 1,0,1
 351 -6 351 -6 349.5 -13.5 c 128,-1,2
 348 -21 348 -21 348 -32 c 0,3,4
 348 -52 348 -52 356 -67 c 128,-1,5
 364 -82 364 -82 376 -92.5 c 128,-1,6
 388 -103 388 -103 403 -108 c 128,-1,7
 418 -113 418 -113 433 -113 c 0,8,9
 450 -113 450 -113 460 -109 c 128,-1,10
 470 -105 470 -105 476 -102 c 1,11,-1
 454 -73 l 1,12,13
 450 -75 450 -75 445.5 -76.5 c 128,-1,14
 441 -78 441 -78 434 -78 c 256,15,16
 427 -78 427 -78 418.5 -75 c 128,-1,17
 410 -72 410 -72 402.5 -66 c 128,-1,18
 395 -60 395 -60 390 -51 c 128,-1,19
 385 -42 385 -42 385 -30 c 0,20,21
 385 -20 385 -20 387 -13 c 128,-1,22
 389 -6 389 -6 391 0 c 1,23,-1
 353 0 l 1,0,1
EndSplineSet
EndChar

StartChar: caron
Encoding: 12 12 9
Width: 426
Flags: W
LayerCount: 2
Fore
SplineSet
213 748 m 1,0,-1
 332 792 l 1,1,-1
 318 831 l 1,2,-1
 213 793 l 1,3,-1
 108 831 l 1,4,-1
 94 792 l 1,5,-1
 213 748 l 1,0,-1
EndSplineSet
EndChar

StartChar: dotlessi
Encoding: 13 13 10
Width: 185
Flags: W
LayerCount: 2
Fore
SplineSet
54 0 m 1,0,-1
 131 0 l 1,1,-1
 131 704 l 1,2,-1
 54 704 l 1,3,-1
 54 0 l 1,0,-1
EndSplineSet
EndChar

StartChar: fraction
Encoding: 25 25 11
Width: 74
Flags: W
LayerCount: 2
Fore
SplineSet
-35 0 m 1,0,-1
 155 710 l 1,1,-1
 108 710 l 1,2,-1
 -81 0 l 1,3,-1
 -35 0 l 1,0,-1
EndSplineSet
EndChar

StartChar: fi
Encoding: 26 26 12
Width: 518
Flags: W
LayerCount: 2
Fore
SplineSet
-25 218 m 1,0,-1
 20 146 l 1,1,-1
 86 146 l 1,2,-1
 86 0 l 1,3,-1
 163 0 l 1,4,-1
 163 146 l 1,5,-1
 306 146 l 1,6,-1
 306 218 l 1,7,-1
 163 218 l 1,8,-1
 163 627 l 1,9,-1
 306 627 l 1,10,-1
 306 704 l 1,11,-1
 86 704 l 1,12,-1
 86 218 l 1,13,-1
 -25 218 l 1,0,-1
381 0 m 1,14,-1
 458 0 l 1,15,-1
 458 704 l 1,16,-1
 381 704 l 1,17,-1
 381 0 l 1,14,-1
EndSplineSet
EndChar

StartChar: fl
Encoding: 27 27 13
Width: 574
Flags: W
LayerCount: 2
Fore
SplineSet
-25 218 m 1,0,-1
 20 146 l 1,1,-1
 86 146 l 1,2,-1
 86 0 l 1,3,-1
 163 0 l 1,4,-1
 163 146 l 1,5,-1
 306 146 l 1,6,-1
 306 218 l 1,7,-1
 163 218 l 1,8,-1
 163 627 l 1,9,-1
 306 627 l 1,10,-1
 306 704 l 1,11,-1
 86 704 l 1,12,-1
 86 218 l 1,13,-1
 -25 218 l 1,0,-1
588 77 m 1,14,-1
 502 77 l 2,15,16
 485 77 485 77 476 79.5 c 128,-1,17
 467 82 467 82 463 88 c 128,-1,18
 459 94 459 94 458 105 c 128,-1,19
 457 116 457 116 457 133 c 2,20,-1
 457 704 l 1,21,-1
 379 704 l 1,22,-1
 379 133 l 2,23,24
 379 106 379 106 382 83.5 c 128,-1,25
 385 61 385 61 404 36 c 0,26,27
 419 15 419 15 444 7.5 c 128,-1,28
 469 0 469 0 502 0 c 2,29,-1
 588 0 l 1,30,-1
 588 77 l 1,14,-1
EndSplineSet
EndChar

StartChar: Lslash
Encoding: 28 28 14
Width: 241
Flags: W
LayerCount: 2
Fore
SplineSet
52 256 m 1,0,-1
 52 133 l 2,1,2
 52 106 52 106 55 83.5 c 128,-1,3
 58 61 58 61 77 36 c 0,4,5
 92 15 92 15 117 7.5 c 128,-1,6
 142 0 142 0 175 0 c 2,7,-1
 261 0 l 1,8,-1
 261 77 l 1,9,-1
 175 77 l 2,10,11
 158 77 158 77 149 79.5 c 128,-1,12
 140 82 140 82 135.5 88 c 128,-1,13
 131 94 131 94 130 105 c 128,-1,14
 129 116 129 116 129 133 c 2,15,-1
 129 292 l 1,16,-1
 224 336 l 1,17,-1
 207 373 l 1,18,-1
 129 337 l 1,19,-1
 129 704 l 1,20,-1
 52 704 l 1,21,-1
 52 301 l 1,22,-1
 -19 268 l 1,23,-1
 -1 230 l 1,24,-1
 52 256 l 1,0,-1
EndSplineSet
EndChar

StartChar: lslash
Encoding: 29 29 15
Width: 241
Flags: W
LayerCount: 2
Fore
SplineSet
52 256 m 1,0,-1
 52 133 l 2,1,2
 52 106 52 106 55 83.5 c 128,-1,3
 58 61 58 61 77 36 c 0,4,5
 92 15 92 15 117 7.5 c 128,-1,6
 142 0 142 0 175 0 c 2,7,-1
 261 0 l 1,8,-1
 261 77 l 1,9,-1
 175 77 l 2,10,11
 158 77 158 77 149 79.5 c 128,-1,12
 140 82 140 82 135.5 88 c 128,-1,13
 131 94 131 94 130 105 c 128,-1,14
 129 116 129 116 129 133 c 2,15,-1
 129 292 l 1,16,-1
 224 336 l 1,17,-1
 207 373 l 1,18,-1
 129 337 l 1,19,-1
 129 704 l 1,20,-1
 52 704 l 1,21,-1
 52 301 l 1,22,-1
 -19 268 l 1,23,-1
 -1 230 l 1,24,-1
 52 256 l 1,0,-1
EndSplineSet
EndChar

StartChar: Zcaron
Encoding: 30 30 16
Width: 241
Flags: W
LayerCount: 2
Fore
SplineSet
237 0 m 1,0,-1
 237 77 l 1,1,-1
 92 77 l 1,2,-1
 248 704 l 1,3,-1
 12 704 l 1,4,-1
 12 627 l 1,5,-1
 149 627 l 1,6,-1
 -7 0 l 1,7,-1
 237 0 l 1,0,-1
143 748 m 1,8,-1
 262 792 l 1,9,-1
 248 831 l 1,10,-1
 143 793 l 1,11,-1
 38 831 l 1,12,-1
 24 792 l 1,13,-1
 143 748 l 1,8,-1
EndSplineSet
EndChar

StartChar: zcaron
Encoding: 31 31 17
Width: 241
Flags: W
LayerCount: 2
Fore
SplineSet
237 0 m 1,0,-1
 237 77 l 1,1,-1
 92 77 l 1,2,-1
 248 704 l 1,3,-1
 12 704 l 1,4,-1
 12 627 l 1,5,-1
 149 627 l 1,6,-1
 -7 0 l 1,7,-1
 237 0 l 1,0,-1
143 748 m 1,8,-1
 262 792 l 1,9,-1
 248 831 l 1,10,-1
 143 793 l 1,11,-1
 38 831 l 1,12,-1
 24 792 l 1,13,-1
 143 748 l 1,8,-1
EndSplineSet
EndChar

StartChar: exclam
Encoding: 33 33 18
Width: 185
Flags: W
LayerCount: 2
Fore
SplineSet
131 0 m 1,0,-1
 131 77 l 1,1,-1
 54 77 l 1,2,-1
 54 0 l 1,3,-1
 131 0 l 1,0,-1
131 148 m 1,4,-1
 131 710 l 1,5,-1
 54 710 l 1,6,-1
 54 148 l 1,7,-1
 131 148 l 1,4,-1
EndSplineSet
EndChar

StartChar: quotedbl
Encoding: 34 34 19
Width: 185
Flags: W
LayerCount: 2
Fore
SplineSet
68 483 m 1,0,-1
 68 704 l 1,1,-1
 24 704 l 1,2,-1
 24 483 l 1,3,-1
 68 483 l 1,0,-1
161 483 m 1,4,-1
 161 704 l 1,5,-1
 117 704 l 1,6,-1
 117 483 l 1,7,-1
 161 483 l 1,4,-1
EndSplineSet
EndChar

StartChar: numbersign
Encoding: 35 35 20
Width: 389
Flags: W
LayerCount: 2
Fore
SplineSet
144 594 m 1,0,-1
 78 594 l 1,1,-1
 66 549 l 1,2,-1
 132 549 l 1,3,-1
 103 439 l 1,4,-1
 34 439 l 1,5,-1
 25 395 l 1,6,-1
 91 395 l 1,7,-1
 62 285 l 1,8,-1
 106 285 l 1,9,-1
 135 395 l 1,10,-1
 201 395 l 1,11,-1
 171 285 l 1,12,-1
 215 285 l 1,13,-1
 245 395 l 1,14,-1
 311 395 l 1,15,-1
 323 439 l 1,16,-1
 257 439 l 1,17,-1
 286 549 l 1,18,-1
 352 549 l 1,19,-1
 364 594 l 1,20,-1
 298 594 l 1,21,-1
 327 704 l 1,22,-1
 283 704 l 1,23,-1
 254 594 l 1,24,-1
 188 594 l 1,25,-1
 218 704 l 1,26,-1
 174 704 l 1,27,-1
 144 594 l 1,0,-1
213 439 m 1,28,-1
 147 439 l 1,29,-1
 176 549 l 1,30,-1
 242 549 l 1,31,-1
 213 439 l 1,28,-1
EndSplineSet
EndChar

StartChar: dollar
Encoding: 36 36 21
Width: 352
Flags: W
LayerCount: 2
Fore
SplineSet
188 -79 m 1,0,-1
 188 0 l 1,1,-1
 203 0 l 1,2,3
 224 38 224 38 235.5 82 c 128,-1,4
 247 126 247 126 247 171 c 0,5,6
 247 192 247 192 245 210.5 c 128,-1,7
 243 229 243 229 237.5 247.5 c 128,-1,8
 232 266 232 266 224 287.5 c 128,-1,9
 216 309 216 309 204 337 c 0,10,11
 193 364 193 364 186.5 383.5 c 128,-1,12
 180 403 180 403 176.5 418.5 c 128,-1,13
 173 434 173 434 172 447.5 c 128,-1,14
 171 461 171 461 171 475 c 0,15,16
 171 550 171 550 199 607.5 c 128,-1,17
 227 665 227 665 265 704 c 1,18,-1
 213 704 l 1,19,-1
 213 775 l 1,20,-1
 184 775 l 1,21,-1
 184 704 l 1,22,-1
 160 704 l 1,23,24
 136 671 136 671 121.5 638.5 c 128,-1,25
 107 606 107 606 99.5 576 c 128,-1,26
 92 546 92 546 90 520.5 c 128,-1,27
 88 495 88 495 88 477 c 0,28,29
 88 430 88 430 96.5 394 c 128,-1,30
 105 358 105 358 125 314 c 0,31,32
 136 289 136 289 143.5 270.5 c 128,-1,33
 151 252 151 252 156 235.5 c 128,-1,34
 161 219 161 219 163.5 203 c 128,-1,35
 166 187 166 187 166 167 c 0,36,37
 166 115 166 115 146.5 72 c 128,-1,38
 127 29 127 29 105 0 c 1,39,-1
 157 0 l 1,40,-1
 157 -79 l 1,41,-1
 188 -79 l 1,0,-1
EndSplineSet
EndChar

StartChar: percent
Encoding: 37 37 22
Width: 556
Flags: W
LayerCount: 2
Fore
SplineSet
30 347 m 2,0,1
 30 318 30 318 51 294.5 c 128,-1,2
 72 271 72 271 113 271 c 0,3,4
 128 271 128 271 143 275.5 c 128,-1,5
 158 280 158 280 169.5 289.5 c 128,-1,6
 181 299 181 299 188.5 313.5 c 128,-1,7
 196 328 196 328 196 347 c 2,8,-1
 196 641 l 2,9,10
 196 653 196 653 191 666.5 c 128,-1,11
 186 680 186 680 176 691.5 c 128,-1,12
 166 703 166 703 150 710 c 128,-1,13
 134 717 134 717 112 717 c 0,14,15
 80 717 80 717 55 696.5 c 128,-1,16
 30 676 30 676 30 641 c 2,17,-1
 30 347 l 2,0,1
88 630 m 2,18,19
 88 640 88 640 91 652.5 c 128,-1,20
 94 665 94 665 112 665 c 0,21,22
 131 665 131 665 134 653 c 128,-1,23
 137 641 137 641 137 630 c 2,24,-1
 137 360 l 2,25,26
 137 349 137 349 134 336.5 c 128,-1,27
 131 324 131 324 113 324 c 0,28,29
 104 324 104 324 98.5 327.5 c 128,-1,30
 93 331 93 331 91 336.5 c 128,-1,31
 89 342 89 342 88.5 348.5 c 128,-1,32
 88 355 88 355 88 360 c 2,33,-1
 88 630 l 2,18,19
360 66 m 2,34,35
 360 37 360 37 381 13 c 128,-1,36
 402 -11 402 -11 443 -11 c 0,37,38
 458 -11 458 -11 473 -6 c 128,-1,39
 488 -1 488 -1 499.5 8.5 c 128,-1,40
 511 18 511 18 518.5 32.5 c 128,-1,41
 526 47 526 47 526 66 c 2,42,-1
 526 359 l 2,43,44
 526 372 526 372 521 385.5 c 128,-1,45
 516 399 516 399 506 410 c 128,-1,46
 496 421 496 421 480 428.5 c 128,-1,47
 464 436 464 436 442 436 c 0,48,49
 410 436 410 436 385 414.5 c 128,-1,50
 360 393 360 393 360 359 c 2,51,-1
 360 66 l 2,34,35
418 348 m 2,52,53
 418 359 418 359 421 371 c 128,-1,54
 424 383 424 383 443 383 c 0,55,56
 461 383 461 383 464 371 c 128,-1,57
 467 359 467 359 467 348 c 2,58,-1
 467 78 l 2,59,60
 467 68 467 68 464 55.5 c 128,-1,61
 461 43 461 43 443 43 c 0,62,63
 424 43 424 43 421 55 c 128,-1,64
 418 67 418 67 418 78 c 2,65,-1
 418 348 l 2,52,53
206 0 m 1,66,-1
 396 710 l 1,67,-1
 349 710 l 1,68,-1
 160 0 l 1,69,-1
 206 0 l 1,66,-1
EndSplineSet
EndChar

StartChar: ampersand
Encoding: 38 38 23
Width: 482
Flags: W
LayerCount: 2
Fore
SplineSet
445 225 m 1,0,-1
 338 225 l 1,1,-1
 338 424 l 1,2,-1
 261 424 l 1,3,-1
 261 225 l 1,4,5
 248 233 248 233 232.5 246 c 128,-1,6
 217 259 217 259 200 282 c 0,7,8
 179 312 179 312 169 347 c 128,-1,9
 159 382 159 382 159 418 c 0,10,11
 159 453 159 453 168.5 489 c 128,-1,12
 178 525 178 525 199 557 c 128,-1,13
 220 589 220 589 254 615 c 128,-1,14
 288 641 288 641 338 656 c 1,15,-1
 338 735 l 1,16,17
 293 723 293 723 247.5 697 c 128,-1,18
 202 671 202 671 165 631.5 c 128,-1,19
 128 592 128 592 105 539.5 c 128,-1,20
 82 487 82 487 82 421 c 0,21,22
 82 383 82 383 89.5 352 c 128,-1,23
 97 321 97 321 107.5 296 c 128,-1,24
 118 271 118 271 130.5 252 c 128,-1,25
 143 233 143 233 153 219 c 1,26,27
 122 208 122 208 102 184 c 128,-1,28
 82 160 82 160 82 128 c 2,29,-1
 82 101 l 2,30,31
 82 91 82 91 85.5 74 c 128,-1,32
 89 57 89 57 100.5 40.5 c 128,-1,33
 112 24 112 24 132.5 12 c 128,-1,34
 153 0 153 0 187 0 c 2,35,-1
 338 0 l 1,36,-1
 338 152 l 1,37,-1
 397 152 l 1,38,-1
 445 225 l 1,0,-1
261 77 m 1,39,-1
 196 77 l 2,40,41
 191 77 191 77 184.5 78 c 128,-1,42
 178 79 178 79 172.5 82 c 128,-1,43
 167 85 167 85 163 91 c 128,-1,44
 159 97 159 97 159 108 c 2,45,-1
 159 123 l 2,46,47
 159 140 159 140 169 146 c 128,-1,48
 179 152 179 152 196 152 c 2,49,-1
 261 152 l 1,50,-1
 261 77 l 1,39,-1
EndSplineSet
EndChar

StartChar: quotesingle
Encoding: 39 39 24
Width: 93
Flags: W
LayerCount: 2
Fore
SplineSet
68 483 m 1,0,-1
 68 704 l 1,1,-1
 24 704 l 1,2,-1
 24 483 l 1,3,-1
 68 483 l 1,0,-1
EndSplineSet
EndChar

StartChar: parenleft
Encoding: 40 40 25
Width: 296
Flags: W
LayerCount: 2
Fore
SplineSet
262 0 m 1,0,1
 244 15 244 15 219.5 47 c 128,-1,2
 195 79 195 79 172 125 c 128,-1,3
 149 171 149 171 133 230 c 128,-1,4
 117 289 117 289 117 358 c 0,5,6
 117 401 117 401 124.5 447 c 128,-1,7
 132 493 132 493 149.5 539.5 c 128,-1,8
 167 586 167 586 194.5 631 c 128,-1,9
 222 676 222 676 262 716 c 1,10,-1
 262 825 l 1,11,12
 216 790 216 790 175 742.5 c 128,-1,13
 134 695 134 695 103.5 636.5 c 128,-1,14
 73 578 73 578 55 508.5 c 128,-1,15
 37 439 37 439 37 358 c 256,16,17
 37 277 37 277 55 207.5 c 128,-1,18
 73 138 73 138 103.5 79 c 128,-1,19
 134 20 134 20 175 -27 c 128,-1,20
 216 -74 216 -74 262 -110 c 1,21,-1
 262 0 l 1,0,1
EndSplineSet
EndChar

StartChar: parenright
Encoding: 41 41 26
Width: 296
Flags: W
LayerCount: 2
Fore
SplineSet
34 -110 m 1,0,1
 80 -74 80 -74 121 -27 c 128,-1,2
 162 20 162 20 192.5 79 c 128,-1,3
 223 138 223 138 241 207.5 c 128,-1,4
 259 277 259 277 259 358 c 256,5,6
 259 439 259 439 241 508.5 c 128,-1,7
 223 578 223 578 192 636.5 c 128,-1,8
 161 695 161 695 120.5 742.5 c 128,-1,9
 80 790 80 790 34 825 c 1,10,-1
 34 716 l 1,11,12
 52 700 52 700 77 668 c 128,-1,13
 102 636 102 636 124.5 590.5 c 128,-1,14
 147 545 147 545 163 486 c 128,-1,15
 179 427 179 427 179 358 c 0,16,17
 179 313 179 313 171 266 c 128,-1,18
 163 219 163 219 145.5 173 c 128,-1,19
 128 127 128 127 100.5 83 c 128,-1,20
 73 39 73 39 34 0 c 1,21,-1
 34 -110 l 1,0,1
EndSplineSet
EndChar

StartChar: asterisk
Encoding: 42 42 27
Width: 259
Flags: W
LayerCount: 2
Fore
SplineSet
152 483 m 1,0,-1
 152 555 l 1,1,-1
 214 519 l 1,2,-1
 236 558 l 1,3,-1
 174 594 l 1,4,-1
 236 630 l 1,5,-1
 214 668 l 1,6,-1
 152 632 l 1,7,-1
 152 704 l 1,8,-1
 108 704 l 1,9,-1
 108 632 l 1,10,-1
 45 668 l 1,11,-1
 23 630 l 1,12,-1
 86 594 l 1,13,-1
 23 558 l 1,14,-1
 45 519 l 1,15,-1
 108 555 l 1,16,-1
 108 483 l 1,17,-1
 152 483 l 1,0,-1
EndSplineSet
EndChar

StartChar: plus
Encoding: 43 43 28
Width: 296
Flags: W
LayerCount: 2
Fore
SplineSet
114 148 m 1,0,-1
 114 34 l 1,1,-1
 182 34 l 1,2,-1
 182 148 l 1,3,-1
 282 148 l 1,4,-1
 282 216 l 1,5,-1
 182 216 l 1,6,-1
 182 336 l 1,7,-1
 114 336 l 1,8,-1
 114 216 l 1,9,-1
 14 216 l 1,10,-1
 14 148 l 1,11,-1
 114 148 l 1,0,-1
EndSplineSet
EndChar

StartChar: comma
Encoding: 44 44 29
Width: 148
Flags: W
LayerCount: 2
Fore
SplineSet
36 -74 m 1,0,1
 47 -70 47 -70 59.5 -63 c 128,-1,2
 72 -56 72 -56 88 -37 c 0,3,4
 107 -13 107 -13 110 5.5 c 128,-1,5
 113 24 113 24 113 43 c 2,6,-1
 113 77 l 1,7,-1
 36 77 l 1,8,-1
 36 -74 l 1,0,1
EndSplineSet
EndChar

StartChar: hyphen
Encoding: 45 45 30
Width: 259
Flags: W
LayerCount: 2
Fore
SplineSet
218 148 m 1,0,-1
 218 225 l 1,1,-1
 41 225 l 1,2,-1
 41 148 l 1,3,-1
 218 148 l 1,0,-1
EndSplineSet
EndChar

StartChar: period
Encoding: 46 46 31
Width: 148
Flags: W
LayerCount: 2
Fore
SplineSet
113 0 m 1,0,-1
 113 77 l 1,1,-1
 36 77 l 1,2,-1
 36 0 l 1,3,-1
 113 0 l 1,0,-1
EndSplineSet
EndChar

StartChar: slash
Encoding: 47 47 32
Width: 296
Flags: W
LayerCount: 2
Fore
SplineSet
295 822 m 1,0,-1
 248 822 l 1,1,-1
 1 -106 l 1,2,-1
 47 -106 l 1,3,-1
 295 822 l 1,0,-1
EndSplineSet
EndChar

StartChar: zero
Encoding: 48 48 33
Width: 352
Flags: W
LayerCount: 2
Fore
SplineSet
49 105 m 2,0,1
 49 73 49 73 60.5 49.5 c 128,-1,2
 72 26 72 26 90 11 c 128,-1,3
 108 -4 108 -4 131 -11 c 128,-1,4
 154 -18 154 -18 177 -18 c 0,5,6
 190 -18 190 -18 211 -13.5 c 128,-1,7
 232 -9 232 -9 252.5 4.5 c 128,-1,8
 273 18 273 18 287.5 42 c 128,-1,9
 302 66 302 66 302 105 c 2,10,-1
 302 599 l 2,11,12
 302 620 302 620 294.5 641.5 c 128,-1,13
 287 663 287 663 271.5 681 c 128,-1,14
 256 699 256 699 232 710.5 c 128,-1,15
 208 722 208 722 175 722 c 0,16,17
 152 722 152 722 129.5 714.5 c 128,-1,18
 107 707 107 707 89 691.5 c 128,-1,19
 71 676 71 676 60 653 c 128,-1,20
 49 630 49 630 49 599 c 2,21,-1
 49 105 l 2,0,1
126 580 m 2,22,23
 126 588 126 588 127 599 c 128,-1,24
 128 610 128 610 132.5 620.5 c 128,-1,25
 137 631 137 631 147 638 c 128,-1,26
 157 645 157 645 176 645 c 0,27,28
 194 645 194 645 204 638 c 128,-1,29
 214 631 214 631 218.5 621 c 128,-1,30
 223 611 223 611 224 599.5 c 128,-1,31
 225 588 225 588 225 580 c 2,32,-1
 225 126 l 2,33,34
 225 118 225 118 224 106.5 c 128,-1,35
 223 95 223 95 218.5 85 c 128,-1,36
 214 75 214 75 204.5 68 c 128,-1,37
 195 61 195 61 177 61 c 0,38,39
 158 61 158 61 147.5 67.5 c 128,-1,40
 137 74 137 74 132.5 84 c 128,-1,41
 128 94 128 94 127 105.5 c 128,-1,42
 126 117 126 117 126 126 c 2,43,-1
 126 580 l 2,22,23
EndSplineSet
EndChar

StartChar: one
Encoding: 49 49 34
Width: 352
Flags: W
LayerCount: 2
Fore
SplineSet
219 0 m 1,0,-1
 219 735 l 1,1,-1
 83 599 l 1,2,-1
 142 599 l 1,3,-1
 142 0 l 1,4,-1
 219 0 l 1,0,-1
EndSplineSet
EndChar

StartChar: two
Encoding: 50 50 35
Width: 352
Flags: W
LayerCount: 2
Fore
SplineSet
293 0 m 1,0,-1
 293 77 l 1,1,-1
 159 77 l 1,2,-1
 257 286 l 2,3,4
 270 314 270 314 277.5 332 c 128,-1,5
 285 350 285 350 288.5 364.5 c 128,-1,6
 292 379 292 379 292.5 395 c 128,-1,7
 293 411 293 411 293 435 c 2,8,-1
 293 599 l 2,9,10
 293 624 293 624 284.5 646.5 c 128,-1,11
 276 669 276 669 260 685.5 c 128,-1,12
 244 702 244 702 220.5 712 c 128,-1,13
 197 722 197 722 167 722 c 0,14,15
 140 722 140 722 116.5 712.5 c 128,-1,16
 93 703 93 703 76 686.5 c 128,-1,17
 59 670 59 670 49.5 647.5 c 128,-1,18
 40 625 40 625 40 599 c 2,19,-1
 40 422 l 1,20,-1
 117 422 l 1,21,-1
 117 599 l 2,22,23
 117 615 117 615 128.5 630 c 128,-1,24
 140 645 140 645 167 645 c 0,25,26
 183 645 183 645 199.5 635 c 128,-1,27
 216 625 216 625 216 599 c 2,28,-1
 216 435 l 2,29,30
 216 413 216 413 215 398.5 c 128,-1,31
 214 384 214 384 210 370.5 c 128,-1,32
 206 357 206 357 198.5 340.5 c 128,-1,33
 191 324 191 324 179 298 c 2,34,-1
 40 0 l 1,35,-1
 293 0 l 1,0,-1
EndSplineSet
EndChar

StartChar: three
Encoding: 51 51 36
Width: 352
Flags: W
LayerCount: 2
Fore
SplineSet
3 218 m 1,0,-1
 49 146 l 1,1,-1
 184 146 l 2,2,3
 190 146 190 146 197 145.5 c 128,-1,4
 204 145 204 145 210.5 142.5 c 128,-1,5
 217 140 217 140 221 134 c 128,-1,6
 225 128 225 128 225 117 c 0,7,8
 225 94 225 94 218.5 85.5 c 128,-1,9
 212 77 212 77 184 77 c 2,10,-1
 49 77 l 1,11,-1
 49 0 l 1,12,-1
 184 0 l 2,13,14
 241 0 241 0 271.5 27 c 128,-1,15
 302 54 302 54 302 98 c 2,16,-1
 302 122 l 2,17,18
 302 132 302 132 299 146 c 128,-1,19
 296 160 296 160 288.5 173.5 c 128,-1,20
 281 187 281 187 266.5 199 c 128,-1,21
 252 211 252 211 230 218 c 1,22,23
 267 265 267 265 284.5 314 c 128,-1,24
 302 363 302 363 302 423 c 0,25,26
 302 481 302 481 283.5 531 c 128,-1,27
 265 581 265 581 231.5 621 c 128,-1,28
 198 661 198 661 151.5 690 c 128,-1,29
 105 719 105 719 49 735 c 1,30,-1
 49 654 l 1,31,32
 65 649 65 649 93.5 636.5 c 128,-1,33
 122 624 122 624 151 597 c 0,34,35
 187 563 187 563 206 516 c 128,-1,36
 225 469 225 469 225 421 c 0,37,38
 225 397 225 397 219.5 369.5 c 128,-1,39
 214 342 214 342 201.5 314.5 c 128,-1,40
 189 287 189 287 168.5 262 c 128,-1,41
 148 237 148 237 119 218 c 1,42,-1
 3 218 l 1,0,-1
EndSplineSet
EndChar

StartChar: four
Encoding: 52 52 37
Width: 352
Flags: W
LayerCount: 2
Fore
SplineSet
262 0 m 1,0,-1
 262 143 l 1,1,-1
 330 143 l 1,2,-1
 366 220 l 1,3,-1
 262 220 l 1,4,-1
 262 735 l 1,5,-1
 -14 143 l 1,6,-1
 185 143 l 1,7,-1
 185 0 l 1,8,-1
 262 0 l 1,0,-1
99 220 m 1,9,-1
 185 409 l 1,10,-1
 185 220 l 1,11,-1
 99 220 l 1,9,-1
EndSplineSet
EndChar

StartChar: five
Encoding: 53 53 38
Width: 352
Flags: W
LayerCount: 2
Fore
SplineSet
46 0 m 1,0,-1
 185 0 l 2,1,2
 198 0 198 0 218.5 1.5 c 128,-1,3
 239 3 239 3 258 13 c 128,-1,4
 277 23 277 23 291 43.5 c 128,-1,5
 305 64 305 64 305 102 c 2,6,-1
 305 125 l 2,7,8
 305 139 305 139 300 157 c 128,-1,9
 295 175 295 175 282 190.5 c 128,-1,10
 269 206 269 206 247.5 216.5 c 128,-1,11
 226 227 226 227 193 227 c 2,12,-1
 124 227 l 1,13,-1
 124 627 l 1,14,-1
 305 627 l 1,15,-1
 305 704 l 1,16,-1
 46 704 l 1,17,-1
 46 149 l 1,18,-1
 185 149 l 2,19,20
 210 149 210 149 218.5 143 c 128,-1,21
 227 137 227 137 227 117 c 0,22,23
 227 91 227 91 219.5 84 c 128,-1,24
 212 77 212 77 185 77 c 2,25,-1
 46 77 l 1,26,-1
 46 0 l 1,0,-1
EndSplineSet
EndChar

StartChar: six
Encoding: 54 54 39
Width: 352
Flags: W
LayerCount: 2
Fore
SplineSet
312 424 m 1,0,-1
 312 599 l 2,1,2
 312 628 312 628 301 651 c 128,-1,3
 290 674 290 674 272.5 689.5 c 128,-1,4
 255 705 255 705 232 713.5 c 128,-1,5
 209 722 209 722 185 722 c 0,6,7
 159 722 159 722 136.5 712.5 c 128,-1,8
 114 703 114 703 96.5 686.5 c 128,-1,9
 79 670 79 670 69 647.5 c 128,-1,10
 59 625 59 625 59 599 c 2,11,-1
 59 182 l 2,12,13
 59 154 59 154 61 122 c 128,-1,14
 63 90 63 90 74 63 c 128,-1,15
 85 36 85 36 109 18 c 128,-1,16
 133 0 133 0 178 0 c 2,17,-1
 207 0 l 2,18,19
 257 0 257 0 284.5 27.5 c 128,-1,20
 312 55 312 55 312 89 c 2,21,-1
 312 123 l 2,22,23
 312 136 312 136 307.5 153 c 128,-1,24
 303 170 303 170 291 185 c 128,-1,25
 279 200 279 200 258 210 c 128,-1,26
 237 220 237 220 204 220 c 2,27,-1
 136 220 l 1,28,-1
 136 599 l 2,29,30
 136 616 136 616 147.5 630.5 c 128,-1,31
 159 645 159 645 185 645 c 0,32,33
 208 645 208 645 221.5 632 c 128,-1,34
 235 619 235 619 235 599 c 2,35,-1
 235 424 l 1,36,-1
 312 424 l 1,0,-1
201 148 m 2,37,38
 216 148 216 148 225.5 144.5 c 128,-1,39
 235 141 235 141 235 118 c 2,40,-1
 235 101 l 2,41,42
 235 83 235 83 224 80 c 128,-1,43
 213 77 213 77 204 77 c 2,44,-1
 181 77 l 2,45,46
 164 77 164 77 150 85 c 128,-1,47
 136 93 136 93 136 120 c 2,48,-1
 136 148 l 1,49,-1
 201 148 l 2,37,38
EndSplineSet
EndChar

StartChar: seven
Encoding: 55 55 40
Width: 352
Flags: W
LayerCount: 2
Fore
SplineSet
144 0 m 1,0,-1
 319 704 l 1,1,-1
 73 704 l 1,2,-1
 73 627 l 1,3,-1
 216 627 l 1,4,-1
 60 0 l 1,5,-1
 144 0 l 1,0,-1
EndSplineSet
EndChar

StartChar: eight
Encoding: 56 56 41
Width: 352
Flags: W
LayerCount: 2
Fore
SplineSet
49 329 m 2,0,1
 49 303 49 303 54 283 c 128,-1,2
 59 263 59 263 66 247.5 c 128,-1,3
 73 232 73 232 80.5 221.5 c 128,-1,4
 88 211 88 211 93 204 c 1,5,6
 87 198 87 198 79.5 189.5 c 128,-1,7
 72 181 72 181 65.5 169 c 128,-1,8
 59 157 59 157 54 141.5 c 128,-1,9
 49 126 49 126 49 106 c 0,10,11
 49 82 49 82 57 59.5 c 128,-1,12
 65 37 65 37 81.5 20 c 128,-1,13
 98 3 98 3 121.5 -7.5 c 128,-1,14
 145 -18 145 -18 177 -18 c 0,15,16
 207 -18 207 -18 230.5 -8 c 128,-1,17
 254 2 254 2 269.5 19 c 128,-1,18
 285 36 285 36 293.5 58.5 c 128,-1,19
 302 81 302 81 302 106 c 0,20,21
 302 146 302 146 286 169 c 128,-1,22
 270 192 270 192 258 204 c 1,23,24
 263 210 263 210 270.5 220 c 128,-1,25
 278 230 278 230 285 245.5 c 128,-1,26
 292 261 292 261 297 282 c 128,-1,27
 302 303 302 303 302 329 c 2,28,-1
 302 580 l 2,29,30
 302 641 302 641 269 681.5 c 128,-1,31
 236 722 236 722 175 722 c 0,32,33
 151 722 151 722 128 713 c 128,-1,34
 105 704 105 704 87.5 686.5 c 128,-1,35
 70 669 70 669 59.5 642.5 c 128,-1,36
 49 616 49 616 49 580 c 2,37,-1
 49 329 l 2,0,1
126 580 m 2,38,39
 126 587 126 587 127 598 c 128,-1,40
 128 609 128 609 132.5 619.5 c 128,-1,41
 137 630 137 630 147 637.5 c 128,-1,42
 157 645 157 645 176 645 c 0,43,44
 194 645 194 645 204 638 c 128,-1,45
 214 631 214 631 218.5 621 c 128,-1,46
 223 611 223 611 224 599.5 c 128,-1,47
 225 588 225 588 225 580 c 2,48,-1
 225 329 l 2,49,50
 225 306 225 306 221 290.5 c 128,-1,51
 217 275 217 275 210 265.5 c 128,-1,52
 203 256 203 256 194.5 249.5 c 128,-1,53
 186 243 186 243 176 238 c 1,54,55
 168 242 168 242 159.5 247.5 c 128,-1,56
 151 253 151 253 143.5 262.5 c 128,-1,57
 136 272 136 272 131 288 c 128,-1,58
 126 304 126 304 126 329 c 2,59,-1
 126 580 l 2,38,39
176 59 m 0,60,61
 152 59 152 59 139 75 c 128,-1,62
 126 91 126 91 126 110 c 0,63,64
 126 133 126 133 142 145 c 128,-1,65
 158 157 158 157 176 157 c 0,66,67
 193 157 193 157 209 146 c 128,-1,68
 225 135 225 135 225 109 c 0,69,70
 225 88 225 88 212 73.5 c 128,-1,71
 199 59 199 59 176 59 c 0,60,61
EndSplineSet
EndChar

StartChar: nine
Encoding: 57 57 42
Width: 352
Flags: W
LayerCount: 2
Fore
SplineSet
257 0 m 1,0,1
 272 22 272 22 280.5 48 c 128,-1,2
 289 74 289 74 293 102.5 c 128,-1,3
 297 131 297 131 297.5 160.5 c 128,-1,4
 298 190 298 190 298 220 c 2,5,-1
 298 580 l 2,6,7
 298 612 298 612 292 635.5 c 128,-1,8
 286 659 286 659 264 685 c 0,9,10
 247 705 247 705 221 713.5 c 128,-1,11
 195 722 195 722 172 722 c 0,12,13
 142 722 142 722 118.5 711.5 c 128,-1,14
 95 701 95 701 80 684 c 0,15,16
 63 666 63 666 55 642 c 128,-1,17
 47 618 47 618 47 580 c 2,18,-1
 47 302 l 2,19,20
 47 264 47 264 53 238 c 128,-1,21
 59 212 59 212 81 186 c 0,22,23
 98 166 98 166 121 157.5 c 128,-1,24
 144 149 144 149 163 149 c 2,25,-1
 221 149 l 1,26,27
 222 64 222 64 163 0 c 1,28,-1
 257 0 l 1,0,1
163 227 m 2,29,30
 148 227 148 227 140.5 233 c 128,-1,31
 133 239 133 239 129 249.5 c 128,-1,32
 125 260 125 260 124.5 274 c 128,-1,33
 124 288 124 288 124 303 c 2,34,-1
 124 580 l 2,35,36
 124 587 124 587 124.5 598.5 c 128,-1,37
 125 610 125 610 129.5 620 c 128,-1,38
 134 630 134 630 144 637.5 c 128,-1,39
 154 645 154 645 172 645 c 256,40,41
 190 645 190 645 200 638 c 128,-1,42
 210 631 210 631 214.5 621.5 c 128,-1,43
 219 612 219 612 220 600.5 c 128,-1,44
 221 589 221 589 221 580 c 2,45,-1
 221 227 l 1,46,-1
 163 227 l 2,29,30
EndSplineSet
EndChar

StartChar: colon
Encoding: 58 58 43
Width: 148
Flags: W
LayerCount: 2
Fore
SplineSet
113 0 m 1,0,-1
 113 77 l 1,1,-1
 36 77 l 1,2,-1
 36 0 l 1,3,-1
 113 0 l 1,0,-1
113 378 m 1,4,-1
 113 455 l 1,5,-1
 36 455 l 1,6,-1
 36 378 l 1,7,-1
 113 378 l 1,4,-1
EndSplineSet
EndChar

StartChar: semicolon
Encoding: 59 59 44
Width: 148
Flags: W
LayerCount: 2
Fore
SplineSet
36 -74 m 1,0,1
 47 -70 47 -70 59.5 -63 c 128,-1,2
 72 -56 72 -56 88 -37 c 0,3,4
 107 -13 107 -13 110 5.5 c 128,-1,5
 113 24 113 24 113 43 c 2,6,-1
 113 77 l 1,7,-1
 36 77 l 1,8,-1
 36 -74 l 1,0,1
113 290 m 1,9,-1
 113 367 l 1,10,-1
 36 367 l 1,11,-1
 36 290 l 1,12,-1
 113 290 l 1,9,-1
EndSplineSet
EndChar

StartChar: less
Encoding: 60 60 45
Width: 600
Flags: W
LayerCount: 2
Fore
SplineSet
554 74 m 1,0,-1
 150 253 l 1,1,-1
 554 432 l 1,2,-1
 554 514 l 1,3,-1
 46 289 l 1,4,-1
 46 217 l 1,5,-1
 554 -8 l 1,6,-1
 554 74 l 1,0,-1
EndSplineSet
EndChar

StartChar: equal
Encoding: 61 61 46
Width: 278
Flags: W
LayerCount: 2
Fore
SplineSet
26 272 m 1,0,-1
 26 204 l 1,1,-1
 252 204 l 1,2,-1
 252 272 l 1,3,-1
 26 272 l 1,0,-1
26 161 m 1,4,-1
 26 93 l 1,5,-1
 252 93 l 1,6,-1
 252 161 l 1,7,-1
 26 161 l 1,4,-1
EndSplineSet
EndChar

StartChar: greater
Encoding: 62 62 47
Width: 600
Flags: W
LayerCount: 2
Fore
SplineSet
46 74 m 1,0,-1
 46 -8 l 1,1,-1
 554 217 l 1,2,-1
 554 289 l 1,3,-1
 46 514 l 1,4,-1
 46 432 l 1,5,-1
 450 253 l 1,6,-1
 46 74 l 1,0,-1
EndSplineSet
EndChar

StartChar: question
Encoding: 63 63 48
Width: 315
Flags: W
LayerCount: 2
Fore
SplineSet
182 0 m 1,0,-1
 182 77 l 1,1,-1
 105 77 l 1,2,-1
 105 0 l 1,3,-1
 182 0 l 1,0,-1
110 420 m 1,4,-1
 110 599 l 2,5,6
 110 603 110 603 110.5 611 c 128,-1,7
 111 619 111 619 115 626.5 c 128,-1,8
 119 634 119 634 126.5 639.5 c 128,-1,9
 134 645 134 645 149 645 c 0,10,11
 162 645 162 645 174.5 635.5 c 128,-1,12
 187 626 187 626 187 599 c 2,13,-1
 187 318 l 2,14,15
 187 278 187 278 165 253 c 0,16,17
 144 230 144 230 105 230 c 1,18,-1
 105 143 l 1,19,20
 135 144 135 144 163.5 155.5 c 128,-1,21
 192 167 192 167 214.5 189 c 128,-1,22
 237 211 237 211 250.5 243 c 128,-1,23
 264 275 264 275 264 318 c 2,24,-1
 264 599 l 2,25,26
 264 629 264 629 255 652 c 128,-1,27
 246 675 246 675 230 690.5 c 128,-1,28
 214 706 214 706 193.5 714 c 128,-1,29
 173 722 173 722 149 722 c 0,30,31
 120 722 120 722 98.5 711.5 c 128,-1,32
 77 701 77 701 62 683.5 c 128,-1,33
 47 666 47 666 39.5 644 c 128,-1,34
 32 622 32 622 32 599 c 2,35,-1
 32 420 l 1,36,-1
 110 420 l 1,4,-1
EndSplineSet
EndChar

StartChar: at
Encoding: 64 64 49
Width: 800
Flags: W
LayerCount: 2
Fore
SplineSet
649 153 m 1,0,1
 608 106 608 106 548.5 78.5 c 128,-1,2
 489 51 489 51 423 51 c 0,3,4
 360 51 360 51 305 73.5 c 128,-1,5
 250 96 250 96 209.5 135.5 c 128,-1,6
 169 175 169 175 146 229 c 128,-1,7
 123 283 123 283 123 347 c 0,8,9
 123 410 123 410 144.5 465 c 128,-1,10
 166 520 166 520 205 561 c 128,-1,11
 244 602 244 602 297.5 625.5 c 128,-1,12
 351 649 351 649 415 649 c 0,13,14
 470 649 470 649 518.5 632 c 128,-1,15
 567 615 567 615 603.5 583.5 c 128,-1,16
 640 552 640 552 661.5 505.5 c 128,-1,17
 683 459 683 459 683 401 c 0,18,19
 683 369 683 369 672.5 336.5 c 128,-1,20
 662 304 662 304 644 278.5 c 128,-1,21
 626 253 626 253 603.5 237 c 128,-1,22
 581 221 581 221 557 221 c 0,23,24
 548 221 548 221 544 227.5 c 128,-1,25
 540 234 540 234 539 244 c 128,-1,26
 538 254 538 254 540 266.5 c 128,-1,27
 542 279 542 279 545 291 c 2,28,-1
 611 533 l 1,29,-1
 543 533 l 1,30,-1
 527 481 l 1,31,32
 507 519 507 519 477.5 536 c 128,-1,33
 448 553 448 553 415 553 c 0,34,35
 365 553 365 553 325 531 c 128,-1,36
 285 509 285 509 257.5 473 c 128,-1,37
 230 437 230 437 215.5 392 c 128,-1,38
 201 347 201 347 201 301 c 0,39,40
 201 272 201 272 211 245.5 c 128,-1,41
 221 219 221 219 239 199 c 128,-1,42
 257 179 257 179 281.5 167 c 128,-1,43
 306 155 306 155 335 155 c 0,44,45
 371 155 371 155 401.5 172.5 c 128,-1,46
 432 190 432 190 453 213 c 1,47,-1
 455 213 l 1,48,49
 457 184 457 184 474 169.5 c 128,-1,50
 491 155 491 155 517 155 c 0,51,52
 550 155 550 155 590.5 172.5 c 128,-1,53
 631 190 631 190 666 224.5 c 128,-1,54
 701 259 701 259 725 310 c 128,-1,55
 749 361 749 361 749 427 c 0,56,57
 749 488 749 488 722 540.5 c 128,-1,58
 695 593 695 593 649 631 c 128,-1,59
 603 669 603 669 542.5 690.5 c 128,-1,60
 482 712 482 712 415 712 c 0,61,62
 341 712 341 712 274.5 684 c 128,-1,63
 208 656 208 656 158.5 607 c 128,-1,64
 109 558 109 558 80 492.5 c 128,-1,65
 51 427 51 427 51 351 c 0,66,67
 51 274 51 274 80 207.5 c 128,-1,68
 109 141 109 141 159 92 c 128,-1,69
 209 43 209 43 276.5 15.5 c 128,-1,70
 344 -12 344 -12 421 -12 c 0,71,72
 507 -12 507 -12 576 23.5 c 128,-1,73
 645 59 645 59 689 113 c 1,74,-1
 649 153 l 1,0,1
419 483 m 0,75,76
 435 483 435 483 449 475.5 c 128,-1,77
 463 468 463 468 473.5 455 c 128,-1,78
 484 442 484 442 490.5 425.5 c 128,-1,79
 497 409 497 409 497 391 c 0,80,81
 497 367 497 367 486.5 338.5 c 128,-1,82
 476 310 476 310 458 285 c 128,-1,83
 440 260 440 260 415 243.5 c 128,-1,84
 390 227 390 227 361 227 c 0,85,86
 325 227 325 227 303 252.5 c 128,-1,87
 281 278 281 278 281 319 c 0,88,89
 281 343 281 343 291 371.5 c 128,-1,90
 301 400 301 400 319 425 c 128,-1,91
 337 450 337 450 362.5 466.5 c 128,-1,92
 388 483 388 483 419 483 c 0,75,76
EndSplineSet
EndChar

StartChar: A
Encoding: 65 65 50
Width: 296
Flags: W
LayerCount: 2
Fore
SplineSet
293 0 m 1,0,-1
 148 753 l 1,1,-1
 3 0 l 1,2,-1
 82 0 l 1,3,-1
 107 146 l 1,4,-1
 189 146 l 1,5,-1
 215 0 l 1,6,-1
 293 0 l 1,0,-1
176 218 m 1,7,-1
 120 218 l 1,8,-1
 148 381 l 1,9,-1
 176 218 l 1,7,-1
EndSplineSet
EndChar

StartChar: B
Encoding: 66 66 51
Width: 320
Flags: W
LayerCount: 2
Fore
SplineSet
36 0 m 1,0,-1
 170 0 l 2,1,2
 202 0 202 0 224.5 8.5 c 128,-1,3
 247 17 247 17 261.5 30.5 c 128,-1,4
 276 44 276 44 282.5 61.5 c 128,-1,5
 289 79 289 79 289 97 c 2,6,-1
 289 129 l 2,7,8
 289 154 289 154 280.5 170.5 c 128,-1,9
 272 187 272 187 259.5 196.5 c 128,-1,10
 247 206 247 206 233 210.5 c 128,-1,11
 219 215 219 215 209 218 c 1,12,13
 218 228 218 228 232 245.5 c 128,-1,14
 246 263 246 263 258.5 287.5 c 128,-1,15
 271 312 271 312 280 345 c 128,-1,16
 289 378 289 378 289 419 c 256,17,18
 289 460 289 460 276 507 c 128,-1,19
 263 554 263 554 233 598 c 128,-1,20
 203 642 203 642 154.5 678.5 c 128,-1,21
 106 715 106 715 36 735 c 1,22,-1
 36 0 l 1,0,-1
113 611 m 1,23,24
 146 586 146 586 165.5 557 c 128,-1,25
 185 528 185 528 195.5 500 c 128,-1,26
 206 472 206 472 209 448.5 c 128,-1,27
 212 425 212 425 212 410 c 0,28,29
 212 388 212 388 207 363 c 128,-1,30
 202 338 202 338 191 312.5 c 128,-1,31
 180 287 180 287 160.5 262.5 c 128,-1,32
 141 238 141 238 113 218 c 1,33,-1
 113 611 l 1,23,24
113 146 m 1,34,-1
 177 146 l 2,35,36
 203 146 203 146 207.5 134.5 c 128,-1,37
 212 123 212 123 212 106 c 0,38,39
 212 85 212 85 200 81 c 128,-1,40
 188 77 188 77 177 77 c 2,41,-1
 113 77 l 1,42,-1
 113 146 l 1,34,-1
EndSplineSet
EndChar

StartChar: C
Encoding: 67 67 52
Width: 259
Flags: W
LayerCount: 2
Fore
SplineSet
275 0 m 1,0,1
 255 17 255 17 225.5 45.5 c 128,-1,2
 196 74 196 74 168.5 117 c 128,-1,3
 141 160 141 160 121 218 c 128,-1,4
 101 276 101 276 101 353 c 0,5,6
 101 428 101 428 121.5 486.5 c 128,-1,7
 142 545 142 545 170.5 588.5 c 128,-1,8
 199 632 199 632 228.5 660.5 c 128,-1,9
 258 689 258 689 275 704 c 1,10,-1
 163 704 l 1,11,12
 99 630 99 630 61.5 540.5 c 128,-1,13
 24 451 24 451 24 353 c 0,14,15
 24 254 24 254 60.5 163.5 c 128,-1,16
 97 73 97 73 163 0 c 1,17,-1
 275 0 l 1,0,1
EndSplineSet
EndChar

StartChar: D
Encoding: 68 68 53
Width: 333
Flags: W
LayerCount: 2
Fore
SplineSet
54 -25 m 1,0,1
 182 26 182 26 250.5 124.5 c 128,-1,2
 319 223 319 223 319 352 c 256,3,4
 319 481 319 481 250.5 579 c 128,-1,5
 182 677 182 677 54 728 c 1,6,-1
 54 -25 l 1,0,1
131 591 m 1,7,8
 182 543 182 543 212 480.5 c 128,-1,9
 242 418 242 418 242 348 c 0,10,11
 242 279 242 279 212 217.5 c 128,-1,12
 182 156 182 156 131 108 c 1,13,-1
 131 591 l 1,7,8
EndSplineSet
EndChar

StartChar: E
Encoding: 69 69 54
Width: 286
Flags: W
LayerCount: 2
Fore
SplineSet
39 0 m 1,0,-1
 259 0 l 1,1,-1
 259 77 l 1,2,-1
 116 77 l 1,3,-1
 116 225 l 1,4,-1
 259 225 l 1,5,-1
 259 302 l 1,6,-1
 116 302 l 1,7,-1
 116 627 l 1,8,-1
 259 627 l 1,9,-1
 259 704 l 1,10,-1
 39 704 l 1,11,-1
 39 0 l 1,0,-1
EndSplineSet
EndChar

StartChar: F
Encoding: 70 70 55
Width: 286
Flags: W
LayerCount: 2
Fore
SplineSet
39 0 m 1,0,-1
 116 0 l 1,1,-1
 116 225 l 1,2,-1
 259 225 l 1,3,-1
 259 302 l 1,4,-1
 116 302 l 1,5,-1
 116 627 l 1,6,-1
 259 627 l 1,7,-1
 259 704 l 1,8,-1
 39 704 l 1,9,-1
 39 0 l 1,0,-1
EndSplineSet
EndChar

StartChar: G
Encoding: 71 71 56
Width: 333
Flags: W
LayerCount: 2
Fore
SplineSet
208 347 m 1,0,-1
 208 105 l 1,1,2
 150 156 150 156 121 216 c 128,-1,3
 92 276 92 276 92 354 c 0,4,5
 92 428 92 428 116 480 c 128,-1,6
 140 532 140 532 172.5 567 c 128,-1,7
 205 602 205 602 237 621 c 128,-1,8
 269 640 269 640 285 648 c 1,9,-1
 285 728 l 1,10,11
 229 706 229 706 180 671 c 128,-1,12
 131 636 131 636 94 589 c 128,-1,13
 57 542 57 542 36 482.5 c 128,-1,14
 15 423 15 423 15 353 c 0,15,16
 15 290 15 290 32.5 232 c 128,-1,17
 50 174 50 174 84 125 c 128,-1,18
 118 76 118 76 168.5 37.5 c 128,-1,19
 219 -1 219 -1 285 -25 c 1,20,-1
 285 347 l 1,21,-1
 208 347 l 1,0,-1
EndSplineSet
EndChar

StartChar: H
Encoding: 72 72 57
Width: 359
Flags: W
LayerCount: 2
Fore
SplineSet
54 0 m 1,0,-1
 131 0 l 1,1,-1
 131 225 l 1,2,-1
 230 225 l 1,3,-1
 230 0 l 1,4,-1
 307 0 l 1,5,-1
 307 704 l 1,6,-1
 230 704 l 1,7,-1
 230 302 l 1,8,-1
 131 302 l 1,9,-1
 131 704 l 1,10,-1
 54 704 l 1,11,-1
 54 0 l 1,0,-1
EndSplineSet
EndChar

StartChar: I
Encoding: 73 73 58
Width: 163
Flags: W
LayerCount: 2
Fore
SplineSet
41 0 m 1,0,-1
 118 0 l 1,1,-1
 118 704 l 1,2,-1
 41 704 l 1,3,-1
 41 0 l 1,0,-1
EndSplineSet
EndChar

StartChar: J
Encoding: 74 74 59
Width: 252
Flags: W
LayerCount: 2
Fore
SplineSet
8 -18 m 1,0,1
 17 -16 17 -16 34.5 -11.5 c 128,-1,2
 52 -7 52 -7 73.5 3.5 c 128,-1,3
 95 14 95 14 118 32 c 128,-1,4
 141 50 141 50 161 79 c 0,5,6
 178 103 178 103 187 127 c 128,-1,7
 196 151 196 151 200.5 173.5 c 128,-1,8
 205 196 205 196 205.5 216 c 128,-1,9
 206 236 206 236 206 252 c 2,10,-1
 206 704 l 1,11,-1
 129 704 l 1,12,-1
 129 252 l 2,13,14
 129 233 129 233 128.5 217 c 128,-1,15
 128 201 128 201 126 186.5 c 128,-1,16
 124 172 124 172 118.5 157.5 c 128,-1,17
 113 143 113 143 104 126 c 0,18,19
 93 108 93 108 79.5 96 c 128,-1,20
 66 84 66 84 53 77.5 c 128,-1,21
 40 71 40 71 28 67.5 c 128,-1,22
 16 64 16 64 8 62 c 1,23,-1
 8 -18 l 1,0,1
EndSplineSet
EndChar

StartChar: K
Encoding: 75 75 60
Width: 345
Flags: W
LayerCount: 2
Fore
SplineSet
211 0 m 1,0,-1
 301 0 l 1,1,-1
 187 177 l 1,2,3
 199 187 199 187 208.5 196 c 128,-1,4
 218 205 218 205 228 215 c 0,5,6
 249 236 249 236 263 262.5 c 128,-1,7
 277 289 277 289 286 318 c 128,-1,8
 295 347 295 347 298.5 378 c 128,-1,9
 302 409 302 409 302 438 c 2,10,-1
 302 704 l 1,11,-1
 224 704 l 1,12,-1
 224 438 l 2,13,14
 224 415 224 415 220 381 c 128,-1,15
 216 347 216 347 193 301 c 0,16,17
 177 269 177 269 155 249 c 128,-1,18
 133 229 133 229 119 218 c 1,19,-1
 119 704 l 1,20,-1
 42 704 l 1,21,-1
 42 0 l 1,22,-1
 119 0 l 1,23,-1
 119 146 l 1,24,-1
 120 146 l 1,25,-1
 211 0 l 1,0,-1
EndSplineSet
EndChar

StartChar: L
Encoding: 76 76 61
Width: 273
Flags: W
LayerCount: 2
Fore
SplineSet
52 0 m 1,0,-1
 261 0 l 1,1,-1
 261 77 l 1,2,-1
 130 77 l 1,3,-1
 130 704 l 1,4,-1
 52 704 l 1,5,-1
 52 0 l 1,0,-1
EndSplineSet
EndChar

StartChar: M
Encoding: 77 77 62
Width: 419
Flags: W
LayerCount: 2
Fore
SplineSet
300 460 m 1,0,-1
 300 0 l 1,1,-1
 377 0 l 1,2,-1
 377 741 l 1,3,-1
 209 449 l 1,4,-1
 41 741 l 1,5,-1
 41 0 l 1,6,-1
 118 0 l 1,7,-1
 118 460 l 1,8,-1
 209 309 l 1,9,-1
 300 460 l 1,0,-1
EndSplineSet
EndChar

StartChar: N
Encoding: 78 78 63
Width: 352
Flags: W
LayerCount: 2
Fore
SplineSet
130 0 m 1,0,-1
 130 460 l 1,1,-1
 221 309 l 1,2,-1
 221 0 l 1,3,-1
 299 0 l 1,4,-1
 299 704 l 1,5,-1
 221 704 l 1,6,-1
 221 449 l 1,7,-1
 53 741 l 1,8,-1
 53 0 l 1,9,-1
 130 0 l 1,0,-1
EndSplineSet
EndChar

StartChar: O
Encoding: 79 79 64
Width: 323
Flags: W
LayerCount: 2
Fore
SplineSet
164 -18 m 2,0,1
 181 -18 181 -18 202.5 -7 c 128,-1,2
 224 4 224 4 243 42.5 c 128,-1,3
 262 81 262 81 275 154 c 128,-1,4
 288 227 288 227 288 352 c 0,5,6
 288 476 288 476 273.5 549 c 128,-1,7
 259 622 259 622 239 660.5 c 128,-1,8
 219 699 219 699 197.5 710.5 c 128,-1,9
 176 722 176 722 161 722 c 256,10,11
 146 722 146 722 124.5 710.5 c 128,-1,12
 103 699 103 699 83 660.5 c 128,-1,13
 63 622 63 622 49 549 c 128,-1,14
 35 476 35 476 35 352 c 0,15,16
 35 227 35 227 47.5 154 c 128,-1,17
 60 81 60 81 79.5 42.5 c 128,-1,18
 99 4 99 4 121 -7 c 128,-1,19
 143 -18 143 -18 163 -18 c 2,20,-1
 164 -18 l 2,0,1
163 645 m 2,21,22
 169 645 169 645 177 634.5 c 128,-1,23
 185 624 185 624 192.5 592.5 c 128,-1,24
 200 561 200 561 205.5 503.5 c 128,-1,25
 211 446 211 446 211 352 c 0,26,27
 211 265 211 265 206 208.5 c 128,-1,28
 201 152 201 152 193.5 119 c 128,-1,29
 186 86 186 86 177.5 73.5 c 128,-1,30
 169 61 169 61 163 61 c 0,31,32
 155 61 155 61 146.5 73.5 c 128,-1,33
 138 86 138 86 130 118.5 c 128,-1,34
 122 151 122 151 117 207.5 c 128,-1,35
 112 264 112 264 112 352 c 0,36,37
 112 446 112 446 118 503.5 c 128,-1,38
 124 561 124 561 132 592.5 c 128,-1,39
 140 624 140 624 148.5 634.5 c 128,-1,40
 157 645 157 645 162 645 c 2,41,-1
 163 645 l 2,21,22
EndSplineSet
EndChar

StartChar: P
Encoding: 80 80 65
Width: 303
Flags: W
LayerCount: 2
Fore
SplineSet
118 0 m 1,0,-1
 118 133 l 1,1,2
 135 142 135 142 160 158.5 c 128,-1,3
 185 175 185 175 214 207 c 0,4,5
 252 249 252 249 273 303 c 128,-1,6
 294 357 294 357 294 419 c 0,7,8
 294 473 294 473 277.5 522 c 128,-1,9
 261 571 261 571 229 612 c 128,-1,10
 197 653 197 653 149.5 684.5 c 128,-1,11
 102 716 102 716 41 735 c 1,12,-1
 41 0 l 1,13,-1
 118 0 l 1,0,-1
118 611 m 1,14,15
 151 586 151 586 170.5 557.5 c 128,-1,16
 190 529 190 529 200.5 501 c 128,-1,17
 211 473 211 473 214 449 c 128,-1,18
 217 425 217 425 217 410 c 0,19,20
 217 389 217 389 212.5 364 c 128,-1,21
 208 339 208 339 196.5 314 c 128,-1,22
 185 289 185 289 166 265 c 128,-1,23
 147 241 147 241 118 220 c 1,24,-1
 118 611 l 1,14,15
EndSplineSet
EndChar

StartChar: Q
Encoding: 81 81 66
Width: 312
Flags: W
LayerCount: 2
Fore
SplineSet
25 352 m 0,0,1
 25 284 25 284 28.5 232.5 c 128,-1,2
 32 181 32 181 39 143 c 1,3,-1
 115 143 l 1,4,5
 109 176 109 176 105.5 227 c 128,-1,6
 102 278 102 278 102 352 c 0,7,8
 102 446 102 446 108 503.5 c 128,-1,9
 114 561 114 561 122 592.5 c 128,-1,10
 130 624 130 624 138.5 634.5 c 128,-1,11
 147 645 147 645 152 645 c 2,12,-1
 153 645 l 2,13,14
 159 645 159 645 167 634.5 c 128,-1,15
 175 624 175 624 182.5 592.5 c 128,-1,16
 190 561 190 561 195.5 503.5 c 128,-1,17
 201 446 201 446 201 352 c 0,18,19
 201 265 201 265 194 211 c 128,-1,20
 187 157 187 157 171 127 c 128,-1,21
 155 97 155 97 128.5 87 c 128,-1,22
 102 77 102 77 63 77 c 1,23,-1
 63 0 l 1,24,25
 79 0 79 0 90 -0.5 c 128,-1,26
 101 -1 101 -1 109.5 -3.5 c 128,-1,27
 118 -6 118 -6 126.5 -11.5 c 128,-1,28
 135 -17 135 -17 146 -27 c 0,29,30
 155 -35 155 -35 166 -44.5 c 128,-1,31
 177 -54 177 -54 192.5 -62 c 128,-1,32
 208 -70 208 -70 229 -76 c 128,-1,33
 250 -82 250 -82 278 -83 c 1,34,-1
 278 -6 l 1,35,36
 245 -2 245 -2 227.5 9.5 c 128,-1,37
 210 21 210 21 194 39 c 1,38,39
 209 43 209 43 224 58 c 128,-1,40
 239 73 239 73 251 107.5 c 128,-1,41
 263 142 263 142 270.5 201 c 128,-1,42
 278 260 278 260 278 352 c 0,43,44
 278 476 278 476 263.5 549 c 128,-1,45
 249 622 249 622 229 660.5 c 128,-1,46
 209 699 209 699 187.5 710.5 c 128,-1,47
 166 722 166 722 151 722 c 256,48,49
 136 722 136 722 114.5 710.5 c 128,-1,50
 93 699 93 699 73 660.5 c 128,-1,51
 53 622 53 622 39 549 c 128,-1,52
 25 476 25 476 25 352 c 0,0,1
EndSplineSet
EndChar

StartChar: R
Encoding: 82 82 67
Width: 323
Flags: W
LayerCount: 2
Fore
SplineSet
208 0 m 1,0,-1
 292 0 l 1,1,-1
 174 183 l 1,2,3
 195 199 195 199 212 218 c 0,4,5
 219 226 219 226 232.5 242.5 c 128,-1,6
 246 259 246 259 259.5 284 c 128,-1,7
 273 309 273 309 282.5 342.5 c 128,-1,8
 292 376 292 376 292 419 c 0,9,10
 292 464 292 464 278 511.5 c 128,-1,11
 264 559 264 559 233.5 602.5 c 128,-1,12
 203 646 203 646 155 681 c 128,-1,13
 107 716 107 716 39 735 c 1,14,-1
 39 0 l 1,15,-1
 116 0 l 1,16,-1
 116 146 l 1,17,-1
 117 146 l 1,18,-1
 208 0 l 1,0,-1
116 611 m 1,19,20
 149 586 149 586 168.5 557 c 128,-1,21
 188 528 188 528 198.5 500 c 128,-1,22
 209 472 209 472 212 448.5 c 128,-1,23
 215 425 215 425 215 410 c 0,24,25
 215 388 215 388 210 363 c 128,-1,26
 205 338 205 338 194 312.5 c 128,-1,27
 183 287 183 287 163.5 262.5 c 128,-1,28
 144 238 144 238 116 218 c 1,29,-1
 116 611 l 1,19,20
EndSplineSet
EndChar

StartChar: S
Encoding: 83 83 68
Width: 222
Flags: W
LayerCount: 2
Fore
SplineSet
138 0 m 1,0,1
 165 48 165 48 174 94.5 c 128,-1,2
 183 141 183 141 183 173 c 0,3,4
 183 193 183 193 180.5 210.5 c 128,-1,5
 178 228 178 228 172.5 246.5 c 128,-1,6
 167 265 167 265 158 287 c 128,-1,7
 149 309 149 309 136 337 c 0,8,9
 124 364 124 364 116.5 383.5 c 128,-1,10
 109 403 109 403 105.5 418.5 c 128,-1,11
 102 434 102 434 101 447.5 c 128,-1,12
 100 461 100 461 100 475 c 0,13,14
 100 544 100 544 127.5 602.5 c 128,-1,15
 155 661 155 661 200 704 c 1,16,-1
 95 704 l 1,17,18
 59 654 59 654 40.5 596.5 c 128,-1,19
 22 539 22 539 22 476 c 0,20,21
 22 431 22 431 32 394.5 c 128,-1,22
 42 358 42 358 62 314 c 0,23,24
 74 288 74 288 82.5 269 c 128,-1,25
 91 250 91 250 96 234 c 128,-1,26
 101 218 101 218 103.5 202.5 c 128,-1,27
 106 187 106 187 106 168 c 0,28,29
 106 123 106 123 87.5 79 c 128,-1,30
 69 35 69 35 40 0 c 1,31,-1
 138 0 l 1,0,1
EndSplineSet
EndChar

StartChar: T
Encoding: 84 84 69
Width: 256
Flags: W
LayerCount: 2
Fore
SplineSet
167 0 m 1,0,-1
 167 627 l 1,1,-1
 251 627 l 1,2,-1
 251 704 l 1,3,-1
 5 704 l 1,4,-1
 5 627 l 1,5,-1
 89 627 l 1,6,-1
 89 0 l 1,7,-1
 167 0 l 1,0,-1
EndSplineSet
EndChar

StartChar: U
Encoding: 85 85 70
Width: 330
Flags: W
LayerCount: 2
Fore
SplineSet
167 -18 m 2,0,1
 201 -18 201 -18 225 -7 c 128,-1,2
 249 4 249 4 263.5 42.5 c 128,-1,3
 278 81 278 81 284.5 154 c 128,-1,4
 291 227 291 227 291 352 c 2,5,-1
 291 704 l 1,6,-1
 214 704 l 1,7,-1
 214 352 l 2,8,9
 214 265 214 265 213 208.5 c 128,-1,10
 212 152 212 152 207.5 119 c 128,-1,11
 203 86 203 86 193 73.5 c 128,-1,12
 183 61 183 61 166 61 c 0,13,14
 148 61 148 61 137.5 73.5 c 128,-1,15
 127 86 127 86 122 118.5 c 128,-1,16
 117 151 117 151 116 207.5 c 128,-1,17
 115 264 115 264 115 352 c 2,18,-1
 115 704 l 1,19,-1
 38 704 l 1,20,-1
 38 352 l 2,21,22
 38 227 38 227 44 154 c 128,-1,23
 50 81 50 81 65 42.5 c 128,-1,24
 80 4 80 4 104.5 -7 c 128,-1,25
 129 -18 129 -18 166 -18 c 2,26,-1
 167 -18 l 2,0,1
EndSplineSet
EndChar

StartChar: V
Encoding: 86 86 71
Width: 296
Flags: W
LayerCount: 2
Fore
SplineSet
293 704 m 1,0,-1
 215 704 l 1,1,-1
 148 323 l 1,2,-1
 82 704 l 1,3,-1
 3 704 l 1,4,-1
 148 -49 l 1,5,-1
 293 704 l 1,0,-1
EndSplineSet
EndChar

StartChar: W
Encoding: 87 87 72
Width: 452
Flags: W
LayerCount: 2
Fore
SplineSet
447 704 m 1,0,-1
 367 704 l 1,1,-1
 304 332 l 1,2,-1
 227 735 l 1,3,-1
 153 332 l 1,4,-1
 88 704 l 1,5,-1
 5 704 l 1,6,-1
 153 -49 l 1,7,-1
 226 354 l 1,8,-1
 307 -49 l 1,9,-1
 447 704 l 1,0,-1
EndSplineSet
EndChar

StartChar: X
Encoding: 88 88 73
Width: 296
Flags: W
LayerCount: 2
Fore
SplineSet
191 352 m 1,0,-1
 282 704 l 1,1,-1
 207 704 l 1,2,-1
 148 476 l 1,3,-1
 88 704 l 1,4,-1
 13 704 l 1,5,-1
 105 352 l 1,6,-1
 13 0 l 1,7,-1
 88 0 l 1,8,-1
 148 228 l 1,9,-1
 208 0 l 1,10,-1
 282 0 l 1,11,-1
 191 352 l 1,0,-1
EndSplineSet
EndChar

StartChar: Y
Encoding: 89 89 74
Width: 315
Flags: W
LayerCount: 2
Fore
SplineSet
119 0 m 1,0,-1
 196 0 l 1,1,-1
 196 176 l 1,2,-1
 303 704 l 1,3,-1
 224 704 l 1,4,-1
 158 360 l 1,5,-1
 91 704 l 1,6,-1
 13 704 l 1,7,-1
 119 176 l 1,8,-1
 119 0 l 1,0,-1
EndSplineSet
EndChar

StartChar: Z
Encoding: 90 90 75
Width: 241
Flags: W
LayerCount: 2
Fore
SplineSet
237 0 m 1,0,-1
 237 77 l 1,1,-1
 92 77 l 1,2,-1
 248 704 l 1,3,-1
 12 704 l 1,4,-1
 12 627 l 1,5,-1
 149 627 l 1,6,-1
 -7 0 l 1,7,-1
 237 0 l 1,0,-1
EndSplineSet
EndChar

StartChar: bracketleft
Encoding: 91 91 76
Width: 222
Flags: W
LayerCount: 2
Fore
SplineSet
188 -111 m 1,0,-1
 188 -38 l 1,1,-1
 133 -38 l 1,2,-1
 133 741 l 1,3,-1
 188 741 l 1,4,-1
 188 814 l 1,5,-1
 55 814 l 1,6,-1
 55 -111 l 1,7,-1
 188 -111 l 1,0,-1
EndSplineSet
EndChar

StartChar: backslash
Encoding: 92 92 77
Width: 296
Flags: W
LayerCount: 2
Fore
SplineSet
48 822 m 1,0,-1
 1 822 l 1,1,-1
 249 -106 l 1,2,-1
 295 -106 l 1,3,-1
 48 822 l 1,0,-1
EndSplineSet
EndChar

StartChar: bracketright
Encoding: 93 93 78
Width: 222
Flags: W
LayerCount: 2
Fore
SplineSet
167 -111 m 1,0,-1
 167 814 l 1,1,-1
 35 814 l 1,2,-1
 35 741 l 1,3,-1
 90 741 l 1,4,-1
 90 -38 l 1,5,-1
 35 -38 l 1,6,-1
 35 -111 l 1,7,-1
 167 -111 l 1,0,-1
EndSplineSet
EndChar

StartChar: asciicircum
Encoding: 94 94 79
Width: 600
Flags: W
LayerCount: 2
Fore
SplineSet
261 700 m 1,0,-1
 39 246 l 1,1,-1
 123 246 l 1,2,-1
 299 614 l 1,3,-1
 477 246 l 1,4,-1
 561 246 l 1,5,-1
 337 700 l 1,6,-1
 261 700 l 1,0,-1
EndSplineSet
EndChar

StartChar: underscore
Encoding: 95 95 80
Width: 500
Flags: W
LayerCount: 2
Fore
SplineSet
0 -75 m 1,0,-1
 0 -125 l 1,1,-1
 500 -125 l 1,2,-1
 500 -75 l 1,3,-1
 0 -75 l 1,0,-1
EndSplineSet
EndChar

StartChar: grave
Encoding: 96 96 81
Width: 426
Flags: W
LayerCount: 2
Fore
SplineSet
297 757 m 1,0,-1
 304 798 l 1,1,-1
 129 829 l 1,2,-1
 122 788 l 1,3,-1
 297 757 l 1,0,-1
EndSplineSet
EndChar

StartChar: a
Encoding: 97 97 82
Width: 309
Flags: W
LayerCount: 2
Fore
SplineSet
53 476 m 0,0,1
 74 457 74 457 94 452 c 128,-1,2
 114 447 114 447 139 447 c 2,3,-1
 158 447 l 2,4,5
 184 447 184 447 195.5 434.5 c 128,-1,6
 207 422 207 422 207 405 c 2,7,-1
 207 362 l 1,8,-1
 139 362 l 2,9,10
 106 362 106 362 85 352 c 128,-1,11
 64 342 64 342 52 327 c 128,-1,12
 40 312 40 312 35.5 295 c 128,-1,13
 31 278 31 278 31 265 c 2,14,-1
 31 89 l 2,15,16
 31 55 31 55 58.5 27.5 c 128,-1,17
 86 0 86 0 136 0 c 2,18,-1
 165 0 l 2,19,20
 210 0 210 0 234 18 c 128,-1,21
 258 36 258 36 269 63 c 128,-1,22
 280 90 280 90 282 122 c 128,-1,23
 284 154 284 154 284 182 c 2,24,-1
 284 405 l 2,25,26
 284 424 284 424 276.5 444.5 c 128,-1,27
 269 465 269 465 257.5 481.5 c 128,-1,28
 246 498 246 498 232.5 508.5 c 128,-1,29
 219 519 219 519 207 519 c 2,30,-1
 25 519 l 1,31,32
 30 507 30 507 36.5 495.5 c 128,-1,33
 43 484 43 484 53 476 c 0,0,1
142 290 m 2,34,-1
 207 290 l 1,35,-1
 207 120 l 2,36,37
 207 93 207 93 193 85 c 128,-1,38
 179 77 179 77 162 77 c 2,39,-1
 139 77 l 2,40,41
 130 77 130 77 119 80 c 128,-1,42
 108 83 108 83 108 101 c 2,43,-1
 108 260 l 2,44,45
 108 283 108 283 117.5 286.5 c 128,-1,46
 127 290 127 290 142 290 c 2,34,-1
EndSplineSet
EndChar

StartChar: b
Encoding: 98 98 83
Width: 352
Flags: W
LayerCount: 2
Fore
SplineSet
49 114 m 2,0,1
 49 82 49 82 60.5 58.5 c 128,-1,2
 72 35 72 35 90 20 c 128,-1,3
 108 5 108 5 131 -2 c 128,-1,4
 154 -9 154 -9 177 -9 c 0,5,6
 190 -9 190 -9 211 -4.5 c 128,-1,7
 232 0 232 0 252.5 13.5 c 128,-1,8
 273 27 273 27 287.5 51 c 128,-1,9
 302 75 302 75 302 114 c 2,10,-1
 302 405 l 2,11,12
 302 426 302 426 294.5 447.5 c 128,-1,13
 287 469 287 469 271.5 487 c 128,-1,14
 256 505 256 505 232 516.5 c 128,-1,15
 208 528 208 528 175 528 c 0,16,17
 151 528 151 528 126 518 c 1,18,-1
 126 704 l 1,19,-1
 49 704 l 1,20,-1
 49 114 l 2,0,1
126 397 m 2,21,22
 126 405 126 405 128 414.5 c 128,-1,23
 130 424 130 424 135 432 c 128,-1,24
 140 440 140 440 150 445.5 c 128,-1,25
 160 451 160 451 176 451 c 0,26,27
 194 451 194 451 204 444 c 128,-1,28
 214 437 214 437 218.5 427 c 128,-1,29
 223 417 223 417 224 405.5 c 128,-1,30
 225 394 225 394 225 386 c 2,31,-1
 225 135 l 2,32,33
 225 127 225 127 224 115.5 c 128,-1,34
 223 104 223 104 218.5 94 c 128,-1,35
 214 84 214 84 204.5 77 c 128,-1,36
 195 70 195 70 177 70 c 0,37,38
 158 70 158 70 147.5 76.5 c 128,-1,39
 137 83 137 83 132.5 93 c 128,-1,40
 128 103 128 103 127 114.5 c 128,-1,41
 126 126 126 126 126 135 c 2,42,-1
 126 397 l 2,21,22
EndSplineSet
EndChar

StartChar: c
Encoding: 99 99 84
Width: 246
Flags: W
LayerCount: 2
Fore
SplineSet
97 260 m 0,0,1
 97 339 97 339 132 406.5 c 128,-1,2
 167 474 167 474 226 519 c 1,3,-1
 115 519 l 1,4,5
 70 465 70 465 45 399.5 c 128,-1,6
 20 334 20 334 20 259 c 256,7,8
 20 184 20 184 45 118.5 c 128,-1,9
 70 53 70 53 115 0 c 1,10,-1
 228 0 l 1,11,12
 168 45 168 45 132.5 112 c 128,-1,13
 97 179 97 179 97 260 c 0,0,1
EndSplineSet
EndChar

StartChar: d
Encoding: 100 100 85
Width: 352
Flags: W
LayerCount: 2
Fore
SplineSet
49 114 m 2,0,1
 49 82 49 82 60.5 58.5 c 128,-1,2
 72 35 72 35 90 20 c 128,-1,3
 108 5 108 5 131 -2 c 128,-1,4
 154 -9 154 -9 177 -9 c 0,5,6
 190 -9 190 -9 211 -4.5 c 128,-1,7
 232 0 232 0 252.5 13.5 c 128,-1,8
 273 27 273 27 287.5 51 c 128,-1,9
 302 75 302 75 302 114 c 2,10,-1
 302 704 l 1,11,-1
 225 704 l 1,12,-1
 225 519 l 1,13,14
 202 528 202 528 175 528 c 0,15,16
 152 528 152 528 129.5 520.5 c 128,-1,17
 107 513 107 513 89 497.5 c 128,-1,18
 71 482 71 482 60 459 c 128,-1,19
 49 436 49 436 49 405 c 2,20,-1
 49 114 l 2,0,1
126 386 m 2,21,22
 126 394 126 394 127 405 c 128,-1,23
 128 416 128 416 132.5 426.5 c 128,-1,24
 137 437 137 437 147 444 c 128,-1,25
 157 451 157 451 176 451 c 0,26,27
 191 451 191 451 200.5 446 c 128,-1,28
 210 441 210 441 215.5 433 c 128,-1,29
 221 425 221 425 223 415.5 c 128,-1,30
 225 406 225 406 225 397 c 2,31,-1
 225 135 l 2,32,33
 225 127 225 127 224 115.5 c 128,-1,34
 223 104 223 104 218.5 94 c 128,-1,35
 214 84 214 84 204.5 77 c 128,-1,36
 195 70 195 70 177 70 c 0,37,38
 158 70 158 70 147.5 76.5 c 128,-1,39
 137 83 137 83 132.5 93 c 128,-1,40
 128 103 128 103 127 114.5 c 128,-1,41
 126 126 126 126 126 135 c 2,42,-1
 126 386 l 2,21,22
EndSplineSet
EndChar

StartChar: e
Encoding: 101 101 86
Width: 320
Flags: W
LayerCount: 2
Fore
SplineSet
288 409 m 2,0,1
 288 430 288 430 280.5 451.5 c 128,-1,2
 273 473 273 473 257.5 491 c 128,-1,3
 242 509 242 509 218 520.5 c 128,-1,4
 194 532 194 532 161 532 c 0,5,6
 138 532 138 532 115.5 524.5 c 128,-1,7
 93 517 93 517 75 501.5 c 128,-1,8
 57 486 57 486 46 463 c 128,-1,9
 35 440 35 440 35 409 c 2,10,-1
 35 118 l 2,11,12
 35 86 35 86 46.5 62.5 c 128,-1,13
 58 39 58 39 76 24 c 128,-1,14
 94 9 94 9 117 2 c 128,-1,15
 140 -5 140 -5 163 -5 c 0,16,17
 176 -5 176 -5 197 -0.5 c 128,-1,18
 218 4 218 4 238.5 17.5 c 128,-1,19
 259 31 259 31 273.5 55 c 128,-1,20
 288 79 288 79 288 118 c 2,21,-1
 288 146 l 1,22,-1
 211 146 l 1,23,-1
 211 139 l 2,24,25
 211 131 211 131 210 119.5 c 128,-1,26
 209 108 209 108 204.5 98 c 128,-1,27
 200 88 200 88 190.5 81 c 128,-1,28
 181 74 181 74 163 74 c 0,29,30
 144 74 144 74 133.5 80.5 c 128,-1,31
 123 87 123 87 118.5 97 c 128,-1,32
 114 107 114 107 113 118.5 c 128,-1,33
 112 130 112 130 112 139 c 2,34,-1
 112 218 l 1,35,-1
 180 218 l 2,36,37
 213 218 213 218 234 228 c 128,-1,38
 255 238 255 238 267 253 c 128,-1,39
 279 268 279 268 283.5 284.5 c 128,-1,40
 288 301 288 301 288 315 c 2,41,-1
 288 409 l 2,0,1
177 290 m 2,42,-1
 112 290 l 1,43,-1
 112 390 l 2,44,45
 112 398 112 398 113 409 c 128,-1,46
 114 420 114 420 118.5 430.5 c 128,-1,47
 123 441 123 441 133 448 c 128,-1,48
 143 455 143 455 162 455 c 0,49,50
 180 455 180 455 190 448 c 128,-1,51
 200 441 200 441 204.5 431 c 128,-1,52
 209 421 209 421 210 409.5 c 128,-1,53
 211 398 211 398 211 390 c 2,54,-1
 211 320 l 2,55,56
 211 297 211 297 201.5 293.5 c 128,-1,57
 192 290 192 290 177 290 c 2,42,-1
EndSplineSet
EndChar

StartChar: f
Encoding: 102 102 87
Width: 254
Flags: W
LayerCount: 2
Fore
SplineSet
124 -105 m 0,0,1
 146 -80 146 -80 152 -56 c 128,-1,2
 158 -32 158 -32 158 0 c 2,3,-1
 158 447 l 1,4,-1
 243 447 l 1,5,-1
 243 519 l 1,6,-1
 158 519 l 1,7,-1
 158 569 l 2,8,9
 158 574 158 574 158.5 583.5 c 128,-1,10
 159 593 159 593 163.5 602.5 c 128,-1,11
 168 612 168 612 177.5 619 c 128,-1,12
 187 626 187 626 205 627 c 2,13,-1
 243 627 l 1,14,-1
 243 704 l 1,15,-1
 205 704 l 2,16,17
 180 704 180 704 156.5 695 c 128,-1,18
 133 686 133 686 116 669 c 0,19,20
 92 645 92 645 86.5 618 c 128,-1,21
 81 591 81 591 81 569 c 2,22,-1
 81 519 l 1,23,-1
 10 519 l 1,24,-1
 10 447 l 1,25,-1
 81 447 l 1,26,-1
 81 -133 l 1,27,28
 93 -128 93 -128 104.5 -121.5 c 128,-1,29
 116 -115 116 -115 124 -105 c 0,0,1
EndSplineSet
EndChar

StartChar: g
Encoding: 103 103 88
Width: 307
Flags: W
LayerCount: 2
Fore
SplineSet
144 -135 m 1,0,-1
 144 -212 l 1,1,2
 169 -212 169 -212 192 -202.5 c 128,-1,3
 215 -193 215 -193 232.5 -176.5 c 128,-1,4
 250 -160 250 -160 260 -137.5 c 128,-1,5
 270 -115 270 -115 270 -89 c 2,6,-1
 270 405 l 2,7,8
 270 426 270 426 262.5 447.5 c 128,-1,9
 255 469 255 469 239.5 487 c 128,-1,10
 224 505 224 505 200 516.5 c 128,-1,11
 176 528 176 528 143 528 c 0,12,13
 120 528 120 528 97.5 520.5 c 128,-1,14
 75 513 75 513 57 497.5 c 128,-1,15
 39 482 39 482 28 459 c 128,-1,16
 17 436 17 436 17 405 c 2,17,-1
 17 114 l 2,18,19
 17 82 17 82 28.5 58.5 c 128,-1,20
 40 35 40 35 58 20 c 128,-1,21
 76 5 76 5 99 -2 c 128,-1,22
 122 -9 122 -9 145 -9 c 0,23,24
 164 -9 164 -9 193 0 c 1,25,-1
 193 -89 l 2,26,27
 193 -106 193 -106 181.5 -120.5 c 128,-1,28
 170 -135 170 -135 144 -135 c 1,0,-1
94 386 m 2,29,30
 94 394 94 394 95 405 c 128,-1,31
 96 416 96 416 100.5 426.5 c 128,-1,32
 105 437 105 437 115 444 c 128,-1,33
 125 451 125 451 144 451 c 0,34,35
 162 451 162 451 172 444 c 128,-1,36
 182 437 182 437 186.5 427 c 128,-1,37
 191 417 191 417 192 405.5 c 128,-1,38
 193 394 193 394 193 386 c 2,39,-1
 193 135 l 2,40,41
 193 127 193 127 192 115.5 c 128,-1,42
 191 104 191 104 186.5 94 c 128,-1,43
 182 84 182 84 172.5 77 c 128,-1,44
 163 70 163 70 145 70 c 0,45,46
 126 70 126 70 115.5 76.5 c 128,-1,47
 105 83 105 83 100.5 93 c 128,-1,48
 96 103 96 103 95 114.5 c 128,-1,49
 94 126 94 126 94 135 c 2,50,-1
 94 386 l 2,29,30
EndSplineSet
EndChar

StartChar: h
Encoding: 104 104 89
Width: 310
Flags: W
LayerCount: 2
Fore
SplineSet
116 0 m 1,0,-1
 116 396 l 2,1,2
 116 404 116 404 118 413.5 c 128,-1,3
 120 423 120 423 125 431.5 c 128,-1,4
 130 440 130 440 139.5 445.5 c 128,-1,5
 149 451 149 451 164 451 c 0,6,7
 182 451 182 451 192 444 c 128,-1,8
 202 437 202 437 206.5 427.5 c 128,-1,9
 211 418 211 418 212 406.5 c 128,-1,10
 213 395 213 395 213 386 c 2,11,-1
 213 0 l 1,12,-1
 290 0 l 1,13,-1
 290 386 l 2,14,15
 290 418 290 418 284 441.5 c 128,-1,16
 278 465 278 465 256 491 c 0,17,18
 239 511 239 511 213 519.5 c 128,-1,19
 187 528 187 528 164 528 c 0,20,21
 137 528 137 528 116 519 c 1,22,-1
 116 704 l 1,23,-1
 39 704 l 1,24,-1
 39 0 l 1,25,-1
 116 0 l 1,0,-1
EndSplineSet
EndChar

StartChar: i
Encoding: 105 105 90
Width: 158
Flags: W
LayerCount: 2
Fore
SplineSet
38 704 m 1,0,-1
 38 627 l 1,1,-1
 115 627 l 1,2,-1
 115 704 l 1,3,-1
 38 704 l 1,0,-1
38 519 m 1,4,-1
 38 0 l 1,5,-1
 115 0 l 1,6,-1
 115 519 l 1,7,-1
 38 519 l 1,4,-1
EndSplineSet
EndChar

StartChar: j
Encoding: 106 106 91
Width: 168
Flags: W
LayerCount: 2
Fore
SplineSet
60 -57 m 2,0,1
 60 -141 60 -141 2 -203 c 1,2,-1
 96 -203 l 1,3,4
 117 -171 117 -171 126 -134 c 128,-1,5
 135 -97 135 -97 137 -56 c 2,6,-1
 137 386 l 2,7,8
 137 418 137 418 131 441.5 c 128,-1,9
 125 465 125 465 103 491 c 0,10,11
 86 509 86 509 60 519 c 1,12,-1
 60 -57 l 2,0,1
60 704 m 1,13,-1
 60 627 l 1,14,-1
 137 627 l 1,15,-1
 137 704 l 1,16,-1
 60 704 l 1,13,-1
EndSplineSet
EndChar

StartChar: k
Encoding: 107 107 92
Width: 319
Flags: W
LayerCount: 2
Fore
SplineSet
41 0 m 1,0,-1
 118 0 l 1,1,-1
 118 218 l 1,2,-1
 191 218 l 2,3,4
 215 218 215 218 219 208 c 128,-1,5
 223 198 223 198 223 183 c 2,6,-1
 223 0 l 1,7,-1
 301 0 l 1,8,-1
 301 181 l 2,9,10
 301 193 301 193 300 208.5 c 128,-1,11
 299 224 299 224 291.5 239.5 c 128,-1,12
 284 255 284 255 268 269 c 128,-1,13
 252 283 252 283 223 291 c 1,14,15
 269 336 269 336 285 393.5 c 128,-1,16
 301 451 301 451 301 510 c 2,17,-1
 301 519 l 1,18,-1
 223 519 l 1,19,-1
 223 510 l 2,20,21
 223 487 223 487 219 453 c 128,-1,22
 215 419 215 419 192 373 c 0,23,24
 176 341 176 341 154 321 c 128,-1,25
 132 301 132 301 118 290 c 1,26,-1
 118 704 l 1,27,-1
 41 704 l 1,28,-1
 41 0 l 1,0,-1
EndSplineSet
EndChar

StartChar: l
Encoding: 108 108 93
Width: 178
Flags: W
LayerCount: 2
Fore
SplineSet
77 0 m 1,0,-1
 171 0 l 1,1,2
 113 62 113 62 113 146 c 2,3,-1
 113 704 l 1,4,-1
 36 704 l 1,5,-1
 36 147 l 2,6,7
 38 106 38 106 47 69 c 128,-1,8
 56 32 56 32 77 0 c 1,0,-1
EndSplineSet
EndChar

StartChar: m
Encoding: 109 109 94
Width: 511
Flags: W
LayerCount: 2
Fore
SplineSet
294 0 m 1,0,-1
 294 396 l 2,1,2
 294 404 294 404 296 413.5 c 128,-1,3
 298 423 298 423 303 431.5 c 128,-1,4
 308 440 308 440 317.5 445.5 c 128,-1,5
 327 451 327 451 342 451 c 0,6,7
 360 451 360 451 370 444 c 128,-1,8
 380 437 380 437 384.5 427.5 c 128,-1,9
 389 418 389 418 390 406.5 c 128,-1,10
 391 395 391 395 391 386 c 2,11,-1
 391 0 l 1,12,-1
 468 0 l 1,13,-1
 468 386 l 2,14,15
 468 418 468 418 462 441.5 c 128,-1,16
 456 465 456 465 434 491 c 0,17,18
 417 511 417 511 391 519.5 c 128,-1,19
 365 528 365 528 342 528 c 0,20,21
 314 528 314 528 292 519 c 128,-1,22
 270 510 270 510 255 496 c 1,23,24
 238 513 238 513 214 520.5 c 128,-1,25
 190 528 190 528 168 528 c 0,26,27
 138 528 138 528 114.5 517.5 c 128,-1,28
 91 507 91 507 76 490 c 0,29,30
 59 472 59 472 51 448 c 128,-1,31
 43 424 43 424 43 386 c 2,32,-1
 43 0 l 1,33,-1
 120 0 l 1,34,-1
 120 386 l 2,35,36
 120 393 120 393 120.5 404.5 c 128,-1,37
 121 416 121 416 125.5 426 c 128,-1,38
 130 436 130 436 140 443.5 c 128,-1,39
 150 451 150 451 168 451 c 0,40,41
 184 451 184 451 193.5 446 c 128,-1,42
 203 441 203 441 208 433 c 128,-1,43
 213 425 213 425 215 415.5 c 128,-1,44
 217 406 217 406 217 397 c 2,45,-1
 217 0 l 1,46,-1
 294 0 l 1,0,-1
EndSplineSet
EndChar

StartChar: n
Encoding: 110 110 95
Width: 336
Flags: W
LayerCount: 2
Fore
SplineSet
119 0 m 1,0,-1
 119 386 l 2,1,2
 119 393 119 393 119.5 404.5 c 128,-1,3
 120 416 120 416 124.5 426 c 128,-1,4
 129 436 129 436 139 443.5 c 128,-1,5
 149 451 149 451 167 451 c 256,6,7
 185 451 185 451 195 444 c 128,-1,8
 205 437 205 437 209.5 427.5 c 128,-1,9
 214 418 214 418 215 406.5 c 128,-1,10
 216 395 216 395 216 386 c 2,11,-1
 216 0 l 1,12,-1
 293 0 l 1,13,-1
 293 386 l 2,14,15
 293 418 293 418 287 441.5 c 128,-1,16
 281 465 281 465 259 491 c 0,17,18
 242 511 242 511 216 519.5 c 128,-1,19
 190 528 190 528 167 528 c 0,20,21
 137 528 137 528 113.5 517.5 c 128,-1,22
 90 507 90 507 75 490 c 0,23,24
 58 472 58 472 50 448 c 128,-1,25
 42 424 42 424 42 386 c 2,26,-1
 42 0 l 1,27,-1
 119 0 l 1,0,-1
EndSplineSet
EndChar

StartChar: o
Encoding: 111 111 96
Width: 324
Flags: W
LayerCount: 2
Fore
SplineSet
35 114 m 2,0,1
 35 82 35 82 46.5 58.5 c 128,-1,2
 58 35 58 35 76 20 c 128,-1,3
 94 5 94 5 117 -2 c 128,-1,4
 140 -9 140 -9 163 -9 c 0,5,6
 176 -9 176 -9 197 -4.5 c 128,-1,7
 218 0 218 0 238.5 13.5 c 128,-1,8
 259 27 259 27 273.5 51 c 128,-1,9
 288 75 288 75 288 114 c 2,10,-1
 288 405 l 2,11,12
 288 426 288 426 280.5 447.5 c 128,-1,13
 273 469 273 469 257.5 487 c 128,-1,14
 242 505 242 505 218 516.5 c 128,-1,15
 194 528 194 528 161 528 c 0,16,17
 138 528 138 528 115.5 520.5 c 128,-1,18
 93 513 93 513 75 497.5 c 128,-1,19
 57 482 57 482 46 459 c 128,-1,20
 35 436 35 436 35 405 c 2,21,-1
 35 114 l 2,0,1
112 386 m 2,22,23
 112 394 112 394 113 405 c 128,-1,24
 114 416 114 416 118.5 426.5 c 128,-1,25
 123 437 123 437 133 444 c 128,-1,26
 143 451 143 451 162 451 c 0,27,28
 180 451 180 451 190 444 c 128,-1,29
 200 437 200 437 204.5 427 c 128,-1,30
 209 417 209 417 210 405.5 c 128,-1,31
 211 394 211 394 211 386 c 2,32,-1
 211 135 l 2,33,34
 211 127 211 127 210 115.5 c 128,-1,35
 209 104 209 104 204.5 94 c 128,-1,36
 200 84 200 84 190.5 77 c 128,-1,37
 181 70 181 70 163 70 c 0,38,39
 144 70 144 70 133.5 76.5 c 128,-1,40
 123 83 123 83 118.5 93 c 128,-1,41
 114 103 114 103 113 114.5 c 128,-1,42
 112 126 112 126 112 135 c 2,43,-1
 112 386 l 2,22,23
EndSplineSet
EndChar

StartChar: p
Encoding: 112 112 97
Width: 308
Flags: W
LayerCount: 2
Fore
SplineSet
115 -203 m 1,0,-1
 115 0 l 1,1,2
 139 -9 139 -9 166 -9 c 0,3,4
 179 -9 179 -9 200 -4.5 c 128,-1,5
 221 0 221 0 241.5 13.5 c 128,-1,6
 262 27 262 27 276.5 51 c 128,-1,7
 291 75 291 75 291 114 c 2,8,-1
 291 405 l 2,9,10
 291 426 291 426 283.5 447.5 c 128,-1,11
 276 469 276 469 260.5 487 c 128,-1,12
 245 505 245 505 221 516.5 c 128,-1,13
 197 528 197 528 164 528 c 0,14,15
 141 528 141 528 118.5 520.5 c 128,-1,16
 96 513 96 513 78 497.5 c 128,-1,17
 60 482 60 482 49 459 c 128,-1,18
 38 436 38 436 38 405 c 2,19,-1
 38 -203 l 1,20,-1
 115 -203 l 1,0,-1
115 386 m 2,21,22
 115 394 115 394 116 405 c 128,-1,23
 117 416 117 416 121.5 426.5 c 128,-1,24
 126 437 126 437 136 444 c 128,-1,25
 146 451 146 451 165 451 c 0,26,27
 183 451 183 451 193 444 c 128,-1,28
 203 437 203 437 207.5 427 c 128,-1,29
 212 417 212 417 213 405.5 c 128,-1,30
 214 394 214 394 214 386 c 2,31,-1
 214 135 l 2,32,33
 214 127 214 127 213 115.5 c 128,-1,34
 212 104 212 104 207.5 94 c 128,-1,35
 203 84 203 84 193.5 77 c 128,-1,36
 184 70 184 70 166 70 c 0,37,38
 147 70 147 70 136.5 76.5 c 128,-1,39
 126 83 126 83 121.5 93 c 128,-1,40
 117 103 117 103 116 114.5 c 128,-1,41
 115 126 115 126 115 135 c 2,42,-1
 115 386 l 2,21,22
EndSplineSet
EndChar

StartChar: q
Encoding: 113 113 98
Width: 310
Flags: W
LayerCount: 2
Fore
SplineSet
20 114 m 2,0,1
 20 82 20 82 31.5 58.5 c 128,-1,2
 43 35 43 35 61 20 c 128,-1,3
 79 5 79 5 102 -2 c 128,-1,4
 125 -9 125 -9 148 -9 c 0,5,6
 167 -9 167 -9 196 0 c 1,7,-1
 196 -56 l 2,8,9
 198 -97 198 -97 207 -134 c 128,-1,10
 216 -171 216 -171 237 -203 c 1,11,-1
 331 -203 l 1,12,13
 273 -141 273 -141 273 -57 c 2,14,-1
 273 405 l 2,15,16
 273 426 273 426 265.5 447.5 c 128,-1,17
 258 469 258 469 242.5 487 c 128,-1,18
 227 505 227 505 203 516.5 c 128,-1,19
 179 528 179 528 146 528 c 0,20,21
 123 528 123 528 100.5 520.5 c 128,-1,22
 78 513 78 513 60 497.5 c 128,-1,23
 42 482 42 482 31 459 c 128,-1,24
 20 436 20 436 20 405 c 2,25,-1
 20 114 l 2,0,1
97 386 m 2,26,27
 97 394 97 394 98 405 c 128,-1,28
 99 416 99 416 103.5 426.5 c 128,-1,29
 108 437 108 437 118 444 c 128,-1,30
 128 451 128 451 147 451 c 0,31,32
 165 451 165 451 175 444 c 128,-1,33
 185 437 185 437 189.5 427 c 128,-1,34
 194 417 194 417 195 405.5 c 128,-1,35
 196 394 196 394 196 386 c 2,36,-1
 196 135 l 2,37,38
 196 127 196 127 195 115.5 c 128,-1,39
 194 104 194 104 189.5 94 c 128,-1,40
 185 84 185 84 175.5 77 c 128,-1,41
 166 70 166 70 148 70 c 0,42,43
 129 70 129 70 118.5 76.5 c 128,-1,44
 108 83 108 83 103.5 93 c 128,-1,45
 99 103 99 103 98 114.5 c 128,-1,46
 97 126 97 126 97 135 c 2,47,-1
 97 386 l 2,26,27
EndSplineSet
EndChar

StartChar: r
Encoding: 114 114 99
Width: 297
Flags: W
LayerCount: 2
Fore
SplineSet
116 386 m 2,0,1
 116 394 116 394 117 405 c 128,-1,2
 118 416 118 416 122.5 426.5 c 128,-1,3
 127 437 127 437 137 444 c 128,-1,4
 147 451 147 451 166 451 c 0,5,6
 184 451 184 451 194 444 c 128,-1,7
 204 437 204 437 208.5 427 c 128,-1,8
 213 417 213 417 214 405.5 c 128,-1,9
 215 394 215 394 215 386 c 1,10,-1
 292 386 l 1,11,-1
 292 405 l 2,12,13
 292 426 292 426 284.5 447.5 c 128,-1,14
 277 469 277 469 261.5 487 c 128,-1,15
 246 505 246 505 222 516.5 c 128,-1,16
 198 528 198 528 165 528 c 0,17,18
 142 528 142 528 119.5 520.5 c 128,-1,19
 97 513 97 513 79 497.5 c 128,-1,20
 61 482 61 482 50 459 c 128,-1,21
 39 436 39 436 39 405 c 2,22,-1
 39 0 l 1,23,-1
 116 0 l 1,24,-1
 116 386 l 2,0,1
EndSplineSet
EndChar

StartChar: s
Encoding: 115 115 100
Width: 214
Flags: W
LayerCount: 2
Fore
SplineSet
135 0 m 1,0,1
 162 35 162 35 171 69.5 c 128,-1,2
 180 104 180 104 180 127 c 0,3,4
 180 156 180 156 169.5 184 c 128,-1,5
 159 212 159 212 133 253 c 0,6,7
 121 272 121 272 113.5 286 c 128,-1,8
 106 300 106 300 102.5 311 c 128,-1,9
 99 322 99 322 98 331 c 128,-1,10
 97 340 97 340 97 350 c 0,11,12
 97 401 97 401 124.5 444 c 128,-1,13
 152 487 152 487 197 519 c 1,14,-1
 92 519 l 1,15,16
 56 483 56 483 37.5 440 c 128,-1,17
 19 397 19 397 19 351 c 0,18,19
 19 318 19 318 29 288.5 c 128,-1,20
 39 259 39 259 59 227 c 0,21,22
 71 207 71 207 79.5 194 c 128,-1,23
 88 181 88 181 93 170 c 128,-1,24
 98 159 98 159 100.5 148.5 c 128,-1,25
 103 138 103 138 103 124 c 0,26,27
 103 91 103 91 84.5 58.5 c 128,-1,28
 66 26 66 26 37 0 c 1,29,-1
 135 0 l 1,0,1
EndSplineSet
EndChar

StartChar: t
Encoding: 116 116 101
Width: 254
Flags: W
LayerCount: 2
Fore
SplineSet
81 519 m 1,0,-1
 10 519 l 1,1,-1
 10 447 l 1,2,-1
 81 447 l 1,3,-1
 81 220 l 2,4,5
 81 190 81 190 81.5 160.5 c 128,-1,6
 82 131 82 131 86 102.5 c 128,-1,7
 90 74 90 74 98.5 48 c 128,-1,8
 107 22 107 22 122 0 c 1,9,-1
 216 0 l 1,10,11
 157 64 157 64 158 149 c 2,12,-1
 158 447 l 1,13,-1
 243 447 l 1,14,-1
 243 519 l 1,15,-1
 158 519 l 1,16,-1
 158 713 l 1,17,18
 146 708 146 708 134.5 701.5 c 128,-1,19
 123 695 123 695 115 685 c 0,20,21
 104 672 104 672 97 660 c 128,-1,22
 90 648 90 648 86.5 635.5 c 128,-1,23
 83 623 83 623 82 609.5 c 128,-1,24
 81 596 81 596 81 580 c 2,25,-1
 81 519 l 1,0,-1
EndSplineSet
EndChar

StartChar: u
Encoding: 117 117 102
Width: 352
Flags: W
LayerCount: 2
Fore
SplineSet
51 519 m 1,0,-1
 51 117 l 2,1,2
 51 72 51 72 65.5 45 c 128,-1,3
 80 18 80 18 100 4 c 128,-1,4
 120 -10 120 -10 141 -14 c 128,-1,5
 162 -18 162 -18 176 -18 c 0,6,7
 201 -18 201 -18 225 -9 c 128,-1,8
 249 0 249 0 266 17 c 0,9,10
 290 41 290 41 295.5 68 c 128,-1,11
 301 95 301 95 301 117 c 2,12,-1
 301 519 l 1,13,-1
 224 519 l 1,14,-1
 224 117 l 2,15,16
 224 112 224 112 223 102.5 c 128,-1,17
 222 93 222 93 217.5 83 c 128,-1,18
 213 73 213 73 203 66 c 128,-1,19
 193 59 193 59 175 59 c 256,20,21
 157 59 157 59 147.5 66.5 c 128,-1,22
 138 74 138 74 133.5 84 c 128,-1,23
 129 94 129 94 128.5 103.5 c 128,-1,24
 128 113 128 113 128 117 c 2,25,-1
 128 519 l 1,26,-1
 51 519 l 1,0,-1
EndSplineSet
EndChar

StartChar: v
Encoding: 118 118 103
Width: 296
Flags: W
LayerCount: 2
Fore
SplineSet
89 519 m 1,0,-1
 13 519 l 1,1,-1
 148 -49 l 1,2,-1
 282 519 l 1,3,-1
 207 519 l 1,4,-1
 148 270 l 1,5,-1
 89 519 l 1,0,-1
EndSplineSet
EndChar

StartChar: w
Encoding: 119 119 104
Width: 511
Flags: W
LayerCount: 2
Fore
SplineSet
216 519 m 1,0,-1
 216 123 l 2,1,2
 216 115 216 115 214 105 c 128,-1,3
 212 95 212 95 207 87 c 128,-1,4
 202 79 202 79 192.5 73.5 c 128,-1,5
 183 68 183 68 168 68 c 0,6,7
 150 68 150 68 140 75 c 128,-1,8
 130 82 130 82 125.5 91.5 c 128,-1,9
 121 101 121 101 120 112.5 c 128,-1,10
 119 124 119 124 119 133 c 2,11,-1
 119 519 l 1,12,-1
 42 519 l 1,13,-1
 42 133 l 2,14,15
 42 101 42 101 47.5 77 c 128,-1,16
 53 53 53 53 76 28 c 0,17,18
 93 8 93 8 119 -0.5 c 128,-1,19
 145 -9 145 -9 168 -9 c 0,20,21
 196 -9 196 -9 218 0 c 128,-1,22
 240 9 240 9 255 23 c 1,23,24
 272 6 272 6 296 -1.5 c 128,-1,25
 320 -9 320 -9 342 -9 c 0,26,27
 372 -9 372 -9 395.5 1.5 c 128,-1,28
 419 12 419 12 434 29 c 0,29,30
 451 47 451 47 459 71 c 128,-1,31
 467 95 467 95 467 133 c 2,32,-1
 467 519 l 1,33,-1
 390 519 l 1,34,-1
 390 133 l 2,35,36
 390 125 390 125 389 114 c 128,-1,37
 388 103 388 103 383.5 93 c 128,-1,38
 379 83 379 83 369.5 75.5 c 128,-1,39
 360 68 360 68 342 68 c 0,40,41
 326 68 326 68 316.5 73 c 128,-1,42
 307 78 307 78 302 86 c 128,-1,43
 297 94 297 94 295 103.5 c 128,-1,44
 293 113 293 113 293 122 c 2,45,-1
 293 519 l 1,46,-1
 216 519 l 1,0,-1
EndSplineSet
EndChar

StartChar: x
Encoding: 120 120 105
Width: 328
Flags: W
LayerCount: 2
Fore
SplineSet
115 0 m 1,0,-1
 163 141 l 1,1,-1
 211 0 l 1,2,-1
 290 0 l 1,3,-1
 203 259 l 1,4,-1
 291 519 l 1,5,-1
 210 519 l 1,6,-1
 163 379 l 1,7,-1
 116 519 l 1,8,-1
 35 519 l 1,9,-1
 123 259 l 1,10,-1
 36 0 l 1,11,-1
 115 0 l 1,0,-1
EndSplineSet
EndChar

StartChar: y
Encoding: 121 121 106
Width: 338
Flags: W
LayerCount: 2
Fore
SplineSet
118 135 m 2,0,-1
 118 519 l 1,1,-1
 41 519 l 1,2,-1
 41 114 l 2,3,4
 41 82 41 82 52.5 58.5 c 128,-1,5
 64 35 64 35 82 20 c 128,-1,6
 100 5 100 5 123 -2 c 128,-1,7
 146 -9 146 -9 169 -9 c 0,8,9
 188 -9 188 -9 217 0 c 1,10,-1
 217 -80 l 2,11,12
 217 -97 217 -97 205.5 -111.5 c 128,-1,13
 194 -126 194 -126 168 -126 c 1,14,-1
 168 -203 l 1,15,16
 193 -203 193 -203 216 -193.5 c 128,-1,17
 239 -184 239 -184 256.5 -167.5 c 128,-1,18
 274 -151 274 -151 284 -128.5 c 128,-1,19
 294 -106 294 -106 294 -80 c 2,20,-1
 294 519 l 1,21,-1
 217 519 l 1,22,-1
 217 124 l 2,23,24
 217 115 217 115 215 105.5 c 128,-1,25
 213 96 213 96 208 88 c 128,-1,26
 203 80 203 80 193.5 75 c 128,-1,27
 184 70 184 70 169 70 c 0,28,29
 150 70 150 70 139.5 76.5 c 128,-1,30
 129 83 129 83 124.5 93 c 128,-1,31
 120 103 120 103 119 114.5 c 128,-1,32
 118 126 118 126 118 135 c 2,0,-1
EndSplineSet
EndChar

StartChar: z
Encoding: 122 122 107
Width: 241
Flags: W
LayerCount: 2
Fore
SplineSet
237 0 m 1,0,-1
 237 77 l 1,1,-1
 100 77 l 1,2,-1
 248 519 l 1,3,-1
 12 519 l 1,4,-1
 12 447 l 1,5,-1
 142 447 l 1,6,-1
 -7 0 l 1,7,-1
 237 0 l 1,0,-1
EndSplineSet
EndChar

StartChar: braceleft
Encoding: 123 123 108
Width: 259
Flags: W
LayerCount: 2
Fore
SplineSet
220 -28 m 1,0,1
 200 -20 200 -20 189.5 -10.5 c 128,-1,2
 179 -1 179 -1 174.5 11 c 128,-1,3
 170 23 170 23 169 38.5 c 128,-1,4
 168 54 168 54 168 74 c 2,5,-1
 168 245 l 2,6,7
 168 291 168 291 158.5 316 c 128,-1,8
 149 341 149 341 139 358 c 1,9,10
 149 377 149 377 154.5 391.5 c 128,-1,11
 160 406 160 406 163 421 c 128,-1,12
 166 436 166 436 167 454 c 128,-1,13
 168 472 168 472 168 499 c 2,14,-1
 168 635 l 2,15,16
 168 659 168 659 173 674.5 c 128,-1,17
 178 690 178 690 185.5 699.5 c 128,-1,18
 193 709 193 709 202.5 715 c 128,-1,19
 212 721 212 721 220 725 c 1,20,-1
 220 807 l 1,21,22
 186 799 186 799 161 782 c 128,-1,23
 136 765 136 765 120 741.5 c 128,-1,24
 104 718 104 718 96 690.5 c 128,-1,25
 88 663 88 663 88 635 c 2,26,-1
 88 499 l 2,27,28
 88 467 88 467 86.5 448 c 128,-1,29
 85 429 85 429 80 415 c 128,-1,30
 75 401 75 401 65.5 388.5 c 128,-1,31
 56 376 56 376 39 358 c 1,32,33
 50 346 50 346 59 334.5 c 128,-1,34
 68 323 68 323 74.5 310.5 c 128,-1,35
 81 298 81 298 84.5 282 c 128,-1,36
 88 266 88 266 88 245 c 2,37,-1
 88 74 l 2,38,39
 88 21 88 21 101.5 -12 c 128,-1,40
 115 -45 115 -45 135 -65 c 128,-1,41
 155 -85 155 -85 178 -95.5 c 128,-1,42
 201 -106 201 -106 220 -112 c 1,43,-1
 220 -28 l 1,0,1
EndSplineSet
EndChar

StartChar: bar
Encoding: 124 124 109
Width: 222
Flags: W
LayerCount: 2
Fore
SplineSet
70 -250 m 1,0,-1
 152 -250 l 1,1,-1
 152 750 l 1,2,-1
 70 750 l 1,3,-1
 70 -250 l 1,0,-1
EndSplineSet
EndChar

StartChar: braceright
Encoding: 125 125 110
Width: 259
Flags: W
LayerCount: 2
Fore
SplineSet
39 -112 m 1,0,1
 58 -106 58 -106 81 -95.5 c 128,-1,2
 104 -85 104 -85 124 -65 c 128,-1,3
 144 -45 144 -45 157.5 -12 c 128,-1,4
 171 21 171 21 171 74 c 2,5,-1
 171 245 l 2,6,7
 171 266 171 266 174.5 282 c 128,-1,8
 178 298 178 298 184.5 310.5 c 128,-1,9
 191 323 191 323 200 334.5 c 128,-1,10
 209 346 209 346 220 358 c 1,11,12
 203 376 203 376 193.5 388.5 c 128,-1,13
 184 401 184 401 179 415 c 128,-1,14
 174 429 174 429 172.5 448 c 128,-1,15
 171 467 171 467 171 499 c 2,16,-1
 171 635 l 2,17,18
 171 663 171 663 163 690.5 c 128,-1,19
 155 718 155 718 139 741.5 c 128,-1,20
 123 765 123 765 98 782 c 128,-1,21
 73 799 73 799 39 807 c 1,22,-1
 39 725 l 1,23,24
 47 721 47 721 56.5 715 c 128,-1,25
 66 709 66 709 73.5 699.5 c 128,-1,26
 81 690 81 690 86 674.5 c 128,-1,27
 91 659 91 659 91 635 c 2,28,-1
 91 499 l 2,29,30
 91 472 91 472 92 454 c 128,-1,31
 93 436 93 436 96 421 c 128,-1,32
 99 406 99 406 104.5 391.5 c 128,-1,33
 110 377 110 377 120 358 c 1,34,35
 110 341 110 341 100.5 316 c 128,-1,36
 91 291 91 291 91 245 c 2,37,-1
 91 74 l 2,38,39
 91 54 91 54 90 38.5 c 128,-1,40
 89 23 89 23 84.5 11 c 128,-1,41
 80 -1 80 -1 69 -10.5 c 128,-1,42
 58 -20 58 -20 39 -28 c 1,43,-1
 39 -112 l 1,0,1
EndSplineSet
EndChar

StartChar: asciitilde
Encoding: 126 126 111
Width: 600
Flags: W
LayerCount: 2
Fore
SplineSet
105 181 m 1,0,1
 120 207 120 207 141 227 c 128,-1,2
 162 247 162 247 191 247 c 0,3,4
 221 247 221 247 246 236 c 128,-1,5
 271 225 271 225 297 213 c 128,-1,6
 323 201 323 201 350 190 c 128,-1,7
 377 179 377 179 409 179 c 0,8,9
 432 178 432 178 451 184.5 c 128,-1,10
 470 191 470 191 486 203 c 128,-1,11
 502 215 502 215 515.5 231.5 c 128,-1,12
 529 248 529 248 541 267 c 1,13,-1
 497 319 l 1,14,15
 480 295 480 295 459 275 c 128,-1,16
 438 255 438 255 409 255 c 0,17,18
 383 255 383 255 359 265 c 128,-1,19
 335 275 335 275 309 289 c 0,20,21
 284 303 284 303 255.5 313 c 128,-1,22
 227 323 227 323 191 323 c 0,23,24
 144 323 144 323 113.5 296.5 c 128,-1,25
 83 270 83 270 59 233 c 1,26,-1
 105 181 l 1,0,1
EndSplineSet
EndChar

StartChar: FL0128
Encoding: 128 128 112
AltUni2: 0020ac.ffffffff.0
Width: 290
Flags: W
LayerCount: 2
Fore
SplineSet
213 447 m 1,0,-1
 -8 447 l 1,1,-1
 -18 403 l 1,2,-1
 203 403 l 1,3,-1
 213 447 l 1,0,-1
212 352 m 1,4,-1
 -9 352 l 1,5,-1
 -19 308 l 1,6,-1
 202 308 l 1,7,-1
 212 352 l 1,4,-1
20 352 m 256,8,9
 20 249 20 249 57 159 c 128,-1,10
 94 69 94 69 159 0 c 1,11,-1
 275 0 l 1,12,13
 234 30 234 30 201.5 68 c 128,-1,14
 169 106 169 106 145.5 151 c 128,-1,15
 122 196 122 196 109.5 247 c 128,-1,16
 97 298 97 298 97 352 c 256,17,18
 97 406 97 406 109.5 456.5 c 128,-1,19
 122 507 122 507 145.5 552 c 128,-1,20
 169 597 169 597 201.5 635.5 c 128,-1,21
 234 674 234 674 275 704 c 1,22,-1
 159 704 l 1,23,24
 94 635 94 635 57 545 c 128,-1,25
 20 455 20 455 20 352 c 256,8,9
EndSplineSet
EndChar

StartChar: quotesinglbase
Encoding: 8218 8218 113
Width: 130
Flags: W
LayerCount: 2
Fore
SplineSet
32 -74 m 1,0,1
 43 -70 43 -70 56 -63 c 128,-1,2
 69 -56 69 -56 84 -37 c 0,3,4
 103 -13 103 -13 106 5.5 c 128,-1,5
 109 24 109 24 109 43 c 2,6,-1
 109 77 l 1,7,-1
 32 77 l 1,8,-1
 32 -74 l 1,0,1
EndSplineSet
EndChar

StartChar: florin
Encoding: 402 402 114
Width: 352
Flags: W
LayerCount: 2
Fore
SplineSet
43 149 m 1,0,-1
 110 149 l 1,1,-1
 72 3 l 2,2,3
 67 -17 67 -17 58.5 -28.5 c 128,-1,4
 50 -40 50 -40 40.5 -46 c 128,-1,5
 31 -52 31 -52 20.5 -54 c 128,-1,6
 10 -56 10 -56 1 -56 c 0,7,8
 -4 -56 -4 -56 -7 -56 c 256,9,10
 -10 -56 -10 -56 -15 -54 c 1,11,-1
 -32 -129 l 1,12,13
 -27 -131 -27 -131 -21 -132 c 128,-1,14
 -15 -133 -15 -133 -2 -133 c 0,15,16
 41 -133 41 -133 68.5 -118.5 c 128,-1,17
 96 -104 96 -104 112 -84.5 c 128,-1,18
 128 -65 128 -65 135.5 -44.5 c 128,-1,19
 143 -24 143 -24 146 -13 c 2,20,-1
 190 149 l 1,21,-1
 261 149 l 1,22,-1
 280 223 l 1,23,-1
 210 223 l 1,24,-1
 238 326 l 2,25,26
 241 336 241 336 244.5 347.5 c 128,-1,27
 248 359 248 359 255.5 368.5 c 128,-1,28
 263 378 263 378 275.5 384 c 128,-1,29
 288 390 288 390 308 390 c 0,30,31
 314 390 314 390 318 389.5 c 128,-1,32
 322 389 322 389 326 388 c 1,33,-1
 347 461 l 1,34,35
 340 463 340 463 331.5 465 c 128,-1,36
 323 467 323 467 309 467 c 0,37,38
 258 467 258 467 217 436.5 c 128,-1,39
 176 406 176 406 160 346 c 2,40,-1
 128 223 l 1,41,-1
 67 223 l 1,42,-1
 43 149 l 1,0,-1
EndSplineSet
EndChar

StartChar: quotedblbase
Encoding: 8222 8222 115
Width: 241
Flags: W
LayerCount: 2
Fore
SplineSet
32 -74 m 1,0,1
 43 -70 43 -70 56 -63 c 128,-1,2
 69 -56 69 -56 84 -37 c 0,3,4
 103 -13 103 -13 106 5.5 c 128,-1,5
 109 24 109 24 109 43 c 2,6,-1
 109 77 l 1,7,-1
 32 77 l 1,8,-1
 32 -74 l 1,0,1
143 -74 m 1,9,10
 154 -70 154 -70 167 -63 c 128,-1,11
 180 -56 180 -56 195 -37 c 0,12,13
 214 -13 214 -13 217 5.5 c 128,-1,14
 220 24 220 24 220 43 c 2,15,-1
 220 77 l 1,16,-1
 143 77 l 1,17,-1
 143 -74 l 1,9,10
EndSplineSet
EndChar

StartChar: ellipsis
Encoding: 8230 8230 116
Width: 447
Flags: W
LayerCount: 2
Fore
SplineSet
113 0 m 1,0,-1
 113 77 l 1,1,-1
 36 77 l 1,2,-1
 36 0 l 1,3,-1
 113 0 l 1,0,-1
262 0 m 1,4,-1
 262 77 l 1,5,-1
 185 77 l 1,6,-1
 185 0 l 1,7,-1
 262 0 l 1,4,-1
411 0 m 1,8,-1
 411 77 l 1,9,-1
 334 77 l 1,10,-1
 334 0 l 1,11,-1
 411 0 l 1,8,-1
EndSplineSet
EndChar

StartChar: dagger
Encoding: 8224 8224 117
Width: 296
Flags: W
LayerCount: 2
Fore
SplineSet
293 0 m 1,0,-1
 148 753 l 1,1,-1
 45 218 l 1,2,-1
 -58 218 l 1,3,-1
 -13 146 l 1,4,-1
 31 146 l 1,5,-1
 3 0 l 1,6,-1
 82 0 l 1,7,-1
 107 146 l 1,8,-1
 189 146 l 1,9,-1
 215 0 l 1,10,-1
 293 0 l 1,0,-1
176 218 m 1,11,-1
 120 218 l 1,12,-1
 148 381 l 1,13,-1
 176 218 l 1,11,-1
EndSplineSet
EndChar

StartChar: daggerdbl
Encoding: 8225 8225 118
Width: 352
Flags: W
LayerCount: 2
Fore
SplineSet
179 -18 m 2,0,1
 183 -18 183 -18 186.5 -17.5 c 128,-1,2
 190 -17 190 -17 195 -16 c 0,3,4
 198 -18 198 -18 201 -21 c 128,-1,5
 204 -24 204 -24 208 -27 c 0,6,7
 217 -35 217 -35 228 -44.5 c 128,-1,8
 239 -54 239 -54 254.5 -62 c 128,-1,9
 270 -70 270 -70 291 -76 c 128,-1,10
 312 -82 312 -82 340 -83 c 1,11,-1
 340 -6 l 1,12,13
 307 -2 307 -2 289.5 9.5 c 128,-1,14
 272 21 272 21 256 39 c 1,15,16
 266 58 266 58 274.5 85 c 128,-1,17
 283 112 283 112 289.5 150.5 c 128,-1,18
 296 189 296 189 299.5 238.5 c 128,-1,19
 303 288 303 288 303 352 c 0,20,21
 303 476 303 476 288.5 549 c 128,-1,22
 274 622 274 622 254 660.5 c 128,-1,23
 234 699 234 699 212.5 710.5 c 128,-1,24
 191 722 191 722 176 722 c 256,25,26
 161 722 161 722 139.5 710.5 c 128,-1,27
 118 699 118 699 98 660.5 c 128,-1,28
 78 622 78 622 64 549 c 128,-1,29
 50 476 50 476 50 352 c 0,30,31
 50 227 50 227 62.5 154 c 128,-1,32
 75 81 75 81 94.5 42.5 c 128,-1,33
 114 4 114 4 136 -7 c 128,-1,34
 158 -18 158 -18 178 -18 c 2,35,-1
 179 -18 l 2,0,1
178 645 m 2,36,37
 184 645 184 645 192 634.5 c 128,-1,38
 200 624 200 624 207.5 592.5 c 128,-1,39
 215 561 215 561 220.5 503.5 c 128,-1,40
 226 446 226 446 226 352 c 0,41,42
 226 265 226 265 221 208.5 c 128,-1,43
 216 152 216 152 208.5 119 c 128,-1,44
 201 86 201 86 192.5 73.5 c 128,-1,45
 184 61 184 61 178 61 c 0,46,47
 170 61 170 61 161.5 73.5 c 128,-1,48
 153 86 153 86 145 118.5 c 128,-1,49
 137 151 137 151 132 207.5 c 128,-1,50
 127 264 127 264 127 352 c 0,51,52
 127 446 127 446 133 503.5 c 128,-1,53
 139 561 139 561 147 592.5 c 128,-1,54
 155 624 155 624 163.5 634.5 c 128,-1,55
 172 645 172 645 177 645 c 2,56,-1
 178 645 l 2,36,37
EndSplineSet
EndChar

StartChar: circumflex
Encoding: 710 710 119
Width: 426
Flags: W
LayerCount: 2
Fore
SplineSet
213 792 m 1,0,-1
 318 754 l 1,1,-1
 332 794 l 1,2,-1
 213 837 l 1,3,-1
 94 794 l 1,4,-1
 108 754 l 1,5,-1
 213 792 l 1,0,-1
EndSplineSet
EndChar

StartChar: perthousand
Encoding: 8240 8240 120
Width: 778
Flags: W
LayerCount: 2
Fore
SplineSet
30 347 m 2,0,1
 30 318 30 318 51 294.5 c 128,-1,2
 72 271 72 271 113 271 c 0,3,4
 143 271 143 271 169 290 c 128,-1,5
 195 309 195 309 195 347 c 2,6,-1
 195 641 l 2,7,8
 195 653 195 653 190.5 666.5 c 128,-1,9
 186 680 186 680 176 691.5 c 128,-1,10
 166 703 166 703 150 710 c 128,-1,11
 134 717 134 717 112 717 c 0,12,13
 80 717 80 717 55 696.5 c 128,-1,14
 30 676 30 676 30 641 c 2,15,-1
 30 347 l 2,0,1
88 630 m 2,16,17
 88 640 88 640 91 652.5 c 128,-1,18
 94 665 94 665 112 665 c 0,19,20
 131 665 131 665 134 653 c 128,-1,21
 137 641 137 641 137 630 c 2,22,-1
 137 360 l 2,23,24
 137 349 137 349 134 336.5 c 128,-1,25
 131 324 131 324 113 324 c 0,26,27
 104 324 104 324 98.5 327.5 c 128,-1,28
 93 331 93 331 91 336.5 c 128,-1,29
 89 342 89 342 88.5 348.5 c 128,-1,30
 88 355 88 355 88 360 c 2,31,-1
 88 630 l 2,16,17
360 66 m 2,32,33
 360 37 360 37 381 13 c 128,-1,34
 402 -11 402 -11 443 -11 c 0,35,36
 458 -11 458 -11 473 -6 c 128,-1,37
 488 -1 488 -1 499.5 8.5 c 128,-1,38
 511 18 511 18 518.5 32.5 c 128,-1,39
 526 47 526 47 526 66 c 2,40,-1
 526 359 l 2,41,42
 526 372 526 372 521 385.5 c 128,-1,43
 516 399 516 399 506 410 c 128,-1,44
 496 421 496 421 480 428.5 c 128,-1,45
 464 436 464 436 442 436 c 0,46,47
 410 436 410 436 385 414.5 c 128,-1,48
 360 393 360 393 360 359 c 2,49,-1
 360 66 l 2,32,33
418 348 m 2,50,51
 418 359 418 359 421 371 c 128,-1,52
 424 383 424 383 443 383 c 0,53,54
 461 383 461 383 464 371 c 128,-1,55
 467 359 467 359 467 348 c 2,56,-1
 467 78 l 2,57,58
 467 68 467 68 464 55.5 c 128,-1,59
 461 43 461 43 443 43 c 0,60,61
 424 43 424 43 421 55 c 128,-1,62
 418 67 418 67 418 78 c 2,63,-1
 418 348 l 2,50,51
582 66 m 2,64,65
 582 37 582 37 603 13 c 128,-1,66
 624 -11 624 -11 666 -11 c 0,67,68
 696 -11 696 -11 722 8.5 c 128,-1,69
 748 28 748 28 748 66 c 2,70,-1
 748 359 l 2,71,72
 748 372 748 372 743.5 385.5 c 128,-1,73
 739 399 739 399 728.5 410 c 128,-1,74
 718 421 718 421 702 428.5 c 128,-1,75
 686 436 686 436 664 436 c 0,76,77
 632 436 632 436 607 414.5 c 128,-1,78
 582 393 582 393 582 359 c 2,79,-1
 582 66 l 2,64,65
641 348 m 2,80,81
 641 359 641 359 644 371 c 128,-1,82
 647 383 647 383 665 383 c 0,83,84
 684 383 684 383 687 371 c 128,-1,85
 690 359 690 359 690 348 c 2,86,-1
 690 78 l 2,87,88
 690 73 690 73 689.5 67 c 128,-1,89
 689 61 689 61 687 55.5 c 128,-1,90
 685 50 685 50 679.5 46.5 c 128,-1,91
 674 43 674 43 665 43 c 0,92,93
 647 43 647 43 644 55 c 128,-1,94
 641 67 641 67 641 78 c 2,95,-1
 641 348 l 2,80,81
206 0 m 1,96,-1
 396 710 l 1,97,-1
 349 710 l 1,98,-1
 160 0 l 1,99,-1
 206 0 l 1,96,-1
EndSplineSet
EndChar

StartChar: Scaron
Encoding: 352 352 121
Width: 222
Flags: W
LayerCount: 2
Fore
SplineSet
138 0 m 1,0,1
 165 48 165 48 174 94.5 c 128,-1,2
 183 141 183 141 183 173 c 0,3,4
 183 193 183 193 180.5 210.5 c 128,-1,5
 178 228 178 228 172.5 246.5 c 128,-1,6
 167 265 167 265 158 287 c 128,-1,7
 149 309 149 309 136 337 c 0,8,9
 124 364 124 364 116.5 383.5 c 128,-1,10
 109 403 109 403 105.5 418.5 c 128,-1,11
 102 434 102 434 101 447.5 c 128,-1,12
 100 461 100 461 100 475 c 0,13,14
 100 544 100 544 127.5 602.5 c 128,-1,15
 155 661 155 661 200 704 c 1,16,-1
 95 704 l 1,17,18
 59 654 59 654 40.5 596.5 c 128,-1,19
 22 539 22 539 22 476 c 0,20,21
 22 431 22 431 32 394.5 c 128,-1,22
 42 358 42 358 62 314 c 0,23,24
 74 288 74 288 82.5 269 c 128,-1,25
 91 250 91 250 96 234 c 128,-1,26
 101 218 101 218 103.5 202.5 c 128,-1,27
 106 187 106 187 106 168 c 0,28,29
 106 123 106 123 87.5 79 c 128,-1,30
 69 35 69 35 40 0 c 1,31,-1
 138 0 l 1,0,1
133 748 m 1,32,-1
 252 792 l 1,33,-1
 238 831 l 1,34,-1
 133 793 l 1,35,-1
 28 831 l 1,36,-1
 14 792 l 1,37,-1
 133 748 l 1,32,-1
EndSplineSet
EndChar

StartChar: guilsinglleft
Encoding: 8249 8249 122
Width: 241
Flags: W
LayerCount: 2
Fore
SplineSet
200 0 m 1,0,-1
 103 209 l 1,1,-1
 200 419 l 1,2,-1
 139 419 l 1,3,-1
 41 209 l 1,4,-1
 139 0 l 1,5,-1
 200 0 l 1,0,-1
EndSplineSet
EndChar

StartChar: OE
Encoding: 338 338 123
Width: 481
Flags: W
LayerCount: 2
Fore
SplineSet
449 218 m 1,0,-1
 304 218 l 1,1,-1
 304 596 l 2,2,3
 304 604 304 604 303.5 609.5 c 128,-1,4
 303 615 303 615 301 627 c 1,5,-1
 449 627 l 1,6,-1
 449 704 l 1,7,-1
 246 704 l 1,8,9
 232 711 232 711 217.5 716.5 c 128,-1,10
 203 722 203 722 177 722 c 256,11,12
 151 722 151 722 128 713 c 128,-1,13
 105 704 105 704 88 687.5 c 128,-1,14
 71 671 71 671 61 648.5 c 128,-1,15
 51 626 51 626 51 599 c 2,16,-1
 51 105 l 2,17,18
 51 80 51 80 60 57.5 c 128,-1,19
 69 35 69 35 85 18.5 c 128,-1,20
 101 2 101 2 124 -8 c 128,-1,21
 147 -18 147 -18 176 -18 c 0,22,23
 211 -18 211 -18 231 -5.5 c 128,-1,24
 251 7 251 7 263 18 c 1,25,26
 277 9 277 9 293 4.5 c 128,-1,27
 309 0 309 0 344 0 c 2,28,-1
 449 0 l 1,29,-1
 449 77 l 1,30,-1
 344 77 l 2,31,32
 329 77 329 77 321 78.5 c 128,-1,33
 313 80 313 80 309 85.5 c 128,-1,34
 305 91 305 91 304.5 101.5 c 128,-1,35
 304 112 304 112 304 130 c 2,36,-1
 304 146 l 1,37,-1
 449 146 l 1,38,-1
 449 218 l 1,0,-1
128 580 m 2,39,40
 128 588 128 588 129 599 c 128,-1,41
 130 610 130 610 134.5 620.5 c 128,-1,42
 139 631 139 631 149 638 c 128,-1,43
 159 645 159 645 177 645 c 0,44,45
 196 645 196 645 206 638 c 128,-1,46
 216 631 216 631 220.5 621 c 128,-1,47
 225 611 225 611 226 599.5 c 128,-1,48
 227 588 227 588 227 580 c 2,49,-1
 227 126 l 2,50,51
 227 118 227 118 226 106.5 c 128,-1,52
 225 95 225 95 220.5 85 c 128,-1,53
 216 75 216 75 206 68 c 128,-1,54
 196 61 196 61 178 61 c 0,55,56
 159 61 159 61 149 67.5 c 128,-1,57
 139 74 139 74 134.5 84 c 128,-1,58
 130 94 130 94 129 105.5 c 128,-1,59
 128 117 128 117 128 126 c 2,60,-1
 128 580 l 2,39,40
EndSplineSet
EndChar

StartChar: quoteleft
Encoding: 8216 8216 124
Width: 130
Flags: W
LayerCount: 2
Fore
SplineSet
98 552 m 1,0,-1
 98 704 l 1,1,2
 87 699 87 699 74 692.5 c 128,-1,3
 61 686 61 686 46 666 c 0,4,5
 27 643 27 643 24 624.5 c 128,-1,6
 21 606 21 606 21 586 c 2,7,-1
 21 552 l 1,8,-1
 98 552 l 1,0,-1
EndSplineSet
EndChar

StartChar: quoteright
Encoding: 8217 8217 125
Width: 130
Flags: W
LayerCount: 2
Fore
SplineSet
32 552 m 1,0,1
 43 557 43 557 56 563.5 c 128,-1,2
 69 570 69 570 84 590 c 0,3,4
 103 613 103 613 106 631.5 c 128,-1,5
 109 650 109 650 109 670 c 2,6,-1
 109 704 l 1,7,-1
 32 704 l 1,8,-1
 32 552 l 1,0,1
EndSplineSet
EndChar

StartChar: quotedblleft
Encoding: 8220 8220 126
Width: 241
Flags: W
LayerCount: 2
Fore
SplineSet
98 552 m 1,0,-1
 98 704 l 1,1,2
 87 699 87 699 74 692.5 c 128,-1,3
 61 686 61 686 46 666 c 0,4,5
 27 643 27 643 24 624.5 c 128,-1,6
 21 606 21 606 21 586 c 2,7,-1
 21 552 l 1,8,-1
 98 552 l 1,0,-1
209 552 m 1,9,-1
 209 704 l 1,10,11
 198 699 198 699 185 692.5 c 128,-1,12
 172 686 172 686 157 666 c 0,13,14
 138 643 138 643 135 624.5 c 128,-1,15
 132 606 132 606 132 586 c 2,16,-1
 132 552 l 1,17,-1
 209 552 l 1,9,-1
EndSplineSet
EndChar

StartChar: quotedblright
Encoding: 8221 8221 127
Width: 241
Flags: W
LayerCount: 2
Fore
SplineSet
143 552 m 1,0,1
 154 557 154 557 167 563.5 c 128,-1,2
 180 570 180 570 195 590 c 0,3,4
 214 613 214 613 217 631.5 c 128,-1,5
 220 650 220 650 220 670 c 2,6,-1
 220 704 l 1,7,-1
 143 704 l 1,8,-1
 143 552 l 1,0,1
32 552 m 1,9,10
 43 557 43 557 56 563.5 c 128,-1,11
 69 570 69 570 84 590 c 0,12,13
 103 613 103 613 106 631.5 c 128,-1,14
 109 650 109 650 109 670 c 2,15,-1
 109 704 l 1,16,-1
 32 704 l 1,17,-1
 32 552 l 1,9,10
EndSplineSet
EndChar

StartChar: bullet
Encoding: 8226 8226 128
Width: 500
Flags: W
LayerCount: 2
Fore
SplineSet
105 350 m 0,0,1
 105 318 105 318 116.5 291.5 c 128,-1,2
 128 265 128 265 147.5 245 c 128,-1,3
 167 225 167 225 193.5 214 c 128,-1,4
 220 203 220 203 250 203 c 256,5,6
 280 203 280 203 306.5 214.5 c 128,-1,7
 333 226 333 226 352.5 246 c 128,-1,8
 372 266 372 266 383.5 292.5 c 128,-1,9
 395 319 395 319 395 350 c 0,10,11
 395 380 395 380 383.5 406 c 128,-1,12
 372 432 372 432 352.5 451.5 c 128,-1,13
 333 471 333 471 306.5 482 c 128,-1,14
 280 493 280 493 250 493 c 256,15,16
 220 493 220 493 193.5 482 c 128,-1,17
 167 471 167 471 147.5 451.5 c 128,-1,18
 128 432 128 432 116.5 406 c 128,-1,19
 105 380 105 380 105 350 c 0,0,1
EndSplineSet
EndChar

StartChar: endash
Encoding: 8211 8211 129
Width: 333
Flags: W
LayerCount: 2
Fore
SplineSet
293 148 m 1,0,-1
 293 226 l 1,1,-1
 40 226 l 1,2,-1
 40 148 l 1,3,-1
 293 148 l 1,0,-1
EndSplineSet
EndChar

StartChar: emdash
Encoding: 8212 8212 130
Width: 481
Flags: W
LayerCount: 2
Fore
SplineSet
439 148 m 1,0,-1
 439 225 l 1,1,-1
 42 225 l 1,2,-1
 42 148 l 1,3,-1
 439 148 l 1,0,-1
EndSplineSet
EndChar

StartChar: tilde
Encoding: 732 732 131
Width: 426
Flags: W
LayerCount: 2
Fore
SplineSet
136 758 m 1,0,1
 141 778 141 778 151.5 784.5 c 128,-1,2
 162 791 162 791 170 791 c 256,3,4
 178 791 178 791 184.5 788 c 128,-1,5
 191 785 191 785 211 773 c 0,6,7
 222 766 222 766 234 762 c 128,-1,8
 246 758 246 758 260 758 c 0,9,10
 284 758 284 758 298 767.5 c 128,-1,11
 312 777 312 777 319.5 790 c 128,-1,12
 327 803 327 803 329.5 816 c 128,-1,13
 332 829 332 829 333 835 c 1,14,-1
 289 835 l 1,15,16
 286 816 286 816 277.5 808 c 128,-1,17
 269 800 269 800 258 800 c 0,18,19
 250 800 250 800 243 803 c 128,-1,20
 236 806 236 806 225 813 c 0,21,22
 208 824 208 824 196.5 828.5 c 128,-1,23
 185 833 185 833 170 833 c 0,24,25
 168 833 168 833 157 832 c 128,-1,26
 146 831 146 831 133.5 824 c 128,-1,27
 121 817 121 817 109 801.5 c 128,-1,28
 97 786 97 786 93 758 c 1,29,-1
 136 758 l 1,0,1
EndSplineSet
EndChar

StartChar: trademark
Encoding: 8482 8482 132
Width: 990
Flags: W
LayerCount: 2
Fore
SplineSet
390 704 m 1,0,-1
 58 704 l 1,1,-1
 58 640 l 1,2,-1
 183 640 l 1,3,-1
 183 292 l 1,4,-1
 265 292 l 1,5,-1
 265 640 l 1,6,-1
 390 640 l 1,7,-1
 390 704 l 1,0,-1
591 704 m 1,8,-1
 474 704 l 1,9,-1
 474 292 l 1,10,-1
 550 292 l 1,11,-1
 550 616 l 1,12,-1
 552 616 l 1,13,-1
 675 292 l 1,14,-1
 731 292 l 1,15,-1
 854 616 l 1,16,-1
 856 616 l 1,17,-1
 856 292 l 1,18,-1
 932 292 l 1,19,-1
 932 704 l 1,20,-1
 816 704 l 1,21,-1
 704 412 l 1,22,-1
 591 704 l 1,8,-1
EndSplineSet
EndChar

StartChar: scaron
Encoding: 353 353 133
Width: 222
Flags: W
LayerCount: 2
Fore
SplineSet
138 0 m 1,0,1
 165 48 165 48 174 94.5 c 128,-1,2
 183 141 183 141 183 173 c 0,3,4
 183 193 183 193 180.5 210.5 c 128,-1,5
 178 228 178 228 172.5 246.5 c 128,-1,6
 167 265 167 265 158 287 c 128,-1,7
 149 309 149 309 136 337 c 0,8,9
 124 364 124 364 116.5 383.5 c 128,-1,10
 109 403 109 403 105.5 418.5 c 128,-1,11
 102 434 102 434 101 447.5 c 128,-1,12
 100 461 100 461 100 475 c 0,13,14
 100 544 100 544 127.5 602.5 c 128,-1,15
 155 661 155 661 200 704 c 1,16,-1
 95 704 l 1,17,18
 59 654 59 654 40.5 596.5 c 128,-1,19
 22 539 22 539 22 476 c 0,20,21
 22 431 22 431 32 394.5 c 128,-1,22
 42 358 42 358 62 314 c 0,23,24
 74 288 74 288 82.5 269 c 128,-1,25
 91 250 91 250 96 234 c 128,-1,26
 101 218 101 218 103.5 202.5 c 128,-1,27
 106 187 106 187 106 168 c 0,28,29
 106 123 106 123 87.5 79 c 128,-1,30
 69 35 69 35 40 0 c 1,31,-1
 138 0 l 1,0,1
133 748 m 1,32,-1
 252 792 l 1,33,-1
 238 831 l 1,34,-1
 133 793 l 1,35,-1
 28 831 l 1,36,-1
 14 792 l 1,37,-1
 133 748 l 1,32,-1
EndSplineSet
EndChar

StartChar: guilsinglright
Encoding: 8250 8250 134
Width: 241
Flags: W
LayerCount: 2
Fore
SplineSet
102 0 m 1,0,-1
 200 209 l 1,1,-1
 102 419 l 1,2,-1
 41 419 l 1,3,-1
 137 209 l 1,4,-1
 41 0 l 1,5,-1
 102 0 l 1,0,-1
EndSplineSet
EndChar

StartChar: oe
Encoding: 339 339 135
Width: 496
Flags: W
LayerCount: 2
Fore
SplineSet
35 114 m 2,0,1
 35 82 35 82 46.5 58.5 c 128,-1,2
 58 35 58 35 76 20 c 128,-1,3
 94 5 94 5 117 -2 c 128,-1,4
 140 -9 140 -9 163 -9 c 0,5,6
 178 -9 178 -9 204 -2.5 c 128,-1,7
 230 4 230 4 252 24 c 1,8,9
 270 9 270 9 293 2 c 128,-1,10
 316 -5 316 -5 339 -5 c 0,11,12
 352 -5 352 -5 373 -0.5 c 128,-1,13
 394 4 394 4 414.5 17.5 c 128,-1,14
 435 31 435 31 449.5 55 c 128,-1,15
 464 79 464 79 464 118 c 2,16,-1
 464 146 l 1,17,-1
 387 146 l 1,18,-1
 387 139 l 2,19,20
 387 131 387 131 386 119.5 c 128,-1,21
 385 108 385 108 380.5 98 c 128,-1,22
 376 88 376 88 366.5 81 c 128,-1,23
 357 74 357 74 339 74 c 0,24,25
 320 74 320 74 309.5 80.5 c 128,-1,26
 299 87 299 87 294.5 97 c 128,-1,27
 290 107 290 107 289 118.5 c 128,-1,28
 288 130 288 130 288 139 c 2,29,-1
 288 218 l 1,30,-1
 356 218 l 2,31,32
 389 218 389 218 410 228 c 128,-1,33
 431 238 431 238 443 253 c 128,-1,34
 455 268 455 268 459.5 284.5 c 128,-1,35
 464 301 464 301 464 315 c 2,36,-1
 464 409 l 2,37,38
 464 430 464 430 456.5 451.5 c 128,-1,39
 449 473 449 473 433.5 491 c 128,-1,40
 418 509 418 509 394 520.5 c 128,-1,41
 370 532 370 532 337 532 c 0,42,43
 313 532 313 532 289.5 523.5 c 128,-1,44
 266 515 266 515 247 498 c 1,45,46
 232 512 232 512 210.5 520 c 128,-1,47
 189 528 189 528 161 528 c 0,48,49
 138 528 138 528 115.5 520.5 c 128,-1,50
 93 513 93 513 75 497.5 c 128,-1,51
 57 482 57 482 46 459 c 128,-1,52
 35 436 35 436 35 405 c 2,53,-1
 35 114 l 2,0,1
112 386 m 2,54,55
 112 394 112 394 113 405 c 128,-1,56
 114 416 114 416 118.5 426.5 c 128,-1,57
 123 437 123 437 133 444 c 128,-1,58
 143 451 143 451 162 451 c 0,59,60
 180 451 180 451 190 444 c 128,-1,61
 200 437 200 437 204.5 427 c 128,-1,62
 209 417 209 417 210 405.5 c 128,-1,63
 211 394 211 394 211 386 c 2,64,-1
 211 135 l 2,65,66
 211 127 211 127 210 115.5 c 128,-1,67
 209 104 209 104 204.5 94 c 128,-1,68
 200 84 200 84 190.5 77 c 128,-1,69
 181 70 181 70 163 70 c 0,70,71
 144 70 144 70 133.5 76.5 c 128,-1,72
 123 83 123 83 118.5 93 c 128,-1,73
 114 103 114 103 113 114.5 c 128,-1,74
 112 126 112 126 112 135 c 2,75,-1
 112 386 l 2,54,55
353 290 m 2,76,-1
 288 290 l 1,77,-1
 288 390 l 2,78,79
 288 398 288 398 289 409 c 128,-1,80
 290 420 290 420 294.5 430.5 c 128,-1,81
 299 441 299 441 309 448 c 128,-1,82
 319 455 319 455 338 455 c 0,83,84
 356 455 356 455 366 448 c 128,-1,85
 376 441 376 441 380.5 431 c 128,-1,86
 385 421 385 421 386 409.5 c 128,-1,87
 387 398 387 398 387 390 c 2,88,-1
 387 320 l 2,89,90
 387 297 387 297 377.5 293.5 c 128,-1,91
 368 290 368 290 353 290 c 2,76,-1
EndSplineSet
EndChar

StartChar: exclamdown
Encoding: 161 161 137
Width: 185
Flags: W
LayerCount: 2
Fore
SplineSet
54 710 m 1,0,-1
 54 633 l 1,1,-1
 131 633 l 1,2,-1
 131 710 l 1,3,-1
 54 710 l 1,0,-1
54 562 m 1,4,-1
 54 0 l 1,5,-1
 131 0 l 1,6,-1
 131 562 l 1,7,-1
 54 562 l 1,4,-1
EndSplineSet
EndChar

StartChar: cent
Encoding: 162 162 138
Width: 352
Flags: W
LayerCount: 2
Fore
SplineSet
283 154 m 1,0,1
 271 163 271 163 253.5 178.5 c 128,-1,2
 236 194 236 194 219.5 218 c 128,-1,3
 203 242 203 242 191 275.5 c 128,-1,4
 179 309 179 309 179 355 c 0,5,6
 179 388 179 388 187.5 420.5 c 128,-1,7
 196 453 196 453 218 486 c 0,8,9
 236 514 236 514 253 529 c 128,-1,10
 270 544 270 544 283 553 c 1,11,-1
 219 553 l 1,12,-1
 219 631 l 1,13,-1
 189 631 l 1,14,-1
 189 553 l 1,15,-1
 168 553 l 1,16,17
 134 508 134 508 116.5 457.5 c 128,-1,18
 99 407 99 407 99 353 c 0,19,20
 99 315 99 315 107 283 c 128,-1,21
 115 251 115 251 126.5 225.5 c 128,-1,22
 138 200 138 200 149.5 182 c 128,-1,23
 161 164 161 164 168 154 c 1,24,-1
 189 154 l 1,25,-1
 189 79 l 1,26,-1
 219 79 l 1,27,-1
 219 154 l 1,28,-1
 283 154 l 1,0,1
EndSplineSet
EndChar

StartChar: sterling
Encoding: 163 163 139
Width: 352
Flags: W
LayerCount: 2
Fore
SplineSet
30 218 m 1,0,-1
 77 145 l 1,1,-1
 137 145 l 1,2,3
 129 118 129 118 114.5 101.5 c 128,-1,4
 100 85 100 85 77 71 c 1,5,-1
 77 0 l 1,6,7
 93 0 93 0 105.5 -0.5 c 128,-1,8
 118 -1 118 -1 130 -3.5 c 128,-1,9
 142 -6 142 -6 156.5 -10.5 c 128,-1,10
 171 -15 171 -15 191 -22 c 0,11,12
 212 -30 212 -30 229.5 -35.5 c 128,-1,13
 247 -41 247 -41 263.5 -44 c 128,-1,14
 280 -47 280 -47 297 -49 c 128,-1,15
 314 -51 314 -51 335 -51 c 1,16,-1
 335 26 l 1,17,18
 321 27 321 27 299.5 28 c 128,-1,19
 278 29 278 29 258 36 c 0,20,21
 254 37 254 37 243.5 41 c 128,-1,22
 233 45 233 45 221 50 c 128,-1,23
 209 55 209 55 198 59 c 128,-1,24
 187 63 187 63 183 65 c 1,25,26
 203 89 203 89 210.5 109 c 128,-1,27
 218 129 218 129 221 145 c 1,28,-1
 335 145 l 1,29,-1
 335 218 l 1,30,-1
 221 218 l 1,31,32
 217 237 217 237 213 248 c 128,-1,33
 209 259 209 259 201 277 c 0,34,35
 189 304 189 304 181 322 c 128,-1,36
 173 340 173 340 168.5 355 c 128,-1,37
 164 370 164 370 162 384.5 c 128,-1,38
 160 399 160 399 160 418 c 0,39,40
 160 478 160 478 183.5 527.5 c 128,-1,41
 207 577 207 577 245 608 c 0,42,43
 270 629 270 629 294.5 639 c 128,-1,44
 319 649 319 649 335 654 c 1,45,-1
 335 735 l 1,46,47
 273 720 273 720 226 688 c 128,-1,48
 179 656 179 656 147 613.5 c 128,-1,49
 115 571 115 571 99 520.5 c 128,-1,50
 83 470 83 470 83 417 c 0,51,52
 83 390 83 390 86.5 367.5 c 128,-1,53
 90 345 90 345 96.5 325.5 c 128,-1,54
 103 306 103 306 111.5 287.5 c 128,-1,55
 120 269 120 269 130 248 c 0,56,57
 133 240 133 240 135.5 234.5 c 128,-1,58
 138 229 138 229 141 218 c 1,59,-1
 30 218 l 1,0,-1
EndSplineSet
EndChar

StartChar: currency
Encoding: 164 164 140
Width: 600
Flags: W
LayerCount: 2
Fore
SplineSet
300 451 m 256,0,1
 329 451 329 451 353.5 439.5 c 128,-1,2
 378 428 378 428 396 408.5 c 128,-1,3
 414 389 414 389 424 364 c 128,-1,4
 434 339 434 339 434 311 c 256,5,6
 434 283 434 283 424 258 c 128,-1,7
 414 233 414 233 396 214 c 128,-1,8
 378 195 378 195 353.5 184 c 128,-1,9
 329 173 329 173 300 173 c 256,10,11
 271 173 271 173 247 184 c 128,-1,12
 223 195 223 195 205.5 214 c 128,-1,13
 188 233 188 233 178 258 c 128,-1,14
 168 283 168 283 168 311 c 256,15,16
 168 339 168 339 178 364 c 128,-1,17
 188 389 188 389 205.5 408.5 c 128,-1,18
 223 428 223 428 247 439.5 c 128,-1,19
 271 451 271 451 300 451 c 256,0,1
25 90 m 1,20,-1
 81 36 l 1,21,-1
 177 134 l 1,22,23
 200 117 200 117 232 107 c 128,-1,24
 264 97 264 97 300 97 c 256,25,26
 336 97 336 97 368.5 107.5 c 128,-1,27
 401 118 401 118 423 134 c 1,28,-1
 521 36 l 1,29,-1
 575 90 l 1,30,-1
 477 188 l 1,31,32
 494 211 494 211 505 243 c 128,-1,33
 516 275 516 275 516 311 c 256,34,35
 516 347 516 347 505 379 c 128,-1,36
 494 411 494 411 477 434 c 1,37,-1
 575 532 l 1,38,-1
 521 586 l 1,39,-1
 423 488 l 1,40,41
 401 505 401 505 369.5 516 c 128,-1,42
 338 527 338 527 300 527 c 0,43,44
 264 527 264 527 232 516 c 128,-1,45
 200 505 200 505 177 488 c 1,46,-1
 81 586 l 1,47,-1
 25 532 l 1,48,-1
 123 434 l 1,49,50
 107 412 107 412 96.5 379.5 c 128,-1,51
 86 347 86 347 86 311 c 256,52,53
 86 275 86 275 96 244 c 128,-1,54
 106 213 106 213 123 188 c 1,55,-1
 25 90 l 1,20,-1
EndSplineSet
EndChar

StartChar: yen
Encoding: 165 165 141
Width: 315
Flags: W
LayerCount: 2
Fore
SplineSet
119 0 m 1,0,-1
 196 0 l 1,1,-1
 196 167 l 1,2,-1
 283 167 l 1,3,-1
 283 208 l 1,4,-1
 202 208 l 1,5,-1
 209 240 l 1,6,-1
 283 240 l 1,7,-1
 283 281 l 1,8,-1
 217 281 l 1,9,-1
 303 704 l 1,10,-1
 224 704 l 1,11,-1
 158 360 l 1,12,-1
 91 704 l 1,13,-1
 13 704 l 1,14,-1
 98 281 l 1,15,-1
 33 281 l 1,16,-1
 33 240 l 1,17,-1
 106 240 l 1,18,-1
 112 208 l 1,19,-1
 33 208 l 1,20,-1
 33 167 l 1,21,-1
 119 167 l 1,22,-1
 119 0 l 1,0,-1
EndSplineSet
EndChar

StartChar: brokenbar
Encoding: 166 166 142
Width: 222
Flags: W
LayerCount: 2
Fore
SplineSet
70 -175 m 1,0,-1
 152 -175 l 1,1,-1
 152 175 l 1,2,-1
 70 175 l 1,3,-1
 70 -175 l 1,0,-1
70 325 m 1,4,-1
 152 325 l 1,5,-1
 152 675 l 1,6,-1
 70 675 l 1,7,-1
 70 325 l 1,4,-1
EndSplineSet
EndChar

StartChar: section
Encoding: 167 167 143
Width: 357
Flags: W
LayerCount: 2
Fore
SplineSet
188 704 m 1,0,1
 170 676 170 676 162 648.5 c 128,-1,2
 154 621 154 621 154 589 c 0,3,4
 154 574 154 574 158.5 541.5 c 128,-1,5
 163 509 163 509 186 470 c 0,6,7
 197 450 197 450 205 434 c 128,-1,8
 213 418 213 418 218 404.5 c 128,-1,9
 223 391 223 391 225.5 378 c 128,-1,10
 228 365 228 365 228 350 c 0,11,12
 228 325 228 325 222 306.5 c 128,-1,13
 216 288 216 288 207 274 c 128,-1,14
 198 260 198 260 188 250 c 128,-1,15
 178 240 178 240 170 234 c 1,16,-1
 272 234 l 1,17,18
 281 250 281 250 293.5 277.5 c 128,-1,19
 306 305 306 305 306 349 c 0,20,21
 306 381 306 381 298 409.5 c 128,-1,22
 290 438 290 438 279 457 c 0,23,24
 266 482 266 482 257 499 c 128,-1,25
 248 516 248 516 242.5 530.5 c 128,-1,26
 237 545 237 545 234.5 557.5 c 128,-1,27
 232 570 232 570 232 586 c 0,28,29
 232 611 232 611 238.5 631 c 128,-1,30
 245 651 245 651 254 665.5 c 128,-1,31
 263 680 263 680 272.5 689.5 c 128,-1,32
 282 699 282 699 288 704 c 1,33,-1
 188 704 l 1,0,1
84 470 m 1,34,35
 67 441 67 441 59.5 413.5 c 128,-1,36
 52 386 52 386 52 354 c 0,37,38
 52 340 52 340 56 307.5 c 128,-1,39
 60 275 60 275 82 236 c 0,40,41
 94 216 94 216 102 200 c 128,-1,42
 110 184 110 184 115 170.5 c 128,-1,43
 120 157 120 157 122.5 144 c 128,-1,44
 125 131 125 131 125 116 c 0,45,46
 125 91 125 91 119 72.5 c 128,-1,47
 113 54 113 54 104 40 c 128,-1,48
 95 26 95 26 85 16 c 128,-1,49
 75 6 75 6 67 0 c 1,50,-1
 168 0 l 1,51,52
 178 16 178 16 190.5 43.5 c 128,-1,53
 203 71 203 71 203 115 c 0,54,55
 203 147 203 147 195 175.5 c 128,-1,56
 187 204 187 204 176 223 c 0,57,58
 163 248 163 248 154 265 c 128,-1,59
 145 282 145 282 139.5 296.5 c 128,-1,60
 134 311 134 311 131.5 323.5 c 128,-1,61
 129 336 129 336 129 352 c 0,62,63
 129 377 129 377 135.5 397 c 128,-1,64
 142 417 142 417 150.5 431.5 c 128,-1,65
 159 446 159 446 168.5 455.5 c 128,-1,66
 178 465 178 465 184 470 c 1,67,-1
 84 470 l 1,34,35
EndSplineSet
EndChar

StartChar: dieresis
Encoding: 168 168 144
Width: 426
Flags: W
LayerCount: 2
Fore
SplineSet
296 754 m 1,0,-1
 296 808 l 1,1,-1
 242 808 l 1,2,-1
 242 754 l 1,3,-1
 296 754 l 1,0,-1
184 754 m 1,4,-1
 184 808 l 1,5,-1
 130 808 l 1,6,-1
 130 754 l 1,7,-1
 184 754 l 1,4,-1
EndSplineSet
EndChar

StartChar: copyright
Encoding: 169 169 145
Width: 800
Flags: W
LayerCount: 2
Fore
SplineSet
769 351 m 0,0,1
 769 430 769 430 739 496.5 c 128,-1,2
 709 563 709 563 658.5 611 c 128,-1,3
 608 659 608 659 541 685.5 c 128,-1,4
 474 712 474 712 401 712 c 0,5,6
 327 712 327 712 260 685.5 c 128,-1,7
 193 659 193 659 142 611 c 128,-1,8
 91 563 91 563 61 496.5 c 128,-1,9
 31 430 31 430 31 351 c 0,10,11
 31 271 31 271 61 204 c 128,-1,12
 91 137 91 137 142 89 c 128,-1,13
 193 41 193 41 260 14.5 c 128,-1,14
 327 -12 327 -12 401 -12 c 0,15,16
 474 -12 474 -12 541 14.5 c 128,-1,17
 608 41 608 41 658.5 89 c 128,-1,18
 709 137 709 137 739 204 c 128,-1,19
 769 271 769 271 769 351 c 0,0,1
701 351 m 0,20,21
 701 287 701 287 677.5 231.5 c 128,-1,22
 654 176 654 176 613.5 134.5 c 128,-1,23
 573 93 573 93 518.5 69 c 128,-1,24
 464 45 464 45 401 45 c 256,25,26
 338 45 338 45 283 69 c 128,-1,27
 228 93 228 93 187 134.5 c 128,-1,28
 146 176 146 176 122.5 231.5 c 128,-1,29
 99 287 99 287 99 351 c 0,30,31
 99 414 99 414 122.5 469.5 c 128,-1,32
 146 525 146 525 187 566 c 128,-1,33
 228 607 228 607 283 631 c 128,-1,34
 338 655 338 655 401 655 c 256,35,36
 464 655 464 655 518.5 631 c 128,-1,37
 573 607 573 607 613.5 566 c 128,-1,38
 654 525 654 525 677.5 469.5 c 128,-1,39
 701 414 701 414 701 351 c 0,20,21
521 285 m 1,40,41
 516 246 516 246 487 222 c 128,-1,42
 458 198 458 198 413 198 c 0,43,44
 383 198 383 198 358.5 210.5 c 128,-1,45
 334 223 334 223 316.5 244.5 c 128,-1,46
 299 266 299 266 290 294 c 128,-1,47
 281 322 281 322 281 353 c 0,48,49
 281 386 281 386 289.5 413.5 c 128,-1,50
 298 441 298 441 314.5 461 c 128,-1,51
 331 481 331 481 355 492.5 c 128,-1,52
 379 504 379 504 411 504 c 0,53,54
 454 504 454 504 483.5 481.5 c 128,-1,55
 513 459 513 459 521 421 c 1,56,-1
 590 421 l 1,57,58
 579 495 579 495 529.5 533 c 128,-1,59
 480 571 480 571 411 571 c 0,60,61
 362 571 362 571 323.5 554.5 c 128,-1,62
 285 538 285 538 258 508.5 c 128,-1,63
 231 479 231 479 216.5 439 c 128,-1,64
 202 399 202 399 202 352 c 256,65,66
 202 305 202 305 217 265 c 128,-1,67
 232 225 232 225 259.5 195.5 c 128,-1,68
 287 166 287 166 326 149 c 128,-1,69
 365 132 365 132 413 132 c 0,70,71
 446 132 446 132 475.5 142.5 c 128,-1,72
 505 153 505 153 528.5 173 c 128,-1,73
 552 193 552 193 568 221 c 128,-1,74
 584 249 584 249 591 285 c 1,75,-1
 521 285 l 1,40,41
EndSplineSet
EndChar

StartChar: ordfeminine
Encoding: 170 170 146
Width: 192
Flags: W
LayerCount: 2
Fore
SplineSet
172 658 m 2,0,1
 172 681 172 681 155.5 697.5 c 128,-1,2
 139 714 139 714 116 714 c 2,3,-1
 30 714 l 1,4,-1
 30 658 l 1,5,-1
 116 658 l 1,6,-1
 116 624 l 1,7,-1
 76 624 l 2,8,9
 53 624 53 624 36.5 607.5 c 128,-1,10
 20 591 20 591 20 568 c 2,11,-1
 20 431 l 2,12,13
 20 408 20 408 36.5 391.5 c 128,-1,14
 53 375 53 375 76 375 c 2,15,-1
 172 375 l 1,16,-1
 172 658 l 2,0,1
76 546 m 2,17,18
 76 557 76 557 82 563 c 128,-1,19
 88 569 88 569 96 569 c 256,20,21
 104 569 104 569 110 563 c 128,-1,22
 116 557 116 557 116 546 c 2,23,-1
 116 431 l 1,24,-1
 96 431 l 2,25,26
 88 431 88 431 82 436.5 c 128,-1,27
 76 442 76 442 76 453 c 2,28,-1
 76 546 l 2,17,18
EndSplineSet
EndChar

StartChar: guillemotleft
Encoding: 171 171 147
Width: 352
Flags: W
LayerCount: 2
Fore
SplineSet
311 0 m 1,0,-1
 215 209 l 1,1,-1
 311 419 l 1,2,-1
 250 419 l 1,3,-1
 152 209 l 1,4,-1
 250 0 l 1,5,-1
 311 0 l 1,0,-1
200 0 m 1,6,-1
 103 209 l 1,7,-1
 200 419 l 1,8,-1
 139 419 l 1,9,-1
 41 209 l 1,10,-1
 139 0 l 1,11,-1
 200 0 l 1,6,-1
EndSplineSet
EndChar

StartChar: logicalnot
Encoding: 172 172 148
Width: 600
Flags: W
LayerCount: 2
Fore
SplineSet
470 109 m 1,0,-1
 552 109 l 1,1,-1
 552 398 l 1,2,-1
 48 398 l 1,3,-1
 48 316 l 1,4,-1
 470 316 l 1,5,-1
 470 109 l 1,0,-1
EndSplineSet
EndChar

StartChar: registered
Encoding: 174 174 149
Width: 800
Flags: W
LayerCount: 2
Fore
SplineSet
411 504 m 2,0,1
 453 504 453 504 468 487 c 128,-1,2
 483 470 483 470 483 444 c 256,3,4
 483 418 483 418 467.5 400 c 128,-1,5
 452 382 452 382 411 382 c 2,6,-1
 325 382 l 1,7,-1
 325 504 l 1,8,-1
 411 504 l 2,0,1
257 556 m 1,9,-1
 257 152 l 1,10,-1
 325 152 l 1,11,-1
 325 328 l 1,12,-1
 411 328 l 2,13,14
 429 328 429 328 442 318.5 c 128,-1,15
 455 309 455 309 463 294 c 0,16,17
 472 279 472 279 474 260 c 128,-1,18
 476 241 476 241 479 220 c 0,19,20
 481 203 481 203 484.5 186 c 128,-1,21
 488 169 488 169 491 152 c 1,22,-1
 565 152 l 1,23,24
 554 175 554 175 550 205.5 c 128,-1,25
 546 236 546 236 541 262 c 0,26,27
 539 281 539 281 536 296 c 128,-1,28
 533 311 533 311 526.5 322.5 c 128,-1,29
 520 334 520 334 507.5 341.5 c 128,-1,30
 495 349 495 349 473 352 c 1,31,-1
 473 356 l 1,32,33
 511 364 511 364 533 390 c 128,-1,34
 555 416 555 416 555 454 c 0,35,36
 555 485 555 485 543 504.5 c 128,-1,37
 531 524 531 524 511.5 535.5 c 128,-1,38
 492 547 492 547 466.5 551.5 c 128,-1,39
 441 556 441 556 415 556 c 2,40,-1
 257 556 l 1,9,-1
769 351 m 0,41,42
 769 430 769 430 739 496.5 c 128,-1,43
 709 563 709 563 658.5 611 c 128,-1,44
 608 659 608 659 541 685.5 c 128,-1,45
 474 712 474 712 401 712 c 0,46,47
 327 712 327 712 260 685.5 c 128,-1,48
 193 659 193 659 142 611 c 128,-1,49
 91 563 91 563 61 496.5 c 128,-1,50
 31 430 31 430 31 351 c 0,51,52
 31 271 31 271 61 204 c 128,-1,53
 91 137 91 137 142 89 c 128,-1,54
 193 41 193 41 260 14.5 c 128,-1,55
 327 -12 327 -12 401 -12 c 0,56,57
 474 -12 474 -12 541 14.5 c 128,-1,58
 608 41 608 41 658.5 89 c 128,-1,59
 709 137 709 137 739 204 c 128,-1,60
 769 271 769 271 769 351 c 0,41,42
701 351 m 0,61,62
 701 287 701 287 677.5 231.5 c 128,-1,63
 654 176 654 176 613.5 134.5 c 128,-1,64
 573 93 573 93 518.5 69 c 128,-1,65
 464 45 464 45 401 45 c 256,66,67
 338 45 338 45 283 69 c 128,-1,68
 228 93 228 93 187 134.5 c 128,-1,69
 146 176 146 176 122.5 231.5 c 128,-1,70
 99 287 99 287 99 351 c 0,71,72
 99 414 99 414 122.5 469.5 c 128,-1,73
 146 525 146 525 187 566 c 128,-1,74
 228 607 228 607 283 631 c 128,-1,75
 338 655 338 655 401 655 c 256,76,77
 464 655 464 655 518.5 631 c 128,-1,78
 573 607 573 607 613.5 566 c 128,-1,79
 654 525 654 525 677.5 469.5 c 128,-1,80
 701 414 701 414 701 351 c 0,61,62
EndSplineSet
EndChar

StartChar: macron
Encoding: 175 175 150
Width: 426
Flags: W
LayerCount: 2
Fore
SplineSet
302 757 m 1,0,-1
 302 798 l 1,1,-1
 124 798 l 1,2,-1
 124 757 l 1,3,-1
 302 757 l 1,0,-1
EndSplineSet
EndChar

StartChar: degree
Encoding: 176 176 151
Width: 259
Flags: W
LayerCount: 2
Fore
SplineSet
130 722 m 0,0,1
 106 722 106 722 85.5 712.5 c 128,-1,2
 65 703 65 703 50.5 687.5 c 128,-1,3
 36 672 36 672 28 652.5 c 128,-1,4
 20 633 20 633 20 613 c 256,5,6
 20 593 20 593 28 573.5 c 128,-1,7
 36 554 36 554 50 538.5 c 128,-1,8
 64 523 64 523 84.5 513.5 c 128,-1,9
 105 504 105 504 129 504 c 0,10,11
 151 504 151 504 171 512.5 c 128,-1,12
 191 521 191 521 206 536 c 128,-1,13
 221 551 221 551 230 570.5 c 128,-1,14
 239 590 239 590 239 612 c 256,15,16
 239 634 239 634 230.5 654 c 128,-1,17
 222 674 222 674 207 689 c 128,-1,18
 192 704 192 704 172 713 c 128,-1,19
 152 722 152 722 130 722 c 0,0,1
130 678 m 0,20,21
 156 678 156 678 175.5 659.5 c 128,-1,22
 195 641 195 641 195 613 c 0,23,24
 195 586 195 586 175 567 c 128,-1,25
 155 548 155 548 129 548 c 0,26,27
 100 548 100 548 82 568.5 c 128,-1,28
 64 589 64 589 64 613 c 0,29,30
 64 639 64 639 83 658.5 c 128,-1,31
 102 678 102 678 130 678 c 0,20,21
EndSplineSet
EndChar

StartChar: plusminus
Encoding: 177 177 152
Width: 296
Flags: W
LayerCount: 2
Fore
SplineSet
35 28 m 1,0,-1
 35 -41 l 1,1,-1
 260 -41 l 1,2,-1
 260 28 l 1,3,-1
 35 28 l 1,0,-1
114 148 m 1,4,-1
 114 57 l 1,5,-1
 182 57 l 1,6,-1
 182 148 l 1,7,-1
 282 148 l 1,8,-1
 282 216 l 1,9,-1
 182 216 l 1,10,-1
 182 336 l 1,11,-1
 114 336 l 1,12,-1
 114 216 l 1,13,-1
 14 216 l 1,14,-1
 14 148 l 1,15,-1
 114 148 l 1,4,-1
EndSplineSet
EndChar

StartChar: twosuperior
Encoding: 178 178 153
Width: 241
Flags: W
LayerCount: 2
Fore
SplineSet
197 281 m 1,0,-1
 197 334 l 1,1,-1
 117 334 l 1,2,-1
 174 453 l 2,3,4
 182 469 182 469 186.5 479.5 c 128,-1,5
 191 490 191 490 193.5 499 c 128,-1,6
 196 508 196 508 196.5 518 c 128,-1,7
 197 528 197 528 197 543 c 2,8,-1
 197 641 l 2,9,10
 197 672 197 672 175.5 694.5 c 128,-1,11
 154 717 154 717 115 717 c 0,12,13
 79 717 79 717 55.5 695 c 128,-1,14
 32 673 32 673 32 641 c 2,15,-1
 32 532 l 1,16,-1
 90 532 l 1,17,-1
 90 641 l 2,18,19
 90 650 90 650 96 657.5 c 128,-1,20
 102 665 102 665 115 665 c 0,21,22
 139 665 139 665 139 641 c 2,23,-1
 139 543 l 2,24,25
 139 530 139 530 138.5 521.5 c 128,-1,26
 138 513 138 513 135.5 505.5 c 128,-1,27
 133 498 133 498 128.5 488.5 c 128,-1,28
 124 479 124 479 117 464 c 2,29,-1
 30 281 l 1,30,-1
 197 281 l 1,0,-1
EndSplineSet
EndChar

StartChar: threesuperior
Encoding: 179 179 154
Width: 216
Flags: W
LayerCount: 2
Fore
SplineSet
149 443 m 256,0,1
 149 420 149 420 139.5 398 c 128,-1,2
 130 376 130 376 112 359 c 0,3,4
 98 346 98 346 82 339.5 c 128,-1,5
 66 333 66 333 56 329 c 1,6,-1
 56 266 l 1,7,8
 124 286 124 286 165.5 331.5 c 128,-1,9
 207 377 207 377 207 443 c 0,10,11
 207 472 207 472 200 497 c 128,-1,12
 193 522 193 522 176 544 c 1,13,14
 196 555 196 555 201.5 572 c 128,-1,15
 207 589 207 589 207 600 c 2,16,-1
 207 644 l 2,17,18
 207 671 207 671 188.5 687.5 c 128,-1,19
 170 704 170 704 136 704 c 2,20,-1
 56 704 l 1,21,-1
 56 642 l 1,22,-1
 136 642 l 2,23,24
 149 642 149 642 149 635 c 2,25,-1
 149 600 l 2,26,27
 149 598 149 598 143 598 c 2,28,-1
 25 598 l 1,29,-1
 60 540 l 1,30,-1
 98 540 l 1,31,32
 126 522 126 522 137.5 494 c 128,-1,33
 149 466 149 466 149 443 c 256,0,1
EndSplineSet
EndChar

StartChar: acute
Encoding: 180 180 155
Width: 426
Flags: W
LayerCount: 2
Fore
SplineSet
304 788 m 1,0,-1
 297 829 l 1,1,-1
 122 798 l 1,2,-1
 129 757 l 1,3,-1
 304 788 l 1,0,-1
EndSplineSet
EndChar

StartChar: mu
Encoding: 181 181 156
Width: 576
Flags: W
LayerCount: 2
Fore
SplineSet
82 500 m 1,0,-1
 82 -192 l 1,1,-1
 156 -192 l 1,2,-1
 156 -28 l 1,3,-1
 157 42 l 1,4,-1
 159 42 l 1,5,6
 180 13 180 13 208 0.5 c 128,-1,7
 236 -12 236 -12 271 -12 c 0,8,9
 366 -12 366 -12 417 78 c 1,10,-1
 421 78 l 1,11,-1
 421 0 l 1,12,-1
 495 0 l 1,13,-1
 495 500 l 1,14,-1
 421 500 l 1,15,-1
 421 214 l 2,16,17
 421 183 421 183 411.5 154 c 128,-1,18
 402 125 402 125 384 102.5 c 128,-1,19
 366 80 366 80 340.5 66 c 128,-1,20
 315 52 315 52 283 52 c 0,21,22
 223 52 223 52 189.5 88 c 128,-1,23
 156 124 156 124 156 186 c 2,24,-1
 156 500 l 1,25,-1
 82 500 l 1,0,-1
EndSplineSet
EndChar

StartChar: paragraph
Encoding: 182 182 157
Width: 600
Flags: W
LayerCount: 2
Fore
SplineSet
263 704 m 2,0,1
 210 704 210 704 167 691 c 128,-1,2
 124 678 124 678 93.5 652.5 c 128,-1,3
 63 627 63 627 46 590 c 128,-1,4
 29 553 29 553 29 504 c 0,5,6
 29 460 29 460 44 423 c 128,-1,7
 59 386 59 386 87 359 c 128,-1,8
 115 332 115 332 154.5 317 c 128,-1,9
 194 302 194 302 243 302 c 1,10,-1
 243 -186 l 1,11,-1
 325 -186 l 1,12,-1
 325 632 l 1,13,-1
 441 632 l 1,14,-1
 441 -186 l 1,15,-1
 523 -186 l 1,16,-1
 523 704 l 1,17,-1
 263 704 l 2,0,1
EndSplineSet
EndChar

StartChar: periodcentered
Encoding: 183 183 158
AltUni2: 002219.ffffffff.0
Width: 148
Flags: W
LayerCount: 2
Fore
SplineSet
113 215 m 1,0,-1
 113 292 l 1,1,-1
 36 292 l 1,2,-1
 36 215 l 1,3,-1
 113 215 l 1,0,-1
EndSplineSet
EndChar

StartChar: cedilla
Encoding: 184 184 159
Width: 426
Flags: W
LayerCount: 2
Fore
SplineSet
187 -58 m 1,0,1
 195 -58 195 -58 207 -60.5 c 128,-1,2
 219 -63 219 -63 219 -78 c 0,3,4
 219 -85 219 -85 213.5 -91 c 128,-1,5
 208 -97 208 -97 200 -97 c 0,6,7
 194 -97 194 -97 190 -95.5 c 128,-1,8
 186 -94 186 -94 183 -92 c 2,9,-1
 169 -126 l 1,10,11
 175 -128 175 -128 182.5 -130 c 128,-1,12
 190 -132 190 -132 201 -132 c 0,13,14
 227 -132 227 -132 242.5 -115.5 c 128,-1,15
 258 -99 258 -99 258 -79 c 0,16,17
 258 -57 258 -57 247.5 -48 c 128,-1,18
 237 -39 237 -39 230 -35 c 1,19,-1
 246 17 l 1,20,-1
 214 27 l 1,21,-1
 187 -58 l 1,0,1
EndSplineSet
EndChar

StartChar: onesuperior
Encoding: 185 185 160
Width: 241
Flags: W
LayerCount: 2
Fore
SplineSet
153 281 m 1,0,-1
 153 733 l 1,1,-1
 54 637 l 1,2,-1
 94 637 l 1,3,-1
 94 281 l 1,4,-1
 153 281 l 1,0,-1
EndSplineSet
EndChar

StartChar: ordmasculine
Encoding: 186 186 161
Width: 192
Flags: W
LayerCount: 2
Fore
SplineSet
20 445 m 2,0,1
 20 413 20 413 42 391 c 128,-1,2
 64 369 64 369 96 369 c 256,3,4
 128 369 128 369 150 391 c 128,-1,5
 172 413 172 413 172 445 c 2,6,-1
 172 644 l 2,7,8
 172 676 172 676 150 698 c 128,-1,9
 128 720 128 720 96 720 c 256,10,11
 64 720 64 720 42 698 c 128,-1,12
 20 676 20 676 20 644 c 2,13,-1
 20 445 l 2,0,1
76 638 m 2,14,15
 76 646 76 646 82 652 c 128,-1,16
 88 658 88 658 96 658 c 256,17,18
 104 658 104 658 110 652 c 128,-1,19
 116 646 116 646 116 638 c 2,20,-1
 116 451 l 2,21,22
 116 443 116 443 110 437 c 128,-1,23
 104 431 104 431 96 431 c 256,24,25
 88 431 88 431 82 437 c 128,-1,26
 76 443 76 443 76 451 c 2,27,-1
 76 638 l 2,14,15
EndSplineSet
EndChar

StartChar: guillemotright
Encoding: 187 187 162
Width: 352
Flags: W
LayerCount: 2
Fore
SplineSet
102 0 m 1,0,-1
 200 209 l 1,1,-1
 102 419 l 1,2,-1
 41 419 l 1,3,-1
 137 209 l 1,4,-1
 41 0 l 1,5,-1
 102 0 l 1,0,-1
213 0 m 1,6,-1
 311 209 l 1,7,-1
 213 419 l 1,8,-1
 152 419 l 1,9,-1
 249 209 l 1,10,-1
 152 0 l 1,11,-1
 213 0 l 1,6,-1
EndSplineSet
EndChar

StartChar: onequarter
Encoding: 188 188 163
Width: 556
Flags: W
LayerCount: 2
Fore
SplineSet
352 133 m 1,0,-1
 404 249 l 1,1,-1
 404 133 l 1,2,-1
 352 133 l 1,0,-1
184 0 m 1,3,-1
 374 710 l 1,4,-1
 328 710 l 1,5,-1
 138 0 l 1,6,-1
 184 0 l 1,3,-1
458 0 m 1,7,-1
 458 85 l 1,8,-1
 498 85 l 1,9,-1
 523 133 l 1,10,-1
 458 133 l 1,11,-1
 458 464 l 1,12,-1
 277 85 l 1,13,-1
 404 85 l 1,14,-1
 404 0 l 1,15,-1
 458 0 l 1,7,-1
135 281 m 1,16,-1
 135 733 l 1,17,-1
 36 637 l 1,18,-1
 76 637 l 1,19,-1
 76 281 l 1,20,-1
 135 281 l 1,16,-1
EndSplineSet
EndChar

StartChar: onehalf
Encoding: 189 189 164
Width: 556
Flags: W
LayerCount: 2
Fore
SplineSet
151 281 m 1,0,-1
 151 733 l 1,1,-1
 52 637 l 1,2,-1
 92 637 l 1,3,-1
 92 281 l 1,4,-1
 151 281 l 1,0,-1
183 0 m 1,5,-1
 373 710 l 1,6,-1
 326 710 l 1,7,-1
 137 0 l 1,8,-1
 183 0 l 1,5,-1
497 0 m 1,9,-1
 497 53 l 1,10,-1
 417 53 l 1,11,-1
 474 171 l 2,12,13
 482 187 482 187 486.5 198 c 128,-1,14
 491 209 491 209 493.5 218 c 128,-1,15
 496 227 496 227 496.5 237 c 128,-1,16
 497 247 497 247 497 262 c 2,17,-1
 497 359 l 2,18,19
 497 390 497 390 475.5 413 c 128,-1,20
 454 436 454 436 414 436 c 0,21,22
 379 436 379 436 355.5 413.5 c 128,-1,23
 332 391 332 391 332 359 c 2,24,-1
 332 251 l 1,25,-1
 390 251 l 1,26,-1
 390 359 l 2,27,28
 390 369 390 369 396 376 c 128,-1,29
 402 383 402 383 415 383 c 0,30,31
 439 383 439 383 439 359 c 2,32,-1
 439 262 l 2,33,34
 439 249 439 249 438 240.5 c 128,-1,35
 437 232 437 232 435 224 c 128,-1,36
 433 216 433 216 428.5 206.5 c 128,-1,37
 424 197 424 197 417 182 c 2,38,-1
 330 0 l 1,39,-1
 497 0 l 1,9,-1
EndSplineSet
EndChar

StartChar: threequarters
Encoding: 190 190 165
Width: 555
Flags: W
LayerCount: 2
Fore
SplineSet
381 133 m 1,0,-1
 433 249 l 1,1,-1
 433 133 l 1,2,-1
 381 133 l 1,0,-1
213 0 m 1,3,-1
 403 710 l 1,4,-1
 356 710 l 1,5,-1
 167 0 l 1,6,-1
 213 0 l 1,3,-1
486 0 m 1,7,-1
 486 85 l 1,8,-1
 527 85 l 1,9,-1
 552 133 l 1,10,-1
 486 133 l 1,11,-1
 486 464 l 1,12,-1
 305 85 l 1,13,-1
 433 85 l 1,14,-1
 433 0 l 1,15,-1
 486 0 l 1,7,-1
7 419 m 1,16,-1
 39 370 l 1,17,-1
 125 370 l 2,18,19
 134 370 134 370 139.5 368 c 128,-1,20
 145 366 145 366 145 357 c 0,21,22
 145 343 145 343 142.5 338.5 c 128,-1,23
 140 334 140 334 125 334 c 2,24,-1
 37 334 l 1,25,-1
 37 281 l 1,26,-1
 125 281 l 2,27,28
 160 281 160 281 181.5 297.5 c 128,-1,29
 203 314 203 314 203 343 c 2,30,-1
 203 358 l 2,31,32
 203 398 203 398 162 417 c 1,33,34
 203 469 203 469 203 537 c 0,35,36
 203 567 203 567 193.5 596 c 128,-1,37
 184 625 184 625 164 650 c 128,-1,38
 144 675 144 675 112.5 695 c 128,-1,39
 81 715 81 715 37 726 c 1,40,-1
 37 672 l 1,41,42
 50 667 50 667 67.5 660 c 128,-1,43
 85 653 85 653 102 636 c 0,44,45
 122 617 122 617 133.5 590.5 c 128,-1,46
 145 564 145 564 145 536 c 0,47,48
 145 509 145 509 131.5 475 c 128,-1,49
 118 441 118 441 83 419 c 1,50,-1
 7 419 l 1,16,-1
EndSplineSet
EndChar

StartChar: questiondown
Encoding: 191 191 166
Width: 315
Flags: W
LayerCount: 2
Fore
SplineSet
133 710 m 1,0,-1
 133 633 l 1,1,-1
 210 633 l 1,2,-1
 210 710 l 1,3,-1
 133 710 l 1,0,-1
205 290 m 1,4,-1
 205 111 l 2,5,6
 205 106 205 106 204.5 98.5 c 128,-1,7
 204 91 204 91 200 83.5 c 128,-1,8
 196 76 196 76 188.5 70.5 c 128,-1,9
 181 65 181 65 166 65 c 0,10,11
 153 65 153 65 140.5 74 c 128,-1,12
 128 83 128 83 128 111 c 2,13,-1
 128 392 l 2,14,15
 128 432 128 432 150 456 c 128,-1,16
 172 480 172 480 210 480 c 1,17,-1
 210 567 l 1,18,19
 180 565 180 565 151 554 c 128,-1,20
 122 543 122 543 100 521 c 128,-1,21
 78 499 78 499 64.5 467 c 128,-1,22
 51 435 51 435 51 392 c 2,23,-1
 51 111 l 2,24,25
 51 81 51 81 60 58 c 128,-1,26
 69 35 69 35 85 19.5 c 128,-1,27
 101 4 101 4 121.5 -4 c 128,-1,28
 142 -12 142 -12 166 -12 c 0,29,30
 194 -12 194 -12 216 -1.5 c 128,-1,31
 238 9 238 9 252.5 26.5 c 128,-1,32
 267 44 267 44 274.5 66 c 128,-1,33
 282 88 282 88 282 111 c 2,34,-1
 282 290 l 1,35,-1
 205 290 l 1,4,-1
EndSplineSet
EndChar

StartChar: AE
Encoding: 198 198 173
Width: 481
Flags: W
LayerCount: 2
Fore
SplineSet
233 0 m 1,0,-1
 453 0 l 1,1,-1
 453 77 l 1,2,-1
 310 77 l 1,3,-1
 310 225 l 1,4,-1
 453 225 l 1,5,-1
 453 302 l 1,6,-1
 310 302 l 1,7,-1
 310 627 l 1,8,-1
 453 627 l 1,9,-1
 453 704 l 1,10,-1
 233 704 l 1,11,-1
 21 0 l 1,12,-1
 100 0 l 1,13,-1
 138 137 l 1,14,-1
 233 137 l 1,15,-1
 233 0 l 1,0,-1
233 204 m 1,16,-1
 158 204 l 1,17,-1
 233 477 l 1,18,-1
 233 204 l 1,16,-1
EndSplineSet
EndChar

StartChar: Ccedilla
Encoding: 199 199 174
Width: 259
Flags: W
LayerCount: 2
Fore
SplineSet
275 0 m 1,0,1
 255 17 255 17 225.5 45.5 c 128,-1,2
 196 74 196 74 168.5 117 c 128,-1,3
 141 160 141 160 121 218 c 128,-1,4
 101 276 101 276 101 353 c 0,5,6
 101 428 101 428 121.5 486.5 c 128,-1,7
 142 545 142 545 170.5 588.5 c 128,-1,8
 199 632 199 632 228.5 660.5 c 128,-1,9
 258 689 258 689 275 704 c 1,10,-1
 163 704 l 1,11,12
 99 630 99 630 61.5 540.5 c 128,-1,13
 24 451 24 451 24 353 c 0,14,15
 24 314 24 314 31 271.5 c 128,-1,16
 38 229 38 229 52.5 186 c 128,-1,17
 67 143 67 143 90.5 100.5 c 128,-1,18
 114 58 114 58 147 19 c 1,19,-1
 124 -58 l 1,20,21
 131 -58 131 -58 143 -60.5 c 128,-1,22
 155 -63 155 -63 155 -78 c 0,23,24
 155 -85 155 -85 149.5 -91 c 128,-1,25
 144 -97 144 -97 136 -97 c 0,26,27
 130 -97 130 -97 126 -95.5 c 128,-1,28
 122 -94 122 -94 119 -92 c 2,29,-1
 105 -126 l 1,30,31
 111 -128 111 -128 118.5 -130 c 128,-1,32
 126 -132 126 -132 137 -132 c 0,33,34
 163 -132 163 -132 178.5 -115.5 c 128,-1,35
 194 -99 194 -99 194 -79 c 0,36,37
 194 -57 194 -57 183.5 -48 c 128,-1,38
 173 -39 173 -39 166 -35 c 1,39,-1
 177 0 l 1,40,-1
 275 0 l 1,0,1
EndSplineSet
EndChar

StartChar: Igrave
Encoding: 204 204 179
Width: 185
Flags: W
LayerCount: 2
Fore
SplineSet
54 0 m 1,0,-1
 131 0 l 1,1,-1
 131 704 l 1,2,-1
 54 704 l 1,3,-1
 54 0 l 1,0,-1
177 757 m 1,4,-1
 184 798 l 1,5,-1
 9 829 l 1,6,-1
 2 788 l 1,7,-1
 177 757 l 1,4,-1
EndSplineSet
EndChar

StartChar: Iacute
Encoding: 205 205 180
Width: 185
Flags: W
LayerCount: 2
Fore
SplineSet
54 0 m 1,0,-1
 131 0 l 1,1,-1
 131 704 l 1,2,-1
 54 704 l 1,3,-1
 54 0 l 1,0,-1
184 788 m 1,4,-1
 177 829 l 1,5,-1
 2 798 l 1,6,-1
 9 757 l 1,7,-1
 184 788 l 1,4,-1
EndSplineSet
EndChar

StartChar: Icircumflex
Encoding: 206 206 181
Width: 185
Flags: W
LayerCount: 2
Fore
SplineSet
54 0 m 1,0,-1
 131 0 l 1,1,-1
 131 704 l 1,2,-1
 54 704 l 1,3,-1
 54 0 l 1,0,-1
93 792 m 1,4,-1
 198 754 l 1,5,-1
 212 794 l 1,6,-1
 93 837 l 1,7,-1
 -26 794 l 1,8,-1
 -12 754 l 1,9,-1
 93 792 l 1,4,-1
EndSplineSet
EndChar

StartChar: Idieresis
Encoding: 207 207 182
Width: 185
Flags: W
LayerCount: 2
Fore
SplineSet
54 0 m 1,0,-1
 131 0 l 1,1,-1
 131 704 l 1,2,-1
 54 704 l 1,3,-1
 54 0 l 1,0,-1
176 754 m 1,4,-1
 176 808 l 1,5,-1
 122 808 l 1,6,-1
 122 754 l 1,7,-1
 176 754 l 1,4,-1
64 754 m 1,8,-1
 64 808 l 1,9,-1
 10 808 l 1,10,-1
 10 754 l 1,11,-1
 64 754 l 1,8,-1
EndSplineSet
EndChar

StartChar: Eth
Encoding: 208 208 183
Width: 333
Flags: W
LayerCount: 2
Fore
SplineSet
-1 364 m 1,0,-1
 -1 323 l 1,1,-1
 54 323 l 1,2,-1
 54 -25 l 1,3,4
 182 26 182 26 250.5 124.5 c 128,-1,5
 319 223 319 223 319 352 c 256,6,7
 319 481 319 481 250.5 579 c 128,-1,8
 182 677 182 677 54 728 c 1,9,-1
 54 364 l 1,10,-1
 -1 364 l 1,0,-1
131 364 m 1,11,-1
 131 591 l 1,12,13
 182 543 182 543 212 480.5 c 128,-1,14
 242 418 242 418 242 348 c 0,15,16
 242 279 242 279 212 217.5 c 128,-1,17
 182 156 182 156 131 108 c 1,18,-1
 131 323 l 1,19,-1
 191 323 l 1,20,-1
 191 364 l 1,21,-1
 131 364 l 1,11,-1
EndSplineSet
EndChar

StartChar: multiply
Encoding: 215 215 190
Width: 259
Flags: W
LayerCount: 2
Fore
SplineSet
130 234 m 1,0,-1
 64 312 l 1,1,-1
 16 272 l 1,2,-1
 88 185 l 1,3,-1
 16 99 l 1,4,-1
 64 58 l 1,5,-1
 130 136 l 1,6,-1
 195 58 l 1,7,-1
 243 99 l 1,8,-1
 171 185 l 1,9,-1
 243 272 l 1,10,-1
 195 312 l 1,11,-1
 130 234 l 1,0,-1
EndSplineSet
EndChar

StartChar: Oslash
Encoding: 216 216 191
Width: 352
Flags: W
LayerCount: 2
Fore
SplineSet
100 4 m 1,0,1
 115 -4 115 -4 132 -11 c 128,-1,2
 149 -18 149 -18 175 -18 c 0,3,4
 191 -18 191 -18 212.5 -13 c 128,-1,5
 234 -8 234 -8 254 5.5 c 128,-1,6
 274 19 274 19 288 43 c 128,-1,7
 302 67 302 67 302 105 c 2,8,-1
 302 599 l 2,9,10
 302 616 302 616 297 635.5 c 128,-1,11
 292 655 292 655 278 675 c 1,12,-1
 297 739 l 1,13,-1
 265 749 l 1,14,-1
 249 701 l 1,15,16
 234 709 234 709 218.5 715.5 c 128,-1,17
 203 722 203 722 177 722 c 256,18,19
 151 722 151 722 128 713.5 c 128,-1,20
 105 705 105 705 87.5 689.5 c 128,-1,21
 70 674 70 674 59.5 651 c 128,-1,22
 49 628 49 628 49 599 c 2,23,-1
 49 105 l 2,24,25
 49 71 49 71 58 53.5 c 128,-1,26
 67 36 67 36 73 28 c 1,27,-1
 54 -36 l 1,28,-1
 86 -46 l 1,29,-1
 100 4 l 1,0,1
126 183 m 1,30,-1
 126 580 l 2,31,32
 126 588 126 588 127 599 c 128,-1,33
 128 610 128 610 132.5 620.5 c 128,-1,34
 137 631 137 631 147 638 c 128,-1,35
 157 645 157 645 176 645 c 0,36,37
 193 645 193 645 203 638 c 128,-1,38
 213 631 213 631 218 623 c 1,39,-1
 126 183 l 1,30,-1
225 522 m 1,40,-1
 225 126 l 2,41,42
 225 118 225 118 224 106.5 c 128,-1,43
 223 95 223 95 218.5 85 c 128,-1,44
 214 75 214 75 204.5 68 c 128,-1,45
 195 61 195 61 177 61 c 0,46,47
 160 61 160 61 150 67.5 c 128,-1,48
 140 74 140 74 134 82 c 1,49,-1
 225 522 l 1,40,-1
EndSplineSet
EndChar

StartChar: Thorn
Encoding: 222 222 197
Width: 315
Flags: W
LayerCount: 2
Fore
SplineSet
131 0 m 1,0,-1
 131 102 l 1,1,2
 145 109 145 109 172 125 c 128,-1,3
 199 141 199 141 227 169 c 0,4,5
 266 208 266 208 286.5 258 c 128,-1,6
 307 308 307 308 307 362 c 0,7,8
 307 453 307 453 259.5 519 c 128,-1,9
 212 585 212 585 131 625 c 1,10,-1
 131 704 l 1,11,-1
 54 704 l 1,12,-1
 54 0 l 1,13,-1
 131 0 l 1,0,-1
131 531 m 1,14,15
 177 505 177 505 203.5 460 c 128,-1,16
 230 415 230 415 230 362 c 256,17,18
 230 309 230 309 203 264.5 c 128,-1,19
 176 220 176 220 131 194 c 1,20,-1
 131 531 l 1,14,15
EndSplineSet
EndChar

StartChar: germandbls
Encoding: 223 223 198
Width: 333
Flags: W
LayerCount: 2
Fore
SplineSet
128 578 m 2,0,1
 128 585 128 585 129 596.5 c 128,-1,2
 130 608 130 608 134.5 618.5 c 128,-1,3
 139 629 139 629 149 637 c 128,-1,4
 159 645 159 645 178 645 c 0,5,6
 192 645 192 645 207 635.5 c 128,-1,7
 222 626 222 626 222 603 c 0,8,9
 222 595 222 595 218 583.5 c 128,-1,10
 214 572 214 572 212 558 c 2,11,-1
 164 380 l 1,12,13
 174 364 174 364 185.5 343.5 c 128,-1,14
 197 323 197 323 206 298 c 128,-1,15
 215 273 215 273 221 244 c 128,-1,16
 227 215 227 215 227 184 c 0,17,18
 227 173 227 173 225.5 153 c 128,-1,19
 224 133 224 133 218 108.5 c 128,-1,20
 212 84 212 84 199 55.5 c 128,-1,21
 186 27 186 27 164 0 c 1,22,-1
 254 0 l 1,23,24
 271 28 271 28 281 56 c 128,-1,25
 291 84 291 84 296 108 c 128,-1,26
 301 132 301 132 302.5 151.5 c 128,-1,27
 304 171 304 171 304 182 c 0,28,29
 304 247 304 247 287 296 c 128,-1,30
 270 345 270 345 254 380 c 1,31,-1
 295 548 l 2,32,33
 299 562 299 562 301 575 c 128,-1,34
 303 588 303 588 303 604 c 0,35,36
 303 628 303 628 293.5 649 c 128,-1,37
 284 670 284 670 267.5 686.5 c 128,-1,38
 251 703 251 703 228 712.5 c 128,-1,39
 205 722 205 722 178 722 c 0,40,41
 160 722 160 722 137.5 715 c 128,-1,42
 115 708 115 708 96 691.5 c 128,-1,43
 77 675 77 675 64 647.5 c 128,-1,44
 51 620 51 620 51 578 c 2,45,-1
 51 0 l 1,46,-1
 128 0 l 1,47,-1
 128 578 l 2,0,1
EndSplineSet
EndChar

StartChar: ae
Encoding: 230 230 205
Width: 309
Flags: W
LayerCount: 2
Fore
SplineSet
53 476 m 0,0,1
 74 457 74 457 94 452 c 128,-1,2
 114 447 114 447 139 447 c 2,3,-1
 158 447 l 2,4,5
 184 447 184 447 195.5 434.5 c 128,-1,6
 207 422 207 422 207 405 c 2,7,-1
 207 362 l 1,8,-1
 139 362 l 2,9,10
 106 362 106 362 85 352 c 128,-1,11
 64 342 64 342 52 327 c 128,-1,12
 40 312 40 312 35.5 295 c 128,-1,13
 31 278 31 278 31 265 c 2,14,-1
 31 89 l 2,15,16
 31 55 31 55 58.5 27.5 c 128,-1,17
 86 0 86 0 136 0 c 2,18,-1
 165 0 l 2,19,20
 210 0 210 0 234 18 c 128,-1,21
 258 36 258 36 269 63 c 128,-1,22
 280 90 280 90 282 122 c 128,-1,23
 284 154 284 154 284 182 c 2,24,-1
 284 405 l 2,25,26
 284 424 284 424 276.5 444.5 c 128,-1,27
 269 465 269 465 257.5 481.5 c 128,-1,28
 246 498 246 498 232.5 508.5 c 128,-1,29
 219 519 219 519 207 519 c 2,30,-1
 25 519 l 1,31,32
 30 507 30 507 36.5 495.5 c 128,-1,33
 43 484 43 484 53 476 c 0,0,1
142 290 m 2,34,-1
 207 290 l 1,35,-1
 207 120 l 2,36,37
 207 93 207 93 193 85 c 128,-1,38
 179 77 179 77 162 77 c 2,39,-1
 139 77 l 2,40,41
 130 77 130 77 119 80 c 128,-1,42
 108 83 108 83 108 101 c 2,43,-1
 108 260 l 2,44,45
 108 283 108 283 117.5 286.5 c 128,-1,46
 127 290 127 290 142 290 c 2,34,-1
460 396 m 2,47,48
 460 417 460 417 452.5 438.5 c 128,-1,49
 445 460 445 460 429.5 478 c 128,-1,50
 414 496 414 496 390 507.5 c 128,-1,51
 366 519 366 519 333 519 c 0,52,53
 310 519 310 519 287.5 511.5 c 128,-1,54
 265 504 265 504 247 488.5 c 128,-1,55
 229 473 229 473 218 450 c 128,-1,56
 207 427 207 427 207 396 c 2,57,-1
 207 123 l 2,58,59
 207 91 207 91 218.5 67.5 c 128,-1,60
 230 44 230 44 248 29 c 128,-1,61
 266 14 266 14 289 7 c 128,-1,62
 312 0 312 0 335 0 c 0,63,64
 348 0 348 0 369 4.5 c 128,-1,65
 390 9 390 9 410.5 22.5 c 128,-1,66
 431 36 431 36 445.5 60 c 128,-1,67
 460 84 460 84 460 123 c 2,68,-1
 460 146 l 1,69,-1
 383 146 l 1,70,-1
 383 144 l 2,71,72
 383 136 383 136 382 124.5 c 128,-1,73
 381 113 381 113 376.5 103 c 128,-1,74
 372 93 372 93 362.5 86 c 128,-1,75
 353 79 353 79 335 79 c 0,76,77
 316 79 316 79 305.5 85.5 c 128,-1,78
 295 92 295 92 290.5 102 c 128,-1,79
 286 112 286 112 285 123.5 c 128,-1,80
 284 135 284 135 284 144 c 2,81,-1
 284 218 l 1,82,-1
 352 218 l 2,83,84
 385 218 385 218 406 228 c 128,-1,85
 427 238 427 238 439 253 c 128,-1,86
 451 268 451 268 455.5 284.5 c 128,-1,87
 460 301 460 301 460 315 c 2,88,-1
 460 396 l 2,47,48
349 290 m 2,89,-1
 284 290 l 1,90,-1
 284 377 l 2,91,92
 284 385 284 385 285 396 c 128,-1,93
 286 407 286 407 290.5 417.5 c 128,-1,94
 295 428 295 428 305 435 c 128,-1,95
 315 442 315 442 334 442 c 0,96,97
 352 442 352 442 362 435 c 128,-1,98
 372 428 372 428 376.5 418 c 128,-1,99
 381 408 381 408 382 396.5 c 128,-1,100
 383 385 383 385 383 377 c 2,101,-1
 383 320 l 2,102,103
 383 297 383 297 373.5 293.5 c 128,-1,104
 364 290 364 290 349 290 c 2,89,-1
EndSplineSet
EndChar

StartChar: eth
Encoding: 240 240 215
Width: 333
Flags: W
LayerCount: 2
Fore
SplineSet
-1 364 m 1,0,-1
 -1 323 l 1,1,-1
 54 323 l 1,2,-1
 54 -25 l 1,3,4
 182 26 182 26 250.5 124.5 c 128,-1,5
 319 223 319 223 319 352 c 256,6,7
 319 481 319 481 250.5 579 c 128,-1,8
 182 677 182 677 54 728 c 1,9,-1
 54 364 l 1,10,-1
 -1 364 l 1,0,-1
131 364 m 1,11,-1
 131 591 l 1,12,13
 182 543 182 543 212 480.5 c 128,-1,14
 242 418 242 418 242 348 c 0,15,16
 242 279 242 279 212 217.5 c 128,-1,17
 182 156 182 156 131 108 c 1,18,-1
 131 323 l 1,19,-1
 191 323 l 1,20,-1
 191 364 l 1,21,-1
 131 364 l 1,11,-1
EndSplineSet
EndChar

StartChar: divide
Encoding: 247 247 222
Width: 259
Flags: W
LayerCount: 2
Fore
SplineSet
17 220 m 1,0,-1
 17 143 l 1,1,-1
 243 143 l 1,2,-1
 243 220 l 1,3,-1
 17 220 l 1,0,-1
169 26 m 1,4,-1
 169 103 l 1,5,-1
 91 103 l 1,6,-1
 91 26 l 1,7,-1
 169 26 l 1,4,-1
169 260 m 1,8,-1
 169 337 l 1,9,-1
 91 337 l 1,10,-1
 91 260 l 1,11,-1
 169 260 l 1,8,-1
EndSplineSet
EndChar

StartChar: oslash
Encoding: 248 248 223
Width: 324
Flags: W
LayerCount: 2
Fore
SplineSet
92 -31 m 1,0,-1
 102 3 l 1,1,2
 130 -9 130 -9 163 -9 c 0,3,4
 176 -9 176 -9 197 -4.5 c 128,-1,5
 218 0 218 0 238.5 13.5 c 128,-1,6
 259 27 259 27 273.5 51 c 128,-1,7
 288 75 288 75 288 114 c 2,8,-1
 288 405 l 2,9,10
 288 427 288 427 279.5 450 c 128,-1,11
 271 473 271 473 253 492 c 1,12,-1
 271 550 l 1,13,-1
 227 550 l 1,14,-1
 217 517 l 1,15,16
 192 528 192 528 161 528 c 0,17,18
 138 528 138 528 115.5 520.5 c 128,-1,19
 93 513 93 513 75 497.5 c 128,-1,20
 57 482 57 482 46 459 c 128,-1,21
 35 436 35 436 35 405 c 2,22,-1
 35 114 l 2,23,24
 35 85 35 85 43.5 64.5 c 128,-1,25
 52 44 52 44 66 29 c 1,26,-1
 48 -31 l 1,27,-1
 92 -31 l 1,0,-1
163 70 m 0,28,29
 149 70 149 70 140.5 73.5 c 128,-1,30
 132 77 132 77 126 82 c 1,31,-1
 211 355 l 1,32,-1
 211 135 l 2,33,34
 211 127 211 127 210 115.5 c 128,-1,35
 209 104 209 104 204.5 94 c 128,-1,36
 200 84 200 84 190.5 77 c 128,-1,37
 181 70 181 70 163 70 c 0,28,29
112 386 m 2,38,39
 112 394 112 394 113 405 c 128,-1,40
 114 416 114 416 118.5 426.5 c 128,-1,41
 123 437 123 437 133 444 c 128,-1,42
 143 451 143 451 162 451 c 256,43,44
 181 451 181 451 193 441 c 1,45,-1
 112 176 l 1,46,-1
 112 386 l 2,38,39
EndSplineSet
EndChar

StartChar: thorn
Encoding: 254 254 229
Width: 315
Flags: W
LayerCount: 2
Fore
SplineSet
131 -203 m 1,0,-1
 131 -22 l 1,1,2
 171 -1 171 -1 204 30 c 128,-1,3
 237 61 237 61 259.5 98.5 c 128,-1,4
 282 136 282 136 294.5 177.5 c 128,-1,5
 307 219 307 219 307 263 c 0,6,7
 307 321 307 321 294.5 364 c 128,-1,8
 282 407 282 407 259.5 440 c 128,-1,9
 237 473 237 473 204 499.5 c 128,-1,10
 171 526 171 526 131 552 c 1,11,-1
 131 704 l 1,12,-1
 54 704 l 1,13,-1
 54 -203 l 1,14,-1
 131 -203 l 1,0,-1
131 455 m 1,15,16
 154 438 154 438 172.5 420 c 128,-1,17
 191 402 191 402 203.5 379.5 c 128,-1,18
 216 357 216 357 223 328.5 c 128,-1,19
 230 300 230 300 230 263 c 0,20,21
 230 227 230 227 223 199.5 c 128,-1,22
 216 172 216 172 203 149.5 c 128,-1,23
 190 127 190 127 171.5 108.5 c 128,-1,24
 153 90 153 90 131 73 c 1,25,-1
 131 455 l 1,15,16
EndSplineSet
EndChar

